Oswald--700.ufo
<glyph name="exclam" format="1">
  <advance width="483"/>
  <unicode hex="0021"/>
  <outline>
    <contour>
      <point x="76" y="0" type="line"/>
      <point x="389" y="0" type="line"/>
      <point x="389" y="309" type="line"/>
      <point x="76" y="309" type="line"/>
    </contour>
    <contour>
      <point x="178" y="419" type="line"/>
      <point x="293" y="419" type="line"/>
      <point x="411" y="1654" type="line"/>
      <point x="82" y="1654" type="line"/>
    </contour>
  </outline>
</glyph>
<glyph name="numbersign" format="1">
  <advance width="1062"/>
  <unicode hex="0023"/>
  <outline>
    <contour>
      <point x="133" y="-1" type="line"/>
      <point x="351" y="-1" type="line"/>
      <point x="417" y="554" type="line"/>
      <point x="551" y="554" type="line"/>
      <point x="486" y="-1" type="line"/>
      <point x="703" y="-1" type="line"/>
      <point x="770" y="554" type="line"/>
      <point x="955" y="554" type="line"/>
      <point x="960" y="761" type="line"/>
      <point x="800" y="761" type="line"/>
      <point x="827" y="992" type="line"/>
      <point x="962" y="992" type="line"/>
      <point x="967" y="1203" type="line"/>
      <point x="863" y="1203" type="line"/>
      <point x="917" y="1658" type="line"/>
      <point x="697" y="1658" type="line"/>
      <point x="644" y="1203" type="line"/>
      <point x="511" y="1203" type="line"/>
      <point x="565" y="1658" type="line"/>
      <point x="344" y="1658" type="line"/>
      <point x="291" y="1203" type="line"/>
      <point x="100" y="1203" type="line"/>
      <point x="95" y="992" type="line"/>
      <point x="254" y="992" type="line"/>
      <point x="228" y="761" type="line"/>
      <point x="93" y="761" type="line"/>
      <point x="88" y="554" type="line"/>
      <point x="198" y="554" type="line"/>
    </contour>
    <contour>
      <point x="445" y="761" type="line"/>
      <point x="474" y="992" type="line"/>
      <point x="609" y="992" type="line"/>
      <point x="581" y="761" type="line"/>
    </contour>
  </outline>
</glyph>
<glyph name="dollar" format="1">
  <advance width="998"/>
  <unicode hex="0024"/>
  <outline>
    <contour>
      <point x="478" y="-219" type="line"/>
      <point x="580" y="-219" type="line"/>
      <point x="580" y="-20" type="line"/>
      <point x="810" y="4"/>
      <point x="955" y="175"/>
      <point x="955" y="393" type="curve" smooth="yes"/>
      <point x="955" y="622"/>
      <point x="839" y="765"/>
      <point x="699" y="889" type="curve" smooth="yes"/>
      <point x="554" y="1016" type="line" smooth="yes"/>
      <point x="475" y="1087"/>
      <point x="397" y="1153"/>
      <point x="397" y="1284" type="curve" smooth="yes"/>
      <point x="397" y="1344"/>
      <point x="428" y="1413"/>
      <point x="498" y="1415" type="curve" smooth="yes"/>
      <point x="596" y="1419"/>
      <point x="606" y="1316"/>
      <point x="609" y="1170" type="curve"/>
      <point x="923" y="1212" type="line"/>
      <point x="916" y="1399"/>
      <point x="875" y="1659"/>
      <point x="562" y="1680" type="curve"/>
      <point x="562" y="1867" type="line"/>
      <point x="459" y="1867" type="line"/>
      <point x="459" y="1678" type="line"/>
      <point x="207" y="1658"/>
      <point x="47" y="1507"/>
      <point x="47" y="1248" type="curve" smooth="yes"/>
      <point x="47" y="1035"/>
      <point x="144" y="924"/>
      <point x="268" y="817" type="curve" smooth="yes"/>
      <point x="418" y="688" type="line" smooth="yes"/>
      <point x="529" y="591"/>
      <point x="599" y="514"/>
      <point x="599" y="374" type="curve" smooth="yes"/>
      <point x="599" y="316"/>
      <point x="580" y="252"/>
      <point x="503" y="252" type="curve" smooth="yes"/>
      <point x="409" y="252"/>
      <point x="360" y="340"/>
      <point x="358" y="551" type="curve"/>
      <point x="46" y="502" type="line"/>
      <point x="57" y="154"/>
      <point x="194" y="-9"/>
      <point x="478" y="-22" type="curve"/>
    </contour>
  </outline>
</glyph>
<glyph name="percent" format="1">
  <advance width="2067"/>
  <unicode hex="0025"/>
  <outline>
    <contour>
      <point x="479" y="930" type="curve" smooth="yes"/>
      <point x="373" y="930"/>
      <point x="365" y="1017"/>
      <point x="365" y="1169" type="curve" smooth="yes"/>
      <point x="365" y="1222" type="line" smooth="yes"/>
      <point x="365" y="1375"/>
      <point x="369" y="1445"/>
      <point x="479" y="1445" type="curve" smooth="yes"/>
      <point x="590" y="1445"/>
      <point x="593" y="1375"/>
      <point x="593" y="1221" type="curve" smooth="yes"/>
      <point x="593" y="1169" type="line" smooth="yes"/>
      <point x="593" y="1018"/>
      <point x="586" y="930"/>
    </contour>
    <contour>
      <point x="479" y="717" type="curve" smooth="yes"/>
      <point x="762" y="717"/>
      <point x="870" y="862"/>
      <point x="870" y="1156" type="curve" smooth="yes"/>
      <point x="870" y="1233" type="line" smooth="yes"/>
      <point x="870" y="1533"/>
      <point x="765" y="1661"/>
      <point x="479" y="1661" type="curve" smooth="yes"/>
      <point x="191" y="1661"/>
      <point x="91" y="1529"/>
      <point x="91" y="1229" type="curve" smooth="yes"/>
      <point x="91" y="1158" type="line" smooth="yes"/>
      <point x="91" y="865"/>
      <point x="196" y="717"/>
    </contour>
    <contour>
      <point x="1586" y="211" type="curve" smooth="yes"/>
      <point x="1481" y="211"/>
      <point x="1472" y="298"/>
      <point x="1472" y="449" type="curve" smooth="yes"/>
      <point x="1472" y="503" type="line" smooth="yes"/>
      <point x="1472" y="655"/>
      <point x="1477" y="726"/>
      <point x="1586" y="726" type="curve" smooth="yes"/>
      <point x="1697" y="726"/>
      <point x="1701" y="655"/>
      <point x="1701" y="502" type="curve" smooth="yes"/>
      <point x="1701" y="450" type="line" smooth="yes"/>
      <point x="1701" y="298"/>
      <point x="1693" y="211"/>
    </contour>
    <contour>
      <point x="1586" y="-3" type="curve" smooth="yes"/>
      <point x="1870" y="-3"/>
      <point x="1977" y="142"/>
      <point x="1977" y="437" type="curve" smooth="yes"/>
      <point x="1977" y="514" type="line" smooth="yes"/>
      <point x="1977" y="813"/>
      <point x="1872" y="941"/>
      <point x="1586" y="941" type="curve" smooth="yes"/>
      <point x="1298" y="941"/>
      <point x="1198" y="810"/>
      <point x="1198" y="509" type="curve" smooth="yes"/>
      <point x="1198" y="439" type="line" smooth="yes"/>
      <point x="1198" y="145"/>
      <point x="1303" y="-3"/>
    </contour>
    <contour>
      <point x="687" y="0" type="line"/>
      <point x="876" y="0" type="line"/>
      <point x="1378" y="1658" type="line"/>
      <point x="1189" y="1658" type="line"/>
    </contour>
  </outline>
</glyph>
<glyph name="ampersand" format="1">
  <advance width="1157"/>
  <unicode hex="0026"/>
  <outline>
    <contour>
      <point x="446" y="-25" type="curve" smooth="yes"/>
      <point x="574" y="-25"/>
      <point x="686" y="26"/>
      <point x="758" y="116" type="curve"/>
      <point x="825" y="56"/>
      <point x="909" y="-30"/>
      <point x="1013" y="-30" type="curve" smooth="yes"/>
      <point x="1033" y="-30"/>
      <point x="1051" y="-26"/>
      <point x="1070" y="-22" type="curve"/>
      <point x="1070" y="224" type="line"/>
      <point x="1016" y="228"/>
      <point x="961" y="258"/>
      <point x="935" y="290" type="curve"/>
      <point x="1008" y="429"/>
      <point x="1060" y="576"/>
      <point x="1060" y="815" type="curve"/>
      <point x="830" y="815" type="line"/>
      <point x="826" y="706"/>
      <point x="805" y="536"/>
      <point x="771" y="474" type="curve"/>
      <point x="578" y="833" type="line"/>
      <point x="692" y="957"/>
      <point x="858" y="1099"/>
      <point x="858" y="1331" type="curve" smooth="yes"/>
      <point x="858" y="1551"/>
      <point x="697" y="1682"/>
      <point x="488" y="1682" type="curve" smooth="yes"/>
      <point x="269" y="1682"/>
      <point x="135" y="1517"/>
      <point x="135" y="1312" type="curve" smooth="yes"/>
      <point x="135" y="1158"/>
      <point x="230" y="1030"/>
      <point x="303" y="879" type="curve"/>
      <point x="180" y="759"/>
      <point x="69" y="564"/>
      <point x="69" y="363" type="curve" smooth="yes"/>
      <point x="69" y="134"/>
      <point x="223" y="-25"/>
    </contour>
    <contour>
      <point x="452" y="200" type="curve" smooth="yes"/>
      <point x="392" y="200"/>
      <point x="335" y="271"/>
      <point x="335" y="386" type="curve" smooth="yes"/>
      <point x="335" y="468"/>
      <point x="362" y="564"/>
      <point x="418" y="655" type="curve"/>
      <point x="435" y="614"/>
      <point x="604" y="275"/>
      <point x="604" y="275" type="curve"/>
      <point x="563" y="220"/>
      <point x="510" y="200"/>
    </contour>
    <contour>
      <point x="484" y="1007" type="curve"/>
      <point x="467" y="1072"/>
      <point x="408" y="1227"/>
      <point x="408" y="1327" type="curve" smooth="yes"/>
      <point x="408" y="1398"/>
      <point x="446" y="1447"/>
      <point x="501" y="1447" type="curve" smooth="yes"/>
      <point x="553" y="1447"/>
      <point x="597" y="1411"/>
      <point x="597" y="1347" type="curve" smooth="yes"/>
      <point x="597" y="1242"/>
      <point x="521" y="1078"/>
    </contour>
  </outline>
</glyph>
<glyph name="parenleft" format="1">
  <advance width="690"/>
  <unicode hex="0028"/>
  <outline>
    <contour>
      <point x="619" y="-371" type="curve"/>
      <point x="619" y="-140" type="line"/>
      <point x="471" y="-140"/>
      <point x="435" y="134"/>
      <point x="435" y="645" type="curve" smooth="yes"/>
      <point x="435" y="1149"/>
      <point x="462" y="1445"/>
      <point x="619" y="1445" type="curve"/>
      <point x="619" y="1677" type="line"/>
      <point x="167" y="1679"/>
      <point x="128" y="1205"/>
      <point x="128" y="645" type="curve" smooth="yes"/>
      <point x="128" y="122"/>
      <point x="167" y="-374"/>
    </contour>
  </outline>
</glyph>
<glyph name="parenright" format="1">
  <advance width="664"/>
  <unicode hex="0029"/>
  <outline>
    <contour>
      <point x="71" y="-371" type="line"/>
      <point x="523" y="-374"/>
      <point x="562" y="123"/>
      <point x="562" y="646" type="curve" smooth="yes"/>
      <point x="562" y="1205"/>
      <point x="523" y="1679"/>
      <point x="71" y="1677" type="curve"/>
      <point x="71" y="1446" type="line"/>
      <point x="228" y="1446"/>
      <point x="255" y="1151"/>
      <point x="255" y="646" type="curve" smooth="yes"/>
      <point x="255" y="137"/>
      <point x="219" y="-139"/>
      <point x="71" y="-139" type="curve"/>
    </contour>
  </outline>
</glyph>
<glyph name="asterisk" format="1">
  <advance width="866"/>
  <unicode hex="002A"/>
  <outline>
    <contour>
      <point x="351" y="922" type="line"/>
      <point x="454" y="1142" type="line"/>
      <point x="557" y="922" type="line"/>
      <point x="755" y="1038" type="line"/>
      <point x="605" y="1244" type="line"/>
      <point x="826" y="1329" type="line"/>
      <point x="752" y="1529" type="line"/>
      <point x="552" y="1417" type="line"/>
      <point x="578" y="1657" type="line"/>
      <point x="331" y="1657" type="line"/>
      <point x="357" y="1419" type="line"/>
      <point x="157" y="1529" type="line"/>
      <point x="83" y="1331" type="line"/>
      <point x="302" y="1246" type="line"/>
      <point x="156" y="1037" type="line"/>
    </contour>
  </outline>
</glyph>
<glyph name="plus" format="1">
  <advance width="919"/>
  <unicode hex="002B"/>
  <outline>
    <contour>
      <point x="347" y="423" type="line"/>
      <point x="568" y="423" type="line"/>
      <point x="568" y="752" type="line"/>
      <point x="866" y="752" type="line"/>
      <point x="866" y="948" type="line"/>
      <point x="568" y="948" type="line"/>
      <point x="568" y="1270" type="line"/>
      <point x="347" y="1270" type="line"/>
      <point x="347" y="948" type="line"/>
      <point x="53" y="948" type="line"/>
      <point x="53" y="752" type="line"/>
      <point x="347" y="752" type="line"/>
    </contour>
  </outline>
</glyph>
<glyph name="comma" format="1">
  <advance width="435"/>
  <unicode hex="002C"/>
  <outline>
    <contour>
      <point x="105" y="-287" type="line"/>
      <point x="281" y="-272"/>
      <point x="369" y="-161"/>
      <point x="370" y="39" type="curve" smooth="yes"/>
      <point x="370" y="310" type="line"/>
      <point x="56" y="310" type="line"/>
      <point x="56" y="0" type="line"/>
      <point x="229" y="0" type="line"/>
      <point x="229" y="-116"/>
      <point x="156" y="-161"/>
      <point x="83" y="-178" type="curve"/>
    </contour>
  </outline>
</glyph>
<glyph name="slash" format="1">
  <advance width="862"/>
  <unicode hex="002F"/>
  <outline>
    <contour>
      <point x="88" y="0" type="line"/>
      <point x="271" y="0" type="line"/>
      <point x="774" y="1658" type="line"/>
      <point x="590" y="1658" type="line"/>
    </contour>
  </outline>
</glyph>
<glyph name="zero" format="1">
  <advance width="1043"/>
  <unicode hex="0030"/>
  <outline>
    <contour>
      <point x="521" y="272" type="curve" smooth="yes"/>
      <point x="426" y="272"/>
      <point x="418" y="427"/>
      <point x="418" y="492" type="curve" smooth="yes"/>
      <point x="418" y="1159" type="line" smooth="yes"/>
      <point x="418" y="1230"/>
      <point x="416" y="1380"/>
      <point x="521" y="1380" type="curve" smooth="yes"/>
      <point x="625" y="1380"/>
      <point x="625" y="1230"/>
      <point x="625" y="1159" type="curve" smooth="yes"/>
      <point x="625" y="492" type="line" smooth="yes"/>
      <point x="625" y="426"/>
      <point x="618" y="272"/>
    </contour>
    <contour>
      <point x="521" y="-30" type="curve" smooth="yes"/>
      <point x="815" y="-30"/>
      <point x="971" y="204"/>
      <point x="971" y="483" type="curve" smooth="yes"/>
      <point x="971" y="1169" type="line" smooth="yes"/>
      <point x="971" y="1457"/>
      <point x="829" y="1682"/>
      <point x="521" y="1682" type="curve" smooth="yes"/>
      <point x="211" y="1682"/>
      <point x="70" y="1459"/>
      <point x="70" y="1169" type="curve" smooth="yes"/>
      <point x="70" y="483" type="line" smooth="yes"/>
      <point x="70" y="201"/>
      <point x="224" y="-30"/>
    </contour>
  </outline>
</glyph>
<glyph name="one" format="1">
  <advance width="1072"/>
  <unicode hex="0031"/>
  <outline>
    <contour>
      <point x="409" y="0" type="line"/>
      <point x="750" y="0" type="line"/>
      <point x="750" y="1658" type="line"/>
      <point x="484" y="1658" type="line"/>
      <point x="417" y="1570"/>
      <point x="264" y="1502"/>
      <point x="195" y="1477" type="curve"/>
      <point x="195" y="1223" type="line"/>
      <point x="409" y="1290" type="line"/>
    </contour>
  </outline>
</glyph>
<glyph name="two" format="1">
  <advance width="1071"/>
  <unicode hex="0032"/>
  <outline>
    <contour>
      <point x="89" y="0" type="line"/>
      <point x="952" y="0" type="line"/>
      <point x="952" y="272" type="line"/>
      <point x="484" y="272" type="line"/>
      <point x="776" y="724" type="line" smooth="yes"/>
      <point x="880" y="886"/>
      <point x="998" y="1032"/>
      <point x="998" y="1244" type="curve" smooth="yes"/>
      <point x="998" y="1519"/>
      <point x="832" y="1684"/>
      <point x="543" y="1684" type="curve" smooth="yes"/>
      <point x="217" y="1684"/>
      <point x="88" y="1463"/>
      <point x="88" y="1169" type="curve" smooth="yes"/>
      <point x="88" y="1084" type="line"/>
      <point x="425" y="1084" type="line"/>
      <point x="425" y="1107"/>
      <point x="425" y="1146"/>
      <point x="425" y="1164" type="curve" smooth="yes"/>
      <point x="429" y="1310"/>
      <point x="453" y="1383"/>
      <point x="534" y="1394" type="curve" smooth="yes"/>
      <point x="611" y="1406"/>
      <point x="662" y="1355"/>
      <point x="662" y="1248" type="curve" smooth="yes"/>
      <point x="662" y="1101"/>
      <point x="559" y="984"/>
      <point x="482" y="866" type="curve" smooth="yes"/>
      <point x="89" y="262" type="line"/>
    </contour>
  </outline>
</glyph>
<glyph name="three" format="1">
  <advance width="1063"/>
  <unicode hex="0033"/>
  <outline>
    <contour>
      <point x="538" y="-30" type="curve" smooth="yes"/>
      <point x="868" y="-30"/>
      <point x="991" y="184"/>
      <point x="991" y="488" type="curve" smooth="yes"/>
      <point x="991" y="721"/>
      <point x="904" y="828"/>
      <point x="786" y="872" type="curve"/>
      <point x="901" y="903"/>
      <point x="991" y="1042"/>
      <point x="991" y="1234" type="curve" smooth="yes"/>
      <point x="991" y="1529"/>
      <point x="820" y="1684"/>
      <point x="533" y="1684" type="curve" smooth="yes"/>
      <point x="252" y="1684"/>
      <point x="81" y="1518"/>
      <point x="81" y="1221" type="curve" smooth="yes"/>
      <point x="81" y="1122" type="line"/>
      <point x="421" y="1122" type="line"/>
      <point x="421" y="1125"/>
      <point x="421" y="1202"/>
      <point x="421" y="1205" type="curve" smooth="yes"/>
      <point x="422" y="1326"/>
      <point x="440" y="1411"/>
      <point x="535" y="1411" type="curve" smooth="yes"/>
      <point x="627" y="1411"/>
      <point x="655" y="1342"/>
      <point x="655" y="1213" type="curve" smooth="yes"/>
      <point x="655" y="1049"/>
      <point x="618" y="975"/>
      <point x="474" y="973" type="curve" smooth="yes"/>
      <point x="471" y="973"/>
      <point x="423" y="973"/>
      <point x="421" y="973" type="curve"/>
      <point x="421" y="733" type="line"/>
      <point x="424" y="733"/>
      <point x="477" y="733"/>
      <point x="480" y="733" type="curve" smooth="yes"/>
      <point x="622" y="729"/>
      <point x="655" y="642"/>
      <point x="655" y="479" type="curve" smooth="yes"/>
      <point x="655" y="333"/>
      <point x="639" y="256"/>
      <point x="542" y="256" type="curve" smooth="yes"/>
      <point x="447" y="256"/>
      <point x="422" y="325"/>
      <point x="421" y="489" type="curve" smooth="yes"/>
      <point x="421" y="492"/>
      <point x="421" y="542"/>
      <point x="421" y="546" type="curve"/>
      <point x="81" y="546" type="line"/>
      <point x="81" y="487" type="line" smooth="yes"/>
      <point x="81" y="178"/>
      <point x="194" y="-30"/>
    </contour>
  </outline>
</glyph>
<glyph name="four" format="1">
  <advance width="1080"/>
  <unicode hex="0034"/>
  <outline>
    <contour>
      <point x="570" y="0" type="line"/>
      <point x="875" y="0" type="line"/>
      <point x="875" y="382" type="line"/>
      <point x="1034" y="382" type="line"/>
      <point x="1034" y="645" type="line"/>
      <point x="875" y="645" type="line"/>
      <point x="875" y="1658" type="line"/>
      <point x="496" y="1658" type="line"/>
      <point x="67" y="647" type="line"/>
      <point x="67" y="382" type="line"/>
      <point x="570" y="382" type="line"/>
    </contour>
    <contour>
      <point x="357" y="645" type="line"/>
      <point x="570" y="1241" type="line"/>
      <point x="570" y="645" type="line"/>
    </contour>
  </outline>
</glyph>
<glyph name="five" format="1">
  <advance width="1070"/>
  <unicode hex="0035"/>
  <outline>
    <contour>
      <point x="536" y="-30" type="curve" smooth="yes"/>
      <point x="924" y="-30"/>
      <point x="989" y="229"/>
      <point x="989" y="582" type="curve" smooth="yes"/>
      <point x="989" y="931"/>
      <point x="857" y="1132"/>
      <point x="601" y="1107" type="curve" smooth="yes"/>
      <point x="512" y="1099"/>
      <point x="428" y="1068"/>
      <point x="398" y="1030" type="curve"/>
      <point x="417" y="1372" type="line"/>
      <point x="918" y="1372" type="line"/>
      <point x="918" y="1658" type="line"/>
      <point x="142" y="1658" type="line"/>
      <point x="114" y="706" type="line"/>
      <point x="408" y="706" type="line"/>
      <point x="425" y="805"/>
      <point x="468" y="856"/>
      <point x="540" y="856" type="curve" smooth="yes"/>
      <point x="653" y="856"/>
      <point x="669" y="730"/>
      <point x="669" y="570" type="curve" smooth="yes"/>
      <point x="669" y="357"/>
      <point x="667" y="227"/>
      <point x="557" y="223" type="curve" smooth="yes"/>
      <point x="450" y="219"/>
      <point x="431" y="301"/>
      <point x="431" y="487" type="curve"/>
      <point x="102" y="487" type="line"/>
      <point x="102" y="178"/>
      <point x="174" y="-30"/>
    </contour>
  </outline>
</glyph>
<glyph name="six" format="1">
  <advance width="1079"/>
  <unicode hex="0036"/>
  <outline>
    <contour>
      <point x="549" y="-24" type="curve" smooth="yes"/>
      <point x="880" y="-24"/>
      <point x="1000" y="217"/>
      <point x="1000" y="561" type="curve" smooth="yes"/>
      <point x="1000" y="829"/>
      <point x="907" y="1043"/>
      <point x="641" y="1037" type="curve" smooth="yes"/>
      <point x="550" y="1035"/>
      <point x="471" y="1002"/>
      <point x="437" y="943" type="curve"/>
      <point x="437" y="1092" type="line" smooth="yes"/>
      <point x="437" y="1347"/>
      <point x="455" y="1424"/>
      <point x="550" y="1424" type="curve" smooth="yes"/>
      <point x="644" y="1424"/>
      <point x="652" y="1359"/>
      <point x="652" y="1227" type="curve"/>
      <point x="972" y="1227" type="line"/>
      <point x="972" y="1229"/>
      <point x="972" y="1253"/>
      <point x="972" y="1255" type="curve" smooth="yes"/>
      <point x="970" y="1530"/>
      <point x="862" y="1681"/>
      <point x="547" y="1681" type="curve" smooth="yes"/>
      <point x="181" y="1681"/>
      <point x="92" y="1438"/>
      <point x="92" y="1113" type="curve" smooth="yes"/>
      <point x="92" y="523" type="line" smooth="yes"/>
      <point x="92" y="208"/>
      <point x="224" y="-24"/>
    </contour>
    <contour>
      <point x="554" y="228" type="curve" smooth="yes"/>
      <point x="459" y="228"/>
      <point x="437" y="332"/>
      <point x="437" y="442" type="curve" smooth="yes"/>
      <point x="437" y="708" type="line"/>
      <point x="453" y="739"/>
      <point x="496" y="779"/>
      <point x="550" y="779" type="curve" smooth="yes"/>
      <point x="659" y="779"/>
      <point x="660" y="664"/>
      <point x="660" y="507" type="curve" smooth="yes"/>
      <point x="660" y="328"/>
      <point x="647" y="228"/>
    </contour>
  </outline>
</glyph>
<glyph name="seven" format="1">
  <advance width="1007"/>
  <unicode hex="0037"/>
  <outline>
    <contour>
      <point x="212" y="0" type="line"/>
      <point x="543" y="0" type="line"/>
      <point x="900" y="1429" type="line"/>
      <point x="900" y="1658" type="line"/>
      <point x="120" y="1658" type="line"/>
      <point x="120" y="1401" type="line"/>
      <point x="568" y="1401" type="line"/>
    </contour>
  </outline>
</glyph>
<glyph name="eight" format="1">
  <advance width="1071"/>
  <unicode hex="0038"/>
  <outline>
    <contour>
      <point x="535" y="-26" type="curve" smooth="yes"/>
      <point x="873" y="-26"/>
      <point x="994" y="186"/>
      <point x="988" y="494" type="curve" smooth="yes"/>
      <point x="985" y="659"/>
      <point x="926" y="807"/>
      <point x="797" y="874" type="curve"/>
      <point x="883" y="935"/>
      <point x="954" y="1050"/>
      <point x="958" y="1233" type="curve" smooth="yes"/>
      <point x="963" y="1511"/>
      <point x="819" y="1680"/>
      <point x="535" y="1680" type="curve" smooth="yes"/>
      <point x="253" y="1680"/>
      <point x="103" y="1514"/>
      <point x="109" y="1233" type="curve" smooth="yes"/>
      <point x="113" y="1050"/>
      <point x="187" y="937"/>
      <point x="272" y="874" type="curve"/>
      <point x="142" y="808"/>
      <point x="85" y="658"/>
      <point x="83" y="494" type="curve" smooth="yes"/>
      <point x="79" y="188"/>
      <point x="200" y="-26"/>
    </contour>
    <contour>
      <point x="535" y="225" type="curve" smooth="yes"/>
      <point x="423" y="225"/>
      <point x="416" y="373"/>
      <point x="416" y="469" type="curve" smooth="yes"/>
      <point x="416" y="594"/>
      <point x="425" y="724"/>
      <point x="535" y="724" type="curve" smooth="yes"/>
      <point x="646" y="724"/>
      <point x="655" y="594"/>
      <point x="654" y="469" type="curve" smooth="yes"/>
      <point x="654" y="375"/>
      <point x="648" y="225"/>
    </contour>
    <contour>
      <point x="535" y="996" type="curve" smooth="yes"/>
      <point x="460" y="996"/>
      <point x="429" y="1083"/>
      <point x="429" y="1245" type="curve" smooth="yes"/>
      <point x="429" y="1354"/>
      <point x="462" y="1426"/>
      <point x="535" y="1426" type="curve" smooth="yes"/>
      <point x="605" y="1426"/>
      <point x="638" y="1353"/>
      <point x="638" y="1244" type="curve" smooth="yes"/>
      <point x="638" y="1083"/>
      <point x="606" y="996"/>
    </contour>
  </outline>
</glyph>
<glyph name="nine" format="1">
  <advance width="1079"/>
  <unicode hex="0039"/>
  <outline>
    <contour>
      <point x="530" y="-24" type="curve" smooth="yes"/>
      <point x="897" y="-24"/>
      <point x="988" y="219"/>
      <point x="988" y="544" type="curve" smooth="yes"/>
      <point x="988" y="1152" type="line" smooth="yes"/>
      <point x="988" y="1466"/>
      <point x="856" y="1681"/>
      <point x="532" y="1681" type="curve" smooth="yes"/>
      <point x="200" y="1681"/>
      <point x="80" y="1458"/>
      <point x="80" y="1114" type="curve" smooth="yes"/>
      <point x="80" y="846"/>
      <point x="173" y="614"/>
      <point x="439" y="620" type="curve" smooth="yes"/>
      <point x="530" y="622"/>
      <point x="606" y="655"/>
      <point x="641" y="714" type="curve"/>
      <point x="641" y="565" type="line" smooth="yes"/>
      <point x="641" y="310"/>
      <point x="628" y="233"/>
      <point x="533" y="233" type="curve" smooth="yes"/>
      <point x="439" y="233"/>
      <point x="428" y="298"/>
      <point x="428" y="430" type="curve"/>
      <point x="107" y="430" type="line"/>
      <point x="107" y="429"/>
      <point x="107" y="405"/>
      <point x="107" y="404" type="curve" smooth="yes"/>
      <point x="109" y="128"/>
      <point x="215" y="-24"/>
    </contour>
    <contour>
      <point x="535" y="879" type="curve" smooth="yes"/>
      <point x="426" y="879"/>
      <point x="426" y="993"/>
      <point x="426" y="1150" type="curve" smooth="yes"/>
      <point x="426" y="1329"/>
      <point x="438" y="1430"/>
      <point x="532" y="1430" type="curve" smooth="yes"/>
      <point x="627" y="1430"/>
      <point x="641" y="1326"/>
      <point x="641" y="1216" type="curve" smooth="yes"/>
      <point x="641" y="950" type="line"/>
      <point x="624" y="919"/>
      <point x="590" y="879"/>
    </contour>
  </outline>
</glyph>
<glyph name="colon" format="1">
  <advance width="473"/>
  <unicode hex="003A"/>
  <outline>
    <contour>
      <point x="91" y="121" type="line"/>
      <point x="401" y="121" type="line"/>
      <point x="401" y="429" type="line"/>
      <point x="91" y="429" type="line"/>
    </contour>
    <contour>
      <point x="91" y="842" type="line"/>
      <point x="401" y="842" type="line"/>
      <point x="401" y="1150" type="line"/>
      <point x="91" y="1150" type="line"/>
    </contour>
  </outline>
</glyph>
<glyph name="semicolon" format="1">
  <advance width="479"/>
  <unicode hex="003B"/>
  <outline>
    <contour>
      <point x="136" y="-235" type="line"/>
      <point x="316" y="-233"/>
      <point x="400" y="-121"/>
      <point x="400" y="79" type="curve" smooth="yes"/>
      <point x="401" y="350" type="line"/>
      <point x="87" y="350" type="line"/>
      <point x="87" y="40" type="line"/>
      <point x="260" y="40" type="line"/>
      <point x="260" y="-76"/>
      <point x="190" y="-115"/>
      <point x="114" y="-126" type="curve"/>
    </contour>
    <contour>
      <point x="85" y="867" type="line"/>
      <point x="397" y="867" type="line"/>
      <point x="397" y="1178" type="line"/>
      <point x="85" y="1178" type="line"/>
    </contour>
  </outline>
</glyph>
<glyph name="less" format="1">
  <advance width="814"/>
  <unicode hex="003C"/>
  <outline>
    <contour>
      <point x="697" y="194" type="line"/>
      <point x="697" y="484" type="line"/>
      <point x="302" y="767" type="line"/>
      <point x="697" y="1048" type="line"/>
      <point x="697" y="1339" type="line"/>
      <point x="64" y="896" type="line"/>
      <point x="64" y="635" type="line"/>
    </contour>
  </outline>
</glyph>
<glyph name="equal" format="1">
  <advance width="906"/>
  <unicode hex="003D"/>
  <outline>
    <contour>
      <point x="127" y="510" type="line"/>
      <point x="779" y="510" type="line"/>
      <point x="779" y="713" type="line"/>
      <point x="127" y="713" type="line"/>
    </contour>
    <contour>
      <point x="127" y="898" type="line"/>
      <point x="779" y="898" type="line"/>
      <point x="779" y="1101" type="line"/>
      <point x="127" y="1101" type="line"/>
    </contour>
  </outline>
</glyph>
<glyph name="greater" format="1">
  <advance width="814"/>
  <unicode hex="003E"/>
  <outline>
    <contour>
      <point x="112" y="194" type="line"/>
      <point x="745" y="635" type="line"/>
      <point x="745" y="896" type="line"/>
      <point x="112" y="1339" type="line"/>
      <point x="112" y="1048" type="line"/>
      <point x="506" y="767" type="line"/>
      <point x="112" y="484" type="line"/>
    </contour>
  </outline>
</glyph>
<glyph name="question" format="1">
  <advance width="993"/>
  <unicode hex="003F"/>
  <outline>
    <contour>
      <point x="267" y="435" type="line"/>
      <point x="568" y="435" type="line"/>
      <point x="568" y="634" type="line"/>
      <point x="758" y="769"/>
      <point x="922" y="1016"/>
      <point x="922" y="1265" type="curve" smooth="yes"/>
      <point x="922" y="1528"/>
      <point x="763" y="1685"/>
      <point x="470" y="1685" type="curve" smooth="yes"/>
      <point x="168" y="1685"/>
      <point x="56" y="1506"/>
      <point x="71" y="1281" type="curve" smooth="yes"/>
      <point x="71" y="1221"/>
      <point x="84" y="1175"/>
      <point x="101" y="1110" type="curve"/>
      <point x="401" y="1177" type="line"/>
      <point x="389" y="1214"/>
      <point x="380" y="1240"/>
      <point x="380" y="1282" type="curve" smooth="yes"/>
      <point x="375" y="1354"/>
      <point x="417" y="1400"/>
      <point x="477" y="1400" type="curve" smooth="yes"/>
      <point x="535" y="1400"/>
      <point x="589" y="1369"/>
      <point x="594" y="1278" type="curve" smooth="yes"/>
      <point x="608" y="1054"/>
      <point x="444" y="847"/>
      <point x="267" y="699" type="curve"/>
    </contour>
    <contour>
      <point x="258" y="0" type="line"/>
      <point x="581" y="0" type="line"/>
      <point x="581" y="315" type="line"/>
      <point x="258" y="315" type="line"/>
    </contour>
  </outline>
</glyph>
<glyph name="at" format="1">
  <advance width="1949"/>
  <unicode hex="0040"/>
  <outline>
    <contour>
      <point x="969" y="-263" type="curve" smooth="yes"/>
      <point x="1122" y="-263"/>
      <point x="1289" y="-233"/>
      <point x="1442" y="-197" type="curve"/>
      <point x="1403" y="9" type="line"/>
      <point x="1282" y="-32"/>
      <point x="1104" y="-58"/>
      <point x="1000" y="-58" type="curve" smooth="yes"/>
      <point x="484" y="-58"/>
      <point x="306" y="238"/>
      <point x="360" y="710" type="curve"/>
      <point x="400" y="1120"/>
      <point x="620" y="1458"/>
      <point x="1090" y="1458" type="curve" smooth="yes"/>
      <point x="1537" y="1458"/>
      <point x="1691" y="1181"/>
      <point x="1654" y="787" type="curve" smooth="yes"/>
      <point x="1634" y="546"/>
      <point x="1500" y="359"/>
      <point x="1380" y="387" type="curve" smooth="yes"/>
      <point x="1334" y="399"/>
      <point x="1353" y="517"/>
      <point x="1359" y="565" type="curve" smooth="yes"/>
      <point x="1450" y="1241" type="line"/>
      <point x="1187" y="1241" type="line"/>
      <point x="1167" y="1117" type="line"/>
      <point x="1150" y="1156"/>
      <point x="1115" y="1254"/>
      <point x="1017" y="1254" type="curve" smooth="yes"/>
      <point x="692" y="1254"/>
      <point x="558" y="876"/>
      <point x="550" y="637" type="curve" smooth="yes"/>
      <point x="540" y="395"/>
      <point x="671" y="198"/>
      <point x="901" y="218" type="curve" smooth="yes"/>
      <point x="992" y="226"/>
      <point x="1064" y="283"/>
      <point x="1095" y="355" type="curve"/>
      <point x="1127" y="249"/>
      <point x="1245" y="202"/>
      <point x="1358" y="202" type="curve" smooth="yes"/>
      <point x="1708" y="202"/>
      <point x="1862" y="534"/>
      <point x="1881" y="791" type="curve" smooth="yes"/>
      <point x="1926" y="1280"/>
      <point x="1686" y="1659"/>
      <point x="1114" y="1659" type="curve" smooth="yes"/>
      <point x="534" y="1659"/>
      <point x="170" y="1281"/>
      <point x="118" y="705" type="curve" smooth="yes"/>
      <point x="54" y="105"/>
      <point x="358" y="-263"/>
    </contour>
    <contour>
      <point x="972" y="440" type="curve"/>
      <point x="871" y="433"/>
      <point x="835" y="529"/>
      <point x="835" y="635" type="curve" smooth="yes"/>
      <point x="837" y="810"/>
      <point x="923" y="1012"/>
      <point x="1086" y="1012" type="curve" smooth="yes"/>
      <point x="1102" y="1012"/>
      <point x="1141" y="1006"/>
      <point x="1142" y="985" type="curve" smooth="yes"/>
      <point x="1080" y="506" type="line"/>
      <point x="1060" y="454"/>
      <point x="990" y="443"/>
    </contour>
  </outline>
</glyph>
<glyph name="B" format="1">
  <advance width="1161"/>
  <unicode hex="0042"/>
  <outline>
    <contour>
      <point x="106" y="0" type="line"/>
      <point x="615" y="0" type="line" smooth="yes"/>
      <point x="931" y="0"/>
      <point x="1119" y="149"/>
      <point x="1114" y="491" type="curve" smooth="yes"/>
      <point x="1112" y="729"/>
      <point x="1010" y="866"/>
      <point x="819" y="891" type="curve"/>
      <point x="969" y="918"/>
      <point x="1059" y="1022"/>
      <point x="1063" y="1225" type="curve" smooth="yes"/>
      <point x="1070" y="1591"/>
      <point x="822" y="1658"/>
      <point x="538" y="1658" type="curve" smooth="yes"/>
      <point x="106" y="1658" type="line"/>
    </contour>
    <contour>
      <point x="470" y="254" type="line"/>
      <point x="470" y="754" type="line"/>
      <point x="543" y="754" type="line" smooth="yes"/>
      <point x="707" y="754"/>
      <point x="764" y="683"/>
      <point x="764" y="496" type="curve" smooth="yes"/>
      <point x="764" y="335"/>
      <point x="713" y="254"/>
      <point x="548" y="254" type="curve" smooth="yes"/>
    </contour>
    <contour>
      <point x="470" y="994" type="line"/>
      <point x="470" y="1414" type="line"/>
      <point x="527" y="1414" type="line" smooth="yes"/>
      <point x="669" y="1414"/>
      <point x="746" y="1355"/>
      <point x="746" y="1217" type="curve" smooth="yes"/>
      <point x="746" y="1073"/>
      <point x="708" y="994"/>
      <point x="540" y="994" type="curve" smooth="yes"/>
    </contour>
  </outline>
</glyph>
<glyph name="C" format="1">
  <advance width="1119"/>
  <unicode hex="0043"/>
  <outline>
    <contour>
      <point x="580" y="-23" type="curve" smooth="yes"/>
      <point x="950" y="-23"/>
      <point x="1056" y="188"/>
      <point x="1056" y="473" type="curve" smooth="yes"/>
      <point x="1056" y="615" type="line"/>
      <point x="701" y="615" type="line"/>
      <point x="701" y="443" type="line" smooth="yes"/>
      <point x="701" y="339"/>
      <point x="698" y="234"/>
      <point x="581" y="234" type="curve" smooth="yes"/>
      <point x="473" y="234"/>
      <point x="453" y="322"/>
      <point x="453" y="443" type="curve" smooth="yes"/>
      <point x="453" y="1212" type="line" smooth="yes"/>
      <point x="453" y="1319"/>
      <point x="461" y="1424"/>
      <point x="581" y="1424" type="curve" smooth="yes"/>
      <point x="701" y="1424"/>
      <point x="701" y="1321"/>
      <point x="701" y="1222" type="curve" smooth="yes"/>
      <point x="701" y="1056" type="line"/>
      <point x="1056" y="1056" type="line"/>
      <point x="1056" y="1202" type="line" smooth="yes"/>
      <point x="1056" y="1485"/>
      <point x="945" y="1681"/>
      <point x="580" y="1681" type="curve" smooth="yes"/>
      <point x="202" y="1681"/>
      <point x="83" y="1469"/>
      <point x="83" y="1123" type="curve" smooth="yes"/>
      <point x="83" y="533" type="line" smooth="yes"/>
      <point x="83" y="195"/>
      <point x="202" y="-23"/>
    </contour>
  </outline>
</glyph>
<glyph name="F" format="1">
  <advance width="825"/>
  <unicode hex="0046"/>
  <outline>
    <contour>
      <point x="106" y="0" type="line"/>
      <point x="470" y="0" type="line"/>
      <point x="470" y="737" type="line"/>
      <point x="753" y="737" type="line"/>
      <point x="753" y="990" type="line"/>
      <point x="470" y="990" type="line"/>
      <point x="470" y="1411" type="line"/>
      <point x="815" y="1411" type="line"/>
      <point x="815" y="1658" type="line"/>
      <point x="106" y="1658" type="line"/>
    </contour>
  </outline>
</glyph>
<glyph name="G" format="1">
  <advance width="1168"/>
  <unicode hex="0047"/>
  <outline>
    <contour>
      <point x="540" y="-24" type="curve" smooth="yes"/>
      <point x="686" y="-24"/>
      <point x="766" y="46"/>
      <point x="808" y="140" type="curve"/>
      <point x="829" y="0" type="line"/>
      <point x="1069" y="0" type="line"/>
      <point x="1069" y="861" type="line"/>
      <point x="590" y="861" type="line"/>
      <point x="590" y="643" type="line"/>
      <point x="742" y="643" type="line"/>
      <point x="742" y="460" type="line" smooth="yes"/>
      <point x="742" y="338"/>
      <point x="711" y="235"/>
      <point x="596" y="235" type="curve" smooth="yes"/>
      <point x="481" y="235"/>
      <point x="457" y="334"/>
      <point x="457" y="452" type="curve" smooth="yes"/>
      <point x="457" y="1206" type="line" smooth="yes"/>
      <point x="457" y="1313"/>
      <point x="464" y="1424"/>
      <point x="586" y="1424" type="curve" smooth="yes"/>
      <point x="704" y="1424"/>
      <point x="711" y="1330"/>
      <point x="711" y="1221" type="curve" smooth="yes"/>
      <point x="711" y="1091" type="line"/>
      <point x="1065" y="1091" type="line"/>
      <point x="1065" y="1195" type="line" smooth="yes"/>
      <point x="1065" y="1488"/>
      <point x="947" y="1681"/>
      <point x="582" y="1681" type="curve" smooth="yes"/>
      <point x="204" y="1681"/>
      <point x="85" y="1458"/>
      <point x="85" y="1102" type="curve" smooth="yes"/>
      <point x="85" y="551" type="line" smooth="yes"/>
      <point x="85" y="206"/>
      <point x="198" y="-24"/>
    </contour>
  </outline>
</glyph>
<glyph name="H" format="1">
  <advance width="1186"/>
  <unicode hex="0048"/>
  <outline>
    <contour>
      <point x="106" y="0" type="line"/>
      <point x="470" y="0" type="line"/>
      <point x="470" y="727" type="line"/>
      <point x="716" y="727" type="line"/>
      <point x="716" y="0" type="line"/>
      <point x="1079" y="0" type="line"/>
      <point x="1079" y="1658" type="line"/>
      <point x="716" y="1658" type="line"/>
      <point x="716" y="987" type="line"/>
      <point x="470" y="987" type="line"/>
      <point x="470" y="1658" type="line"/>
      <point x="106" y="1658" type="line"/>
    </contour>
  </outline>
</glyph>
<glyph name="J" format="1">
  <advance width="680"/>
  <unicode hex="004A"/>
  <outline>
    <contour>
      <point x="9" y="-40" type="line"/>
      <point x="185" y="-40" type="line" smooth="yes"/>
      <point x="485" y="-40"/>
      <point x="568" y="97"/>
      <point x="573" y="369" type="curve"/>
      <point x="573" y="1658" type="line"/>
      <point x="210" y="1658" type="line"/>
      <point x="210" y="383" type="line" smooth="yes"/>
      <point x="210" y="240"/>
      <point x="160" y="211"/>
      <point x="9" y="214" type="curve"/>
    </contour>
  </outline>
</glyph>
<glyph name="L" format="1">
  <advance width="884"/>
  <unicode hex="004C"/>
  <outline>
    <contour>
      <point x="106" y="0" type="line"/>
      <point x="850" y="0" type="line"/>
      <point x="850" y="246" type="line"/>
      <point x="470" y="246" type="line"/>
      <point x="470" y="1658" type="line"/>
      <point x="106" y="1658" type="line"/>
    </contour>
  </outline>
</glyph>
<glyph name="M" format="1">
  <advance width="1400"/>
  <unicode hex="004D"/>
  <outline>
    <contour>
      <point x="97" y="0" type="line"/>
      <point x="363" y="0" type="line"/>
      <point x="387" y="1110" type="line"/>
      <point x="592" y="0" type="line"/>
      <point x="818" y="0" type="line"/>
      <point x="1013" y="1103" type="line"/>
      <point x="1040" y="0" type="line"/>
      <point x="1302" y="0" type="line"/>
      <point x="1275" y="1658" type="line"/>
      <point x="894" y="1658" type="line"/>
      <point x="700" y="703" type="line"/>
      <point x="519" y="1658" type="line"/>
      <point x="125" y="1658" type="line"/>
    </contour>
  </outline>
</glyph>
<glyph name="N" format="1">
  <advance width="1114"/>
  <unicode hex="004E"/>
  <outline>
    <contour>
      <point x="106" y="0" type="line"/>
      <point x="417" y="0" type="line"/>
      <point x="417" y="864" type="line"/>
      <point x="763" y="0" type="line"/>
      <point x="1007" y="0" type="line"/>
      <point x="1007" y="1658" type="line"/>
      <point x="706" y="1658" type="line"/>
      <point x="706" y="855" type="line"/>
      <point x="362" y="1658" type="line"/>
      <point x="106" y="1658" type="line"/>
    </contour>
  </outline>
</glyph>
<glyph name="O" format="1">
  <advance width="1168"/>
  <unicode hex="004F"/>
  <outline>
    <contour>
      <point x="583" y="234" type="curve" smooth="yes"/>
      <point x="466" y="234"/>
      <point x="457" y="335"/>
      <point x="457" y="435" type="curve" smooth="yes"/>
      <point x="457" y="1227" type="line" smooth="yes"/>
      <point x="457" y="1326"/>
      <point x="466" y="1424"/>
      <point x="583" y="1424" type="curve" smooth="yes"/>
      <point x="699" y="1424"/>
      <point x="711" y="1326"/>
      <point x="711" y="1227" type="curve" smooth="yes"/>
      <point x="711" y="435" type="line" smooth="yes"/>
      <point x="711" y="335"/>
      <point x="699" y="234"/>
    </contour>
    <contour>
      <point x="583" y="-23" type="curve" smooth="yes"/>
      <point x="955" y="-23"/>
      <point x="1083" y="181"/>
      <point x="1083" y="524" type="curve" smooth="yes"/>
      <point x="1083" y="1137" type="line" smooth="yes"/>
      <point x="1083" y="1479"/>
      <point x="955" y="1681"/>
      <point x="583" y="1681" type="curve" smooth="yes"/>
      <point x="210" y="1681"/>
      <point x="85" y="1481"/>
      <point x="85" y="1137" type="curve" smooth="yes"/>
      <point x="85" y="524" type="line" smooth="yes"/>
      <point x="85" y="180"/>
      <point x="210" y="-23"/>
    </contour>
  </outline>
</glyph>
<glyph name="Q" format="1">
  <advance width="1164"/>
  <unicode hex="0051"/>
  <outline>
    <contour>
      <point x="955" y="-327" type="curve"/>
      <point x="1030" y="-108" type="line"/>
      <point x="975" y="-79"/>
      <point x="916" y="-21"/>
      <point x="864" y="35" type="curve"/>
      <point x="1023" y="118"/>
      <point x="1083" y="289"/>
      <point x="1083" y="524" type="curve" smooth="yes"/>
      <point x="1083" y="1137" type="line" smooth="yes"/>
      <point x="1083" y="1479"/>
      <point x="955" y="1681"/>
      <point x="583" y="1681" type="curve" smooth="yes"/>
      <point x="210" y="1681"/>
      <point x="85" y="1481"/>
      <point x="85" y="1137" type="curve" smooth="yes"/>
      <point x="85" y="524" type="line" smooth="yes"/>
      <point x="85" y="180"/>
      <point x="210" y="-23"/>
      <point x="583" y="-23" type="curve" smooth="yes"/>
      <point x="594" y="-23"/>
      <point x="605" y="-23"/>
      <point x="616" y="-23" type="curve"/>
      <point x="701" y="-153"/>
      <point x="861" y="-287"/>
    </contour>
    <contour>
      <point x="583" y="234" type="curve" smooth="yes"/>
      <point x="466" y="234"/>
      <point x="457" y="335"/>
      <point x="457" y="435" type="curve" smooth="yes"/>
      <point x="457" y="1227" type="line" smooth="yes"/>
      <point x="457" y="1326"/>
      <point x="466" y="1424"/>
      <point x="583" y="1424" type="curve" smooth="yes"/>
      <point x="699" y="1424"/>
      <point x="711" y="1326"/>
      <point x="711" y="1227" type="curve" smooth="yes"/>
      <point x="711" y="435" type="line" smooth="yes"/>
      <point x="711" y="335"/>
      <point x="699" y="234"/>
    </contour>
  </outline>
</glyph>
<glyph name="R" format="1">
  <advance width="1144"/>
  <unicode hex="0052"/>
  <outline>
    <contour>
      <point x="106" y="0" type="line"/>
      <point x="470" y="0" type="line"/>
      <point x="470" y="728" type="line"/>
      <point x="550" y="728" type="line"/>
      <point x="747" y="0" type="line"/>
      <point x="1128" y="0" type="line"/>
      <point x="883" y="811" type="line"/>
      <point x="1042" y="887"/>
      <point x="1089" y="1016"/>
      <point x="1089" y="1219" type="curve" smooth="yes"/>
      <point x="1089" y="1569"/>
      <point x="878" y="1658"/>
      <point x="544" y="1658" type="curve" smooth="yes"/>
      <point x="106" y="1658" type="line"/>
    </contour>
    <contour>
      <point x="470" y="948" type="line"/>
      <point x="470" y="1414" type="line"/>
      <point x="543" y="1414" type="line" smooth="yes"/>
      <point x="687" y="1414"/>
      <point x="737" y="1333"/>
      <point x="737" y="1187" type="curve" smooth="yes"/>
      <point x="737" y="1037"/>
      <point x="681" y="948"/>
      <point x="524" y="948" type="curve" smooth="yes"/>
    </contour>
  </outline>
</glyph>
<glyph name="S" format="1">
  <advance width="985"/>
  <unicode hex="0053"/>
  <outline>
    <contour>
      <point x="522" y="-23" type="curve" smooth="yes"/>
      <point x="785" y="-23"/>
      <point x="955" y="157"/>
      <point x="955" y="393" type="curve" smooth="yes"/>
      <point x="955" y="622"/>
      <point x="839" y="765"/>
      <point x="699" y="889" type="curve" smooth="yes"/>
      <point x="554" y="1016" type="line" smooth="yes"/>
      <point x="475" y="1087"/>
      <point x="397" y="1153"/>
      <point x="397" y="1284" type="curve" smooth="yes"/>
      <point x="397" y="1344"/>
      <point x="428" y="1413"/>
      <point x="498" y="1415" type="curve" smooth="yes"/>
      <point x="596" y="1419"/>
      <point x="606" y="1316"/>
      <point x="609" y="1170" type="curve"/>
      <point x="923" y="1212" type="line"/>
      <point x="915" y="1409"/>
      <point x="869" y="1682"/>
      <point x="516" y="1681" type="curve" smooth="yes"/>
      <point x="232" y="1680"/>
      <point x="47" y="1527"/>
      <point x="47" y="1248" type="curve" smooth="yes"/>
      <point x="47" y="1035"/>
      <point x="144" y="924"/>
      <point x="268" y="817" type="curve" smooth="yes"/>
      <point x="418" y="688" type="line" smooth="yes"/>
      <point x="529" y="591"/>
      <point x="599" y="514"/>
      <point x="599" y="374" type="curve" smooth="yes"/>
      <point x="599" y="316"/>
      <point x="580" y="252"/>
      <point x="503" y="252" type="curve" smooth="yes"/>
      <point x="409" y="252"/>
      <point x="360" y="340"/>
      <point x="358" y="551" type="curve"/>
      <point x="46" y="502" type="line"/>
      <point x="58" y="135"/>
      <point x="208" y="-23"/>
    </contour>
  </outline>
</glyph>
<glyph name="T" format="1">
  <advance width="869"/>
  <unicode hex="0054"/>
  <outline>
    <contour>
      <point x="253" y="0" type="line"/>
      <point x="617" y="0" type="line"/>
      <point x="617" y="1389" type="line"/>
      <point x="858" y="1389" type="line"/>
      <point x="858" y="1658" type="line"/>
      <point x="11" y="1658" type="line"/>
      <point x="11" y="1389" type="line"/>
      <point x="253" y="1389" type="line"/>
    </contour>
  </outline>
</glyph>
<glyph name="U" format="1">
  <advance width="1160"/>
  <unicode hex="0055"/>
  <outline>
    <contour>
      <point x="580" y="-23" type="curve" smooth="yes"/>
      <point x="961" y="-23"/>
      <point x="1069" y="171"/>
      <point x="1069" y="523" type="curve" smooth="yes"/>
      <point x="1069" y="1658" type="line"/>
      <point x="710" y="1658" type="line"/>
      <point x="710" y="471" type="line" smooth="yes"/>
      <point x="710" y="359"/>
      <point x="700" y="240"/>
      <point x="580" y="240" type="curve" smooth="yes"/>
      <point x="460" y="240"/>
      <point x="450" y="359"/>
      <point x="450" y="471" type="curve" smooth="yes"/>
      <point x="450" y="1658" type="line"/>
      <point x="91" y="1658" type="line"/>
      <point x="91" y="523" type="line" smooth="yes"/>
      <point x="91" y="171"/>
      <point x="199" y="-23"/>
    </contour>
  </outline>
</glyph>
<glyph name="V" format="1">
  <advance width="1011"/>
  <unicode hex="0056"/>
  <outline>
    <contour>
      <point x="320" y="0" type="line"/>
      <point x="706" y="0" type="line"/>
      <point x="996" y="1658" type="line"/>
      <point x="665" y="1658" type="line"/>
      <point x="512" y="555" type="line"/>
      <point x="355" y="1658" type="line"/>
      <point x="15" y="1658" type="line"/>
    </contour>
  </outline>
</glyph>
<glyph name="W" format="1">
  <advance width="1390"/>
  <unicode hex="0057"/>
  <outline>
    <contour>
      <point x="234" y="0" type="line"/>
      <point x="563" y="0" type="line"/>
      <point x="694" y="1041" type="line"/>
      <point x="828" y="0" type="line"/>
      <point x="1155" y="0" type="line"/>
      <point x="1356" y="1658" type="line"/>
      <point x="1050" y="1658" type="line"/>
      <point x="949" y="667" type="line"/>
      <point x="824" y="1658" type="line"/>
      <point x="564" y="1658" type="line"/>
      <point x="444" y="663" type="line"/>
      <point x="344" y="1658" type="line"/>
      <point x="34" y="1658" type="line"/>
    </contour>
  </outline>
</glyph>
<glyph name="X" format="1">
  <advance width="1012"/>
  <unicode hex="0058"/>
  <outline>
    <contour>
      <point x="-1" y="0" type="line"/>
      <point x="302" y="0" type="line"/>
      <point x="482" y="498" type="line"/>
      <point x="684" y="0" type="line"/>
      <point x="1024" y="0" type="line"/>
      <point x="702" y="800" type="line"/>
      <point x="988" y="1658" type="line"/>
      <point x="683" y="1658" type="line"/>
      <point x="540" y="1206" type="line"/>
      <point x="357" y="1658" type="line"/>
      <point x="13" y="1658" type="line"/>
      <point x="323" y="893" type="line"/>
    </contour>
  </outline>
</glyph>
<glyph name="Y" format="1">
  <advance width="988"/>
  <unicode hex="0059"/>
  <unicode hex="04AE"/>
  <outline>
    <contour>
      <point x="320" y="0" type="line"/>
      <point x="668" y="0" type="line"/>
      <point x="668" y="675" type="line"/>
      <point x="981" y="1658" type="line"/>
      <point x="650" y="1658" type="line"/>
      <point x="506" y="1126" type="line"/>
      <point x="345" y="1658" type="line"/>
      <point x="3" y="1658" type="line"/>
      <point x="320" y="675" type="line"/>
    </contour>
  </outline>
</glyph>
<glyph name="Z" format="1">
  <advance width="863"/>
  <unicode hex="005A"/>
  <outline>
    <contour>
      <point x="55" y="0" type="line"/>
      <point x="822" y="0" type="line"/>
      <point x="822" y="246" type="line"/>
      <point x="404" y="246" type="line"/>
      <point x="819" y="1458" type="line"/>
      <point x="819" y="1658" type="line"/>
      <point x="71" y="1658" type="line"/>
      <point x="71" y="1411" type="line"/>
      <point x="459" y="1411" type="line"/>
      <point x="55" y="221" type="line"/>
    </contour>
  </outline>
</glyph>
<glyph name="bracketleft" format="1">
  <advance width="686"/>
  <unicode hex="005B"/>
  <outline>
    <contour>
      <point x="106" y="-382" type="line"/>
      <point x="622" y="-382" type="line"/>
      <point x="622" y="-252" type="line"/>
      <point x="368" y="-252" type="line"/>
      <point x="369" y="1529" type="line"/>
      <point x="623" y="1529" type="line"/>
      <point x="623" y="1658" type="line"/>
      <point x="108" y="1658" type="line"/>
    </contour>
  </outline>
</glyph>
<glyph name="bracketright" format="1">
  <advance width="665"/>
  <unicode hex="005D"/>
  <outline>
    <contour>
      <point x="44" y="-382" type="line"/>
      <point x="559" y="-382" type="line"/>
      <point x="557" y="1658" type="line"/>
      <point x="42" y="1658" type="line"/>
      <point x="42" y="1528" type="line"/>
      <point x="296" y="1528" type="line"/>
      <point x="297" y="-252" type="line"/>
      <point x="44" y="-252" type="line"/>
    </contour>
  </outline>
</glyph>
<glyph name="asciicircum" format="1">
  <advance width="977"/>
  <unicode hex="005E"/>
  <outline>
    <contour>
      <point x="62" y="971" type="line"/>
      <point x="344" y="971" type="line"/>
      <point x="487" y="1376" type="line"/>
      <point x="632" y="971" type="line"/>
      <point x="915" y="971" type="line"/>
      <point x="621" y="1658" type="line"/>
      <point x="355" y="1658" type="line"/>
    </contour>
  </outline>
</glyph>
<glyph name="underscore" format="1">
  <advance width="711"/>
  <unicode hex="005F"/>
  <outline>
    <contour>
      <point x="-20" y="-195" type="line"/>
      <point x="732" y="-195" type="line"/>
      <point x="732" y="29" type="line"/>
      <point x="-20" y="29" type="line"/>
    </contour>
  </outline>
</glyph>
<glyph name="grave" format="1">
  <advance width="632"/>
  <unicode hex="0060"/>
  <outline>
    <contour>
      <point x="344" y="1261" type="line"/>
      <point x="549" y="1261" type="line"/>
      <point x="425" y="1658" type="line"/>
      <point x="85" y="1658" type="line"/>
    </contour>
  </outline>
</glyph>
<glyph name="a" format="1">
  <advance width="952"/>
  <unicode hex="0061"/>
  <outline>
    <contour>
      <point x="335" y="-21" type="curve"/>
      <point x="461" y="-21"/>
      <point x="534" y="70"/>
      <point x="563" y="168" type="curve"/>
      <point x="566" y="143"/>
      <point x="591" y="0"/>
      <point x="591" y="0" type="curve"/>
      <point x="886" y="0" type="line"/>
      <point x="879" y="61"/>
      <point x="865" y="149"/>
      <point x="865" y="297" type="curve" smooth="yes"/>
      <point x="865" y="848" type="line" smooth="yes"/>
      <point x="865" y="1057"/>
      <point x="748" y="1204"/>
      <point x="507" y="1204" type="curve" smooth="yes"/>
      <point x="250" y="1204"/>
      <point x="107" y="1089"/>
      <point x="87" y="827" type="curve" smooth="yes"/>
      <point x="87" y="823"/>
      <point x="85" y="793"/>
      <point x="85" y="788" type="curve"/>
      <point x="395" y="776" type="line"/>
      <point x="403" y="862" type="line"/>
      <point x="405" y="914"/>
      <point x="419" y="958"/>
      <point x="476" y="958" type="curve" smooth="yes"/>
      <point x="534" y="958"/>
      <point x="547" y="913"/>
      <point x="547" y="851" type="curve" smooth="yes"/>
      <point x="547" y="735" type="line"/>
      <point x="363" y="660"/>
      <point x="61" y="586"/>
      <point x="61" y="268" type="curve" smooth="yes"/>
      <point x="61" y="130"/>
      <point x="158" y="-18"/>
    </contour>
    <contour>
      <point x="455" y="209" type="curve" smooth="yes"/>
      <point x="402" y="209"/>
      <point x="363" y="257"/>
      <point x="363" y="335" type="curve" smooth="yes"/>
      <point x="363" y="427"/>
      <point x="441" y="536"/>
      <point x="547" y="589" type="curve"/>
      <point x="547" y="266" type="line"/>
      <point x="527" y="238"/>
      <point x="490" y="209"/>
    </contour>
  </outline>
</glyph>
<glyph name="b" format="1">
  <advance width="1005"/>
  <unicode hex="0062"/>
  <outline>
    <contour>
      <point x="672" y="-21" type="curve" smooth="yes"/>
      <point x="844" y="-21"/>
      <point x="933" y="133"/>
      <point x="933" y="352" type="curve" smooth="yes"/>
      <point x="933" y="851" type="line" smooth="yes"/>
      <point x="933" y="1034"/>
      <point x="863" y="1199"/>
      <point x="680" y="1204" type="curve" smooth="yes"/>
      <point x="595" y="1207"/>
      <point x="506" y="1169"/>
      <point x="426" y="1097" type="curve"/>
      <point x="426" y="1658" type="line"/>
      <point x="94" y="1658" type="line"/>
      <point x="94" y="0" type="line"/>
      <point x="426" y="0" type="line"/>
      <point x="426" y="89" type="line"/>
      <point x="502" y="22"/>
      <point x="587" y="-21"/>
    </contour>
    <contour>
      <point x="517" y="196" type="curve" smooth="yes"/>
      <point x="485" y="196"/>
      <point x="454" y="208"/>
      <point x="426" y="226" type="curve"/>
      <point x="426" y="962" type="line"/>
      <point x="456" y="984"/>
      <point x="486" y="1000"/>
      <point x="514" y="1001" type="curve" smooth="yes"/>
      <point x="578" y="1006"/>
      <point x="601" y="943"/>
      <point x="601" y="876" type="curve" smooth="yes"/>
      <point x="601" y="335" type="line" smooth="yes"/>
      <point x="601" y="260"/>
      <point x="581" y="195"/>
    </contour>
  </outline>
</glyph>
<glyph name="d" format="1">
  <advance width="1002"/>
  <unicode hex="0064"/>
  <outline>
    <contour>
      <point x="353" y="-21" type="curve" smooth="yes"/>
      <point x="432" y="-20"/>
      <point x="508" y="20"/>
      <point x="579" y="90" type="curve"/>
      <point x="579" y="0" type="line"/>
      <point x="910" y="0" type="line"/>
      <point x="910" y="1658" type="line"/>
      <point x="579" y="1658" type="line"/>
      <point x="579" y="1111" type="line"/>
      <point x="513" y="1168"/>
      <point x="438" y="1204"/>
      <point x="353" y="1204" type="curve" smooth="yes"/>
      <point x="166" y="1204"/>
      <point x="77" y="1044"/>
      <point x="77" y="825" type="curve" smooth="yes"/>
      <point x="77" y="351" type="line" smooth="yes"/>
      <point x="77" y="102"/>
      <point x="176" y="-21"/>
    </contour>
    <contour>
      <point x="495" y="194" type="curve" smooth="yes"/>
      <point x="431" y="194"/>
      <point x="409" y="256"/>
      <point x="409" y="329" type="curve" smooth="yes"/>
      <point x="409" y="864" type="line" smooth="yes"/>
      <point x="409" y="936"/>
      <point x="433" y="994"/>
      <point x="496" y="994" type="curve" smooth="yes"/>
      <point x="523" y="994"/>
      <point x="552" y="984"/>
      <point x="579" y="969" type="curve"/>
      <point x="579" y="222" type="line"/>
      <point x="547" y="204"/>
      <point x="517" y="194"/>
    </contour>
  </outline>
</glyph>
<glyph name="f" format="1">
  <advance width="630"/>
  <unicode hex="0066"/>
  <outline>
    <contour>
      <point x="137" y="0" type="line"/>
      <point x="468" y="0" type="line"/>
      <point x="468" y="950" type="line"/>
      <point x="619" y="950" type="line"/>
      <point x="619" y="1184" type="line"/>
      <point x="468" y="1184" type="line"/>
      <point x="468" y="1277" type="line" smooth="yes"/>
      <point x="468" y="1341"/>
      <point x="496" y="1370"/>
      <point x="548" y="1370" type="curve" smooth="yes"/>
      <point x="572" y="1370"/>
      <point x="600" y="1363"/>
      <point x="619" y="1361" type="curve"/>
      <point x="619" y="1607" type="line"/>
      <point x="558" y="1614"/>
      <point x="511" y="1617"/>
      <point x="460" y="1617" type="curve" smooth="yes"/>
      <point x="174" y="1617"/>
      <point x="137" y="1478"/>
      <point x="137" y="1266" type="curve" smooth="yes"/>
      <point x="137" y="1184" type="line"/>
      <point x="23" y="1184" type="line"/>
      <point x="23" y="950" type="line"/>
      <point x="137" y="950" type="line"/>
    </contour>
  </outline>
</glyph>
<glyph name="g" format="1">
  <advance width="1005"/>
  <unicode hex="0067"/>
  <outline>
    <contour>
      <point x="542" y="-355" type="curve" smooth="yes"/>
      <point x="864" y="-355"/>
      <point x="964" y="-229"/>
      <point x="964" y="-45" type="curve" smooth="yes"/>
      <point x="964" y="119"/>
      <point x="888" y="209"/>
      <point x="655" y="239" type="curve" smooth="yes"/>
      <point x="572" y="252"/>
      <point x="449" y="264"/>
      <point x="401" y="273" type="curve" smooth="yes"/>
      <point x="331" y="283"/>
      <point x="294" y="296"/>
      <point x="291" y="319" type="curve" smooth="yes"/>
      <point x="287" y="343"/>
      <point x="304" y="372"/>
      <point x="327" y="400" type="curve"/>
      <point x="368" y="382"/>
      <point x="450" y="366"/>
      <point x="514" y="366" type="curve" smooth="yes"/>
      <point x="782" y="366"/>
      <point x="900" y="524"/>
      <point x="900" y="770" type="curve" smooth="yes"/>
      <point x="900" y="881"/>
      <point x="869" y="961"/>
      <point x="842" y="1002" type="curve"/>
      <point x="894" y="1033"/>
      <point x="1003" y="1080"/>
      <point x="1040" y="1091" type="curve"/>
      <point x="964" y="1254" type="line"/>
      <point x="920" y="1232" type="line"/>
      <point x="857" y="1199"/>
      <point x="797" y="1143"/>
      <point x="760" y="1101" type="curve"/>
      <point x="706" y="1170"/>
      <point x="607" y="1204"/>
      <point x="491" y="1204" type="curve" smooth="yes"/>
      <point x="238" y="1204"/>
      <point x="81" y="1071"/>
      <point x="81" y="768" type="curve" smooth="yes"/>
      <point x="81" y="613"/>
      <point x="133" y="529"/>
      <point x="210" y="472" type="curve"/>
      <point x="121" y="401"/>
      <point x="49" y="336"/>
      <point x="66" y="237" type="curve" smooth="yes"/>
      <point x="75" y="184"/>
      <point x="112" y="142"/>
      <point x="213" y="104" type="curve"/>
      <point x="136" y="50"/>
      <point x="45" y="-30"/>
      <point x="45" y="-131" type="curve" smooth="yes"/>
      <point x="45" y="-340"/>
      <point x="353" y="-355"/>
    </contour>
    <contour>
      <point x="542" y="-147" type="curve" smooth="yes"/>
      <point x="395" y="-147"/>
      <point x="352" y="-118"/>
      <point x="352" y="-60" type="curve" smooth="yes"/>
      <point x="352" y="-17"/>
      <point x="381" y="29"/>
      <point x="401" y="57" type="curve"/>
      <point x="580" y="36" type="line" smooth="yes"/>
      <point x="677" y="24"/>
      <point x="712" y="-1"/>
      <point x="704" y="-72" type="curve" smooth="yes"/>
      <point x="699" y="-126"/>
      <point x="650" y="-147"/>
    </contour>
    <contour>
      <point x="497" y="565" type="curve" smooth="yes"/>
      <point x="417" y="565"/>
      <point x="407" y="643"/>
      <point x="407" y="784" type="curve" smooth="yes"/>
      <point x="407" y="929"/>
      <point x="410" y="1005"/>
      <point x="497" y="1005" type="curve" smooth="yes"/>
      <point x="584" y="1005"/>
      <point x="590" y="940"/>
      <point x="590" y="784" type="curve" smooth="yes"/>
      <point x="590" y="630"/>
      <point x="579" y="565"/>
    </contour>
  </outline>
</glyph>
<glyph name="i" format="1">
  <advance width="525"/>
  <unicode hex="0069"/>
  <outline>
    <contour>
      <point x="98" y="0" type="line"/>
      <point x="429" y="0" type="line"/>
      <point x="429" y="1184" type="line"/>
      <point x="98" y="1184" type="line"/>
    </contour>
    <contour>
      <point x="97" y="1382" type="line"/>
      <point x="430" y="1382" type="line"/>
      <point x="430" y="1618" type="line"/>
      <point x="97" y="1618" type="line"/>
    </contour>
  </outline>
</glyph>
<glyph name="j" format="1">
  <advance width="549"/>
  <unicode hex="006A"/>
  <outline>
    <contour>
      <point x="-24" y="-338" type="line"/>
      <point x="30" y="-353"/>
      <point x="90" y="-364"/>
      <point x="152" y="-364" type="curve" smooth="yes"/>
      <point x="353" y="-364"/>
      <point x="458" y="-234"/>
      <point x="458" y="-47" type="curve" smooth="yes"/>
      <point x="458" y="1184" type="line"/>
      <point x="127" y="1184" type="line"/>
      <point x="127" y="-8" type="line" smooth="yes"/>
      <point x="127" y="-79"/>
      <point x="91" y="-108"/>
      <point x="35" y="-108" type="curve" smooth="yes"/>
      <point x="17" y="-108"/>
      <point x="-5" y="-104"/>
      <point x="-24" y="-100" type="curve"/>
    </contour>
    <contour>
      <point x="125" y="1382" type="line"/>
      <point x="459" y="1382" type="line"/>
      <point x="459" y="1618" type="line"/>
      <point x="125" y="1618" type="line"/>
    </contour>
  </outline>
</glyph>
<glyph name="k" format="1">
  <advance width="1090"/>
  <unicode hex="006B"/>
  <outline>
    <contour>
      <point x="94" y="1" type="line"/>
      <point x="426" y="1" type="line"/>
      <point x="426" y="456" type="line"/>
      <point x="513" y="568" type="line"/>
      <point x="713" y="0" type="line"/>
      <point x="1081" y="0" type="line"/>
      <point x="779" y="691" type="line"/>
      <point x="1084" y="1184" type="line"/>
      <point x="695" y="1184" type="line"/>
      <point x="426" y="748" type="line"/>
      <point x="426" y="1659" type="line"/>
      <point x="94" y="1659" type="line"/>
    </contour>
  </outline>
</glyph>
<glyph name="m" format="1">
  <advance width="1501"/>
  <unicode hex="006D"/>
  <outline>
    <contour>
      <point x="90" y="0" type="line"/>
      <point x="416" y="0" type="line"/>
      <point x="416" y="933" type="line"/>
      <point x="455" y="962"/>
      <point x="493" y="978"/>
      <point x="525" y="979" type="curve" smooth="yes"/>
      <point x="572" y="981"/>
      <point x="594" y="953"/>
      <point x="594" y="887" type="curve" smooth="yes"/>
      <point x="594" y="0" type="line"/>
      <point x="919" y="0" type="line"/>
      <point x="919" y="920" type="line" smooth="yes"/>
      <point x="919" y="925"/>
      <point x="919" y="930"/>
      <point x="919" y="935" type="curve"/>
      <point x="957" y="963"/>
      <point x="993" y="978"/>
      <point x="1024" y="979" type="curve" smooth="yes"/>
      <point x="1072" y="981"/>
      <point x="1093" y="953"/>
      <point x="1093" y="887" type="curve" smooth="yes"/>
      <point x="1093" y="0" type="line"/>
      <point x="1419" y="0" type="line"/>
      <point x="1419" y="920" type="line" smooth="yes"/>
      <point x="1419" y="1101"/>
      <point x="1328" y="1206"/>
      <point x="1191" y="1206" type="curve" smooth="yes"/>
      <point x="1084" y="1206"/>
      <point x="987" y="1170"/>
      <point x="894" y="1065" type="curve"/>
      <point x="858" y="1158"/>
      <point x="785" y="1206"/>
      <point x="692" y="1206" type="curve" smooth="yes"/>
      <point x="593" y="1206"/>
      <point x="502" y="1174"/>
      <point x="416" y="1088" type="curve"/>
      <point x="416" y="1184" type="line"/>
      <point x="90" y="1184" type="line"/>
    </contour>
  </outline>
</glyph>
<glyph name="n" format="1">
  <advance width="1005"/>
  <unicode hex="006E"/>
  <outline>
    <contour>
      <point x="86" y="0" type="line"/>
      <point x="417" y="0" type="line"/>
      <point x="417" y="926" type="line"/>
      <point x="456" y="952"/>
      <point x="493" y="967"/>
      <point x="522" y="968" type="curve" smooth="yes"/>
      <point x="576" y="969"/>
      <point x="589" y="936"/>
      <point x="589" y="880" type="curve" smooth="yes"/>
      <point x="589" y="0" type="line"/>
      <point x="920" y="0" type="line"/>
      <point x="920" y="930" type="line" smooth="yes"/>
      <point x="920" y="1083"/>
      <point x="849" y="1204"/>
      <point x="704" y="1204" type="curve" smooth="yes"/>
      <point x="598" y="1204"/>
      <point x="505" y="1166"/>
      <point x="417" y="1080" type="curve"/>
      <point x="417" y="1184" type="line"/>
      <point x="86" y="1184" type="line"/>
    </contour>
  </outline>
</glyph>
<glyph name="p" format="1">
  <advance width="1010"/>
  <unicode hex="0070"/>
  <outline>
    <contour>
      <point x="93" y="-390" type="line"/>
      <point x="424" y="-390" type="line"/>
      <point x="424" y="89" type="line"/>
      <point x="500" y="22"/>
      <point x="585" y="-21"/>
      <point x="670" y="-21" type="curve" smooth="yes"/>
      <point x="842" y="-21"/>
      <point x="931" y="133"/>
      <point x="931" y="352" type="curve" smooth="yes"/>
      <point x="931" y="851" type="line" smooth="yes"/>
      <point x="931" y="1034"/>
      <point x="861" y="1199"/>
      <point x="677" y="1204" type="curve" smooth="yes"/>
      <point x="592" y="1207"/>
      <point x="504" y="1169"/>
      <point x="424" y="1097" type="curve"/>
      <point x="424" y="1184" type="line"/>
      <point x="93" y="1184" type="line"/>
    </contour>
    <contour>
      <point x="515" y="196" type="curve" smooth="yes"/>
      <point x="483" y="196"/>
      <point x="452" y="208"/>
      <point x="424" y="226" type="curve"/>
      <point x="424" y="962" type="line"/>
      <point x="454" y="984"/>
      <point x="484" y="1000"/>
      <point x="512" y="1001" type="curve" smooth="yes"/>
      <point x="576" y="1006"/>
      <point x="599" y="943"/>
      <point x="599" y="876" type="curve" smooth="yes"/>
      <point x="599" y="335" type="line" smooth="yes"/>
      <point x="599" y="260"/>
      <point x="579" y="195"/>
    </contour>
  </outline>
</glyph>
<glyph name="q" format="1">
  <advance width="1011"/>
  <unicode hex="0071"/>
  <outline>
    <contour>
      <point x="587" y="-390" type="line"/>
      <point x="918" y="-390" type="line"/>
      <point x="918" y="1184" type="line"/>
      <point x="587" y="1184" type="line"/>
      <point x="587" y="1105" type="line"/>
      <point x="520" y="1166"/>
      <point x="443" y="1204"/>
      <point x="355" y="1204" type="curve" smooth="yes"/>
      <point x="168" y="1204"/>
      <point x="79" y="1044"/>
      <point x="79" y="825" type="curve" smooth="yes"/>
      <point x="79" y="351" type="line" smooth="yes"/>
      <point x="79" y="102"/>
      <point x="178" y="-21"/>
      <point x="355" y="-21" type="curve" smooth="yes"/>
      <point x="437" y="-20"/>
      <point x="515" y="22"/>
      <point x="587" y="96" type="curve"/>
    </contour>
    <contour>
      <point x="497" y="194" type="curve" smooth="yes"/>
      <point x="433" y="194"/>
      <point x="411" y="256"/>
      <point x="411" y="329" type="curve" smooth="yes"/>
      <point x="411" y="864" type="line" smooth="yes"/>
      <point x="411" y="936"/>
      <point x="435" y="994"/>
      <point x="498" y="994" type="curve" smooth="yes"/>
      <point x="527" y="994"/>
      <point x="558" y="983"/>
      <point x="587" y="966" type="curve"/>
      <point x="587" y="226" type="line"/>
      <point x="553" y="206"/>
      <point x="521" y="194"/>
    </contour>
  </outline>
</glyph>
<glyph name="r" format="1">
  <advance width="732"/>
  <unicode hex="0072"/>
  <outline>
    <contour>
      <point x="94" y="0" type="line"/>
      <point x="426" y="0" type="line"/>
      <point x="426" y="762" type="line"/>
      <point x="489" y="854"/>
      <point x="559" y="899"/>
      <point x="653" y="904" type="curve" smooth="yes"/>
      <point x="673" y="904"/>
      <point x="693" y="901"/>
      <point x="710" y="897" type="curve"/>
      <point x="710" y="1191" type="line"/>
      <point x="692" y="1196"/>
      <point x="678" y="1199"/>
      <point x="663" y="1199" type="curve" smooth="yes"/>
      <point x="575" y="1199"/>
      <point x="497" y="1126"/>
      <point x="426" y="988" type="curve"/>
      <point x="426" y="1184" type="line"/>
      <point x="94" y="1184" type="line"/>
    </contour>
  </outline>
</glyph>
<glyph name="s" format="1">
  <advance width="828"/>
  <unicode hex="0073"/>
  <outline>
    <contour>
      <point x="432" y="-21" type="curve" smooth="yes"/>
      <point x="625" y="-21"/>
      <point x="807" y="93"/>
      <point x="807" y="301" type="curve" smooth="yes"/>
      <point x="807" y="452"/>
      <point x="698" y="548"/>
      <point x="597" y="635" type="curve"/>
      <point x="503" y="718" type="line" smooth="yes"/>
      <point x="426" y="785"/>
      <point x="339" y="850"/>
      <point x="346" y="903" type="curve" smooth="yes"/>
      <point x="347" y="930"/>
      <point x="366" y="971"/>
      <point x="420" y="968" type="curve" smooth="yes"/>
      <point x="490" y="964"/>
      <point x="528" y="878"/>
      <point x="550" y="800" type="curve"/>
      <point x="779" y="900" type="line"/>
      <point x="736" y="1077"/>
      <point x="599" y="1204"/>
      <point x="404" y="1204" type="curve" smooth="yes"/>
      <point x="209" y="1204"/>
      <point x="51" y="1072"/>
      <point x="49" y="878" type="curve"/>
      <point x="47" y="747"/>
      <point x="150" y="626"/>
      <point x="248" y="544" type="curve" smooth="yes"/>
      <point x="343" y="462" type="line" smooth="yes"/>
      <point x="415" y="401"/>
      <point x="497" y="334"/>
      <point x="499" y="286" type="curve" smooth="yes"/>
      <point x="501" y="240"/>
      <point x="471" y="206"/>
      <point x="429" y="206" type="curve" smooth="yes"/>
      <point x="350" y="206"/>
      <point x="307" y="300"/>
      <point x="280" y="394" type="curve"/>
      <point x="34" y="315" type="line"/>
      <point x="88" y="99"/>
      <point x="235" y="-21"/>
    </contour>
  </outline>
</glyph>
<glyph name="u" format="1">
  <advance width="1004"/>
  <unicode hex="0075"/>
  <outline>
    <contour>
      <point x="302" y="-20" type="curve" smooth="yes"/>
      <point x="404" y="-20"/>
      <point x="495" y="16"/>
      <point x="580" y="95" type="curve"/>
      <point x="580" y="0" type="line"/>
      <point x="911" y="0" type="line"/>
      <point x="911" y="1184" type="line"/>
      <point x="580" y="1184" type="line"/>
      <point x="580" y="253" type="line"/>
      <point x="544" y="230"/>
      <point x="510" y="217"/>
      <point x="483" y="216" type="curve" smooth="yes"/>
      <point x="430" y="215"/>
      <point x="417" y="248"/>
      <point x="417" y="304" type="curve" smooth="yes"/>
      <point x="417" y="1184" type="line"/>
      <point x="86" y="1184" type="line"/>
      <point x="86" y="254" type="line" smooth="yes"/>
      <point x="86" y="101"/>
      <point x="157" y="-20"/>
    </contour>
  </outline>
</glyph>
<glyph name="v" format="1">
  <advance width="861"/>
  <unicode hex="0076"/>
  <outline>
    <contour>
      <point x="261" y="0" type="line"/>
      <point x="609" y="0" type="line"/>
      <point x="839" y="1184" type="line"/>
      <point x="523" y="1184" type="line"/>
      <point x="437" y="421" type="line"/>
      <point x="339" y="1184" type="line"/>
      <point x="22" y="1184" type="line"/>
    </contour>
  </outline>
</glyph>
<glyph name="w" format="1">
  <advance width="1218"/>
  <unicode hex="0077"/>
  <outline>
    <contour>
      <point x="211" y="0" type="line"/>
      <point x="506" y="0" type="line"/>
      <point x="611" y="682" type="line"/>
      <point x="706" y="0" type="line"/>
      <point x="1005" y="0" type="line"/>
      <point x="1179" y="1184" type="line"/>
      <point x="917" y="1184" type="line"/>
      <point x="817" y="469" type="line"/>
      <point x="745" y="1184" type="line"/>
      <point x="491" y="1184" type="line"/>
      <point x="405" y="483" type="line"/>
      <point x="319" y="1184" type="line"/>
      <point x="39" y="1184" type="line"/>
    </contour>
  </outline>
</glyph>
<glyph name="y" format="1">
  <advance width="909"/>
  <unicode hex="0079"/>
  <outline>
    <contour>
      <point x="135" y="-342" type="line"/>
      <point x="181" y="-342" type="line"/>
      <point x="383" y="-344"/>
      <point x="564" y="-284"/>
      <point x="612" y="-64" type="curve" smooth="yes"/>
      <point x="892" y="1184" type="line"/>
      <point x="578" y="1184" type="line"/>
      <point x="466" y="497" type="line"/>
      <point x="319" y="1184" type="line"/>
      <point x="5" y="1184" type="line"/>
      <point x="29" y="1084"/>
      <point x="257" y="288"/>
      <point x="281" y="189" type="curve" smooth="yes"/>
      <point x="292" y="146"/>
      <point x="320" y="41"/>
      <point x="324" y="3" type="curve" smooth="yes"/>
      <point x="332" y="-98"/>
      <point x="269" y="-112"/>
      <point x="135" y="-112" type="curve"/>
    </contour>
  </outline>
</glyph>
<glyph name="z" format="1">
  <advance width="752"/>
  <unicode hex="007A"/>
  <outline>
    <contour>
      <point x="56" y="0" type="line"/>
      <point x="706" y="0" type="line"/>
      <point x="706" y="243" type="line"/>
      <point x="401" y="243" type="line"/>
      <point x="710" y="984" type="line"/>
      <point x="710" y="1184" type="line"/>
      <point x="85" y="1184" type="line"/>
      <point x="85" y="942" type="line"/>
      <point x="367" y="942" type="line"/>
      <point x="56" y="214" type="line"/>
    </contour>
  </outline>
</glyph>
<glyph name="braceleft" format="1">
  <advance width="763"/>
  <unicode hex="007B"/>
  <outline>
    <contour>
      <point x="700" y="-399" type="curve"/>
      <point x="700" y="-176" type="line"/>
      <point x="557" y="-176"/>
      <point x="538" y="-149"/>
      <point x="538" y="56" type="curve" smooth="yes"/>
      <point x="538" y="250" type="line" smooth="yes"/>
      <point x="538" y="481"/>
      <point x="500" y="615"/>
      <point x="361" y="647" type="curve"/>
      <point x="500" y="680"/>
      <point x="538" y="814"/>
      <point x="538" y="1045" type="curve" smooth="yes"/>
      <point x="538" y="1239" type="line" smooth="yes"/>
      <point x="538" y="1443"/>
      <point x="557" y="1471"/>
      <point x="700" y="1471" type="curve"/>
      <point x="700" y="1694" type="line"/>
      <point x="269" y="1694"/>
      <point x="229" y="1583"/>
      <point x="229" y="1256" type="curve" smooth="yes"/>
      <point x="229" y="1084" type="line" smooth="yes"/>
      <point x="229" y="796"/>
      <point x="223" y="766"/>
      <point x="97" y="766" type="curve"/>
      <point x="97" y="529" type="line"/>
      <point x="223" y="529"/>
      <point x="229" y="499"/>
      <point x="229" y="211" type="curve" smooth="yes"/>
      <point x="229" y="39" type="line" smooth="yes"/>
      <point x="229" y="-288"/>
      <point x="269" y="-399"/>
    </contour>
  </outline>
</glyph>
<glyph name="bar" format="1">
  <advance width="537"/>
  <unicode hex="007C"/>
  <outline>
    <contour>
      <point x="132" y="-365" type="line"/>
      <point x="405" y="-365" type="line"/>
      <point x="406" y="1658" type="line"/>
      <point x="132" y="1658" type="line"/>
    </contour>
  </outline>
</glyph>
<glyph name="braceright" format="1">
  <advance width="777"/>
  <unicode hex="007D"/>
  <outline>
    <contour>
      <point x="78" y="-399" type="line"/>
      <point x="509" y="-399"/>
      <point x="549" y="-288"/>
      <point x="549" y="39" type="curve" smooth="yes"/>
      <point x="549" y="211" type="line" smooth="yes"/>
      <point x="549" y="499"/>
      <point x="555" y="529"/>
      <point x="681" y="529" type="curve"/>
      <point x="681" y="766" type="line"/>
      <point x="555" y="766"/>
      <point x="549" y="796"/>
      <point x="549" y="1084" type="curve" smooth="yes"/>
      <point x="549" y="1256" type="line" smooth="yes"/>
      <point x="549" y="1583"/>
      <point x="509" y="1694"/>
      <point x="78" y="1694" type="curve"/>
      <point x="78" y="1471" type="line"/>
      <point x="221" y="1471"/>
      <point x="240" y="1443"/>
      <point x="240" y="1239" type="curve" smooth="yes"/>
      <point x="240" y="1045" type="line" smooth="yes"/>
      <point x="240" y="814"/>
      <point x="278" y="680"/>
      <point x="417" y="647" type="curve"/>
      <point x="278" y="615"/>
      <point x="240" y="481"/>
      <point x="240" y="250" type="curve" smooth="yes"/>
      <point x="240" y="56" type="line" smooth="yes"/>
      <point x="240" y="-149"/>
      <point x="221" y="-176"/>
      <point x="78" y="-176" type="curve"/>
    </contour>
  </outline>
</glyph>
<glyph name="asciitilde" format="1">
  <advance width="987"/>
  <unicode hex="007E"/>
  <outline>
    <contour>
      <point x="670" y="683" type="curve" smooth="yes"/>
      <point x="765" y="683"/>
      <point x="873" y="795"/>
      <point x="918" y="895" type="curve"/>
      <point x="803" y="1014" type="line"/>
      <point x="756" y="963"/>
      <point x="700" y="917"/>
      <point x="663" y="917" type="curve" smooth="yes"/>
      <point x="587" y="917"/>
      <point x="441" y="1036"/>
      <point x="324" y="1036" type="curve" smooth="yes"/>
      <point x="236" y="1036"/>
      <point x="133" y="932"/>
      <point x="81" y="846" type="curve"/>
      <point x="186" y="707" type="line"/>
      <point x="232" y="769"/>
      <point x="296" y="804"/>
      <point x="327" y="804" type="curve" smooth="yes"/>
      <point x="406" y="804"/>
      <point x="554" y="683"/>
    </contour>
  </outline>
</glyph>
<glyph name="exclamdown" format="1">
  <advance width="483"/>
  <unicode hex="00A1"/>
  <outline>
    <contour>
      <point x="76" y="-319" type="line"/>
      <point x="405" y="-319" type="line"/>
      <point x="309" y="916" type="line"/>
      <point x="194" y="916" type="line"/>
    </contour>
    <contour>
      <point x="97" y="1026" type="line"/>
      <point x="410" y="1026" type="line"/>
      <point x="410" y="1335" type="line"/>
      <point x="97" y="1335" type="line"/>
    </contour>
  </outline>
</glyph>
<glyph name="cent" format="1">
  <advance width="928"/>
  <unicode hex="00A2"/>
  <outline>
    <contour>
      <point x="431" y="-261" type="line"/>
      <point x="516" y="-261" type="line"/>
      <point x="516" y="-20" type="line"/>
      <point x="749" y="-10"/>
      <point x="881" y="112"/>
      <point x="881" y="340" type="curve" smooth="yes"/>
      <point x="881" y="481" type="line"/>
      <point x="562" y="481" type="line"/>
      <point x="562" y="334" type="line" smooth="yes"/>
      <point x="562" y="248"/>
      <point x="538" y="216"/>
      <point x="486" y="216" type="curve" smooth="yes"/>
      <point x="437" y="216"/>
      <point x="409" y="244"/>
      <point x="409" y="354" type="curve" smooth="yes"/>
      <point x="409" y="828" type="line" smooth="yes"/>
      <point x="409" y="936"/>
      <point x="434" y="969"/>
      <point x="485" y="969" type="curve" smooth="yes"/>
      <point x="534" y="969"/>
      <point x="562" y="945"/>
      <point x="562" y="849" type="curve" smooth="yes"/>
      <point x="562" y="724" type="line"/>
      <point x="881" y="724" type="line"/>
      <point x="881" y="847" type="line" smooth="yes"/>
      <point x="881" y="1077"/>
      <point x="751" y="1194"/>
      <point x="516" y="1203" type="curve"/>
      <point x="516" y="1442" type="line"/>
      <point x="431" y="1442" type="line"/>
      <point x="431" y="1202" type="line"/>
      <point x="204" y="1183"/>
      <point x="77" y="1038"/>
      <point x="77" y="805" type="curve" smooth="yes"/>
      <point x="77" y="381" type="line" smooth="yes"/>
      <point x="77" y="147"/>
      <point x="204" y="1"/>
      <point x="431" y="-18" type="curve"/>
    </contour>
  </outline>
</glyph>
<glyph name="sterling" format="1">
  <advance width="996"/>
  <unicode hex="00A3"/>
  <outline>
    <contour>
      <point x="40" y="0" type="line"/>
      <point x="926" y="0" type="line"/>
      <point x="926" y="279" type="line"/>
      <point x="482" y="279" type="line"/>
      <point x="482" y="658" type="line"/>
      <point x="723" y="658" type="line"/>
      <point x="723" y="914" type="line"/>
      <point x="482" y="914" type="line"/>
      <point x="482" y="1139" type="line" smooth="yes"/>
      <point x="483" y="1299"/>
      <point x="486" y="1404"/>
      <point x="563" y="1404" type="curve" smooth="yes"/>
      <point x="643" y="1404"/>
      <point x="647" y="1304"/>
      <point x="647" y="1184" type="curve"/>
      <point x="935" y="1184" type="line"/>
      <point x="935" y="1235" type="line" smooth="yes"/>
      <point x="934" y="1492"/>
      <point x="866" y="1681"/>
      <point x="561" y="1681" type="curve" smooth="yes"/>
      <point x="200" y="1681"/>
      <point x="162" y="1420"/>
      <point x="162" y="1100" type="curve" smooth="yes"/>
      <point x="162" y="916" type="line"/>
      <point x="40" y="916" type="line"/>
      <point x="40" y="658" type="line"/>
      <point x="162" y="658" type="line"/>
      <point x="162" y="244" type="line"/>
      <point x="40" y="186" type="line"/>
    </contour>
  </outline>
</glyph>
<glyph name="yen" format="1">
  <advance width="974"/>
  <unicode hex="00A5"/>
  <outline>
    <contour>
      <point x="320" y="0" type="line"/>
      <point x="668" y="0" type="line"/>
      <point x="668" y="244" type="line"/>
      <point x="839" y="244" type="line"/>
      <point x="839" y="410" type="line"/>
      <point x="668" y="410" type="line"/>
      <point x="668" y="544" type="line"/>
      <point x="839" y="544" type="line"/>
      <point x="839" y="715" type="line"/>
      <point x="709" y="715" type="line"/>
      <point x="981" y="1658" type="line"/>
      <point x="650" y="1658" type="line"/>
      <point x="506" y="1021" type="line"/>
      <point x="345" y="1658" type="line"/>
      <point x="3" y="1658" type="line"/>
      <point x="279" y="715" type="line"/>
      <point x="150" y="715" type="line"/>
      <point x="150" y="544" type="line"/>
      <point x="320" y="544" type="line"/>
      <point x="320" y="410" type="line"/>
      <point x="150" y="410" type="line"/>
      <point x="150" y="244" type="line"/>
      <point x="320" y="244" type="line"/>
    </contour>
  </outline>
</glyph>
<glyph name="section" format="1">
  <advance width="967"/>
  <unicode hex="00A7"/>
  <outline>
    <contour>
      <point x="477" y="-14" type="curve" smooth="yes"/>
      <point x="721" y="-14"/>
      <point x="864" y="124"/>
      <point x="864" y="324" type="curve" smooth="yes"/>
      <point x="864" y="445"/>
      <point x="799" y="526"/>
      <point x="693" y="612" type="curve"/>
      <point x="788" y="673"/>
      <point x="855" y="742"/>
      <point x="855" y="857" type="curve" smooth="yes"/>
      <point x="855" y="982"/>
      <point x="775" y="1077"/>
      <point x="670" y="1141" type="curve" smooth="yes"/>
      <point x="508" y="1242" type="line" smooth="yes"/>
      <point x="463" y="1268"/>
      <point x="381" y="1309"/>
      <point x="381" y="1389" type="curve" smooth="yes"/>
      <point x="381" y="1451"/>
      <point x="424" y="1482"/>
      <point x="487" y="1484" type="curve" smooth="yes"/>
      <point x="585" y="1486"/>
      <point x="628" y="1398"/>
      <point x="652" y="1318" type="curve"/>
      <point x="869" y="1373" type="line"/>
      <point x="823" y="1565"/>
      <point x="696" y="1713"/>
      <point x="478" y="1713" type="curve" smooth="yes"/>
      <point x="261" y="1713"/>
      <point x="78" y="1593"/>
      <point x="89" y="1384" type="curve" smooth="yes"/>
      <point x="95" y="1269"/>
      <point x="190" y="1167"/>
      <point x="275" y="1120" type="curve"/>
      <point x="186" y="1090"/>
      <point x="107" y="1005"/>
      <point x="100" y="882" type="curve" smooth="yes"/>
      <point x="92" y="755"/>
      <point x="166" y="674"/>
      <point x="261" y="616" type="curve" smooth="yes"/>
      <point x="445" y="503" type="line" smooth="yes"/>
      <point x="556" y="436"/>
      <point x="600" y="389"/>
      <point x="598" y="316" type="curve" smooth="yes"/>
      <point x="596" y="257"/>
      <point x="553" y="220"/>
      <point x="483" y="220" type="curve" smooth="yes"/>
      <point x="399" y="220"/>
      <point x="342" y="316"/>
      <point x="319" y="381" type="curve"/>
      <point x="97" y="322" type="line"/>
      <point x="143" y="135"/>
      <point x="260" y="-14"/>
    </contour>
    <contour>
      <point x="524" y="739" type="curve"/>
      <point x="397" y="810" type="line" smooth="yes"/>
      <point x="370" y="825"/>
      <point x="357" y="859"/>
      <point x="357" y="885" type="curve" smooth="yes"/>
      <point x="357" y="932"/>
      <point x="392" y="969"/>
      <point x="445" y="986" type="curve"/>
      <point x="541" y="928" type="line" smooth="yes"/>
      <point x="590" y="898"/>
      <point x="603" y="859"/>
      <point x="603" y="836" type="curve" smooth="yes"/>
      <point x="603" y="789"/>
      <point x="560" y="759"/>
    </contour>
  </outline>
</glyph>
<glyph name="dieresis" format="1">
  <advance width="869"/>
  <unicode hex="00A8"/>
  <outline>
    <contour>
      <point x="81" y="1357" type="line"/>
      <point x="349" y="1357" type="line"/>
      <point x="349" y="1658" type="line"/>
      <point x="81" y="1658" type="line"/>
    </contour>
    <contour>
      <point x="520" y="1357" type="line"/>
      <point x="788" y="1357" type="line"/>
      <point x="788" y="1658" type="line"/>
      <point x="520" y="1658" type="line"/>
    </contour>
  </outline>
</glyph>
<glyph name="copyright" format="1">
  <advance width="1806"/>
  <unicode hex="00A9"/>
  <outline>
    <contour>
      <point x="903" y="253" type="curve" smooth="yes"/>
      <point x="1174" y="253"/>
      <point x="1333" y="372"/>
      <point x="1333" y="604" type="curve" smooth="yes"/>
      <point x="1333" y="728" type="line"/>
      <point x="990" y="728" type="line"/>
      <point x="990" y="598" type="line" smooth="yes"/>
      <point x="990" y="514"/>
      <point x="963" y="481"/>
      <point x="905" y="481" type="curve" smooth="yes"/>
      <point x="852" y="481"/>
      <point x="819" y="509"/>
      <point x="819" y="619" type="curve" smooth="yes"/>
      <point x="819" y="1056" type="line" smooth="yes"/>
      <point x="819" y="1163"/>
      <point x="848" y="1197"/>
      <point x="905" y="1197" type="curve" smooth="yes"/>
      <point x="958" y="1197"/>
      <point x="990" y="1172"/>
      <point x="990" y="1077" type="curve" smooth="yes"/>
      <point x="990" y="963" type="line"/>
      <point x="1333" y="963" type="line"/>
      <point x="1333" y="1076" type="line" smooth="yes"/>
      <point x="1333" y="1310"/>
      <point x="1176" y="1423"/>
      <point x="903" y="1423" type="curve" smooth="yes"/>
      <point x="619" y="1423"/>
      <point x="462" y="1278"/>
      <point x="462" y="1033" type="curve" smooth="yes"/>
      <point x="462" y="646" type="line" smooth="yes"/>
      <point x="462" y="400"/>
      <point x="618" y="253"/>
    </contour>
    <contour>
      <point x="907" y="57" type="curve" smooth="yes"/>
      <point x="404" y="57"/>
      <point x="185" y="442"/>
      <point x="185" y="831" type="curve" smooth="yes"/>
      <point x="185" y="1223"/>
      <point x="404" y="1602"/>
      <point x="907" y="1602" type="curve" smooth="yes"/>
      <point x="1407" y="1602"/>
      <point x="1627" y="1223"/>
      <point x="1627" y="831" type="curve" smooth="yes"/>
      <point x="1627" y="442"/>
      <point x="1407" y="57"/>
    </contour>
    <contour>
      <point x="904" y="-26" type="curve" smooth="yes"/>
      <point x="1486" y="-26"/>
      <point x="1720" y="418"/>
      <point x="1720" y="833" type="curve" smooth="yes"/>
      <point x="1720" y="1247"/>
      <point x="1484" y="1691"/>
      <point x="904" y="1691" type="curve" smooth="yes"/>
      <point x="323" y="1691"/>
      <point x="87" y="1247"/>
      <point x="87" y="833" type="curve" smooth="yes"/>
      <point x="87" y="420"/>
      <point x="323" y="-26"/>
    </contour>
  </outline>
</glyph>
<glyph name="ordfeminine" format="1">
  <advance width="988"/>
  <unicode hex="00AA"/>
  <outline>
    <contour>
      <point x="373" y="640" type="curve"/>
      <point x="482" y="640"/>
      <point x="554" y="710"/>
      <point x="586" y="794" type="curve"/>
      <point x="603" y="657" type="line"/>
      <point x="865" y="657" type="line"/>
      <point x="865" y="1352" type="line" smooth="yes"/>
      <point x="865" y="1546"/>
      <point x="764" y="1683"/>
      <point x="534" y="1683" type="curve" smooth="yes"/>
      <point x="297" y="1683"/>
      <point x="152" y="1568"/>
      <point x="150" y="1323" type="curve"/>
      <point x="435" y="1315" type="line"/>
      <point x="444" y="1421"/>
      <point x="456" y="1467"/>
      <point x="509" y="1467" type="curve" smooth="yes"/>
      <point x="556" y="1467"/>
      <point x="569" y="1422"/>
      <point x="569" y="1376" type="curve" smooth="yes"/>
      <point x="569" y="1265" type="line"/>
      <point x="407" y="1207"/>
      <point x="118" y="1148"/>
      <point x="118" y="884" type="curve" smooth="yes"/>
      <point x="118" y="762"/>
      <point x="208" y="643"/>
    </contour>
    <contour>
      <point x="482" y="838" type="curve" smooth="yes"/>
      <point x="436" y="838"/>
      <point x="401" y="875"/>
      <point x="401" y="938" type="curve" smooth="yes"/>
      <point x="401" y="1011"/>
      <point x="469" y="1104"/>
      <point x="569" y="1150" type="curve"/>
      <point x="569" y="891" type="line"/>
      <point x="548" y="859"/>
      <point x="515" y="838"/>
    </contour>
  </outline>
</glyph>
<glyph name="guillemotleft" format="1">
  <advance width="998"/>
  <unicode hex="00AB"/>
  <outline>
    <contour>
      <point x="472" y="70" type="line"/>
      <point x="472" y="393" type="line"/>
      <point x="270" y="608" type="line"/>
      <point x="472" y="825" type="line"/>
      <point x="472" y="1148" type="line"/>
      <point x="74" y="667" type="line"/>
      <point x="74" y="551" type="line"/>
    </contour>
    <contour>
      <point x="917" y="70" type="line"/>
      <point x="917" y="393" type="line"/>
      <point x="714" y="608" type="line"/>
      <point x="917" y="825" type="line"/>
      <point x="917" y="1148" type="line"/>
      <point x="518" y="667" type="line"/>
      <point x="518" y="551" type="line"/>
    </contour>
  </outline>
</glyph>
<glyph name="logicalnot" format="1">
  <advance width="1011"/>
  <unicode hex="00AC"/>
  <outline>
    <contour>
      <point x="753" y="423" type="line"/>
      <point x="916" y="423" type="line"/>
      <point x="916" y="965" type="line"/>
      <point x="95" y="965" type="line"/>
      <point x="95" y="741" type="line"/>
      <point x="753" y="741" type="line"/>
    </contour>
  </outline>
</glyph>
<glyph name="uni00AD" format="1">
  <advance width="759"/>
  <unicode hex="00AD"/>
  <outline>
    <contour>
      <point x="132" y="570" type="line"/>
      <point x="642" y="570" type="line"/>
      <point x="642" y="824" type="line"/>
      <point x="132" y="824" type="line"/>
    </contour>
  </outline>
</glyph>
<glyph name="registered" format="1">
  <advance width="1824"/>
  <unicode hex="00AE"/>
  <outline>
    <contour>
      <point x="567" y="315" type="line"/>
      <point x="836" y="315" type="line"/>
      <point x="836" y="755" type="line"/>
      <point x="893" y="755" type="line"/>
      <point x="1033" y="315" type="line"/>
      <point x="1315" y="315" type="line"/>
      <point x="1134" y="808" type="line"/>
      <point x="1246" y="861"/>
      <point x="1282" y="935"/>
      <point x="1282" y="1065" type="curve" smooth="yes"/>
      <point x="1282" y="1283"/>
      <point x="1143" y="1349"/>
      <point x="908" y="1349" type="curve" smooth="yes"/>
      <point x="567" y="1349" type="line"/>
    </contour>
    <contour>
      <point x="836" y="891" type="line"/>
      <point x="836" y="1191" type="line"/>
      <point x="901" y="1191" type="line" smooth="yes"/>
      <point x="994" y="1191"/>
      <point x="1030" y="1135"/>
      <point x="1030" y="1047" type="curve" smooth="yes"/>
      <point x="1030" y="950"/>
      <point x="995" y="891"/>
      <point x="877" y="891" type="curve" smooth="yes"/>
    </contour>
    <contour>
      <point x="912" y="81" type="curve" smooth="yes"/>
      <point x="430" y="81"/>
      <point x="221" y="454"/>
      <point x="221" y="827" type="curve" smooth="yes"/>
      <point x="221" y="1202"/>
      <point x="430" y="1571"/>
      <point x="912" y="1571" type="curve" smooth="yes"/>
      <point x="1390" y="1571"/>
      <point x="1600" y="1202"/>
      <point x="1600" y="827" type="curve" smooth="yes"/>
      <point x="1600" y="454"/>
      <point x="1390" y="81"/>
    </contour>
    <contour>
      <point x="913" y="-28" type="curve" smooth="yes"/>
      <point x="1493" y="-28"/>
      <point x="1726" y="415"/>
      <point x="1726" y="828" type="curve" smooth="yes"/>
      <point x="1726" y="1241"/>
      <point x="1491" y="1684"/>
      <point x="913" y="1684" type="curve" smooth="yes"/>
      <point x="333" y="1684"/>
      <point x="98" y="1241"/>
      <point x="98" y="828" type="curve" smooth="yes"/>
      <point x="98" y="417"/>
      <point x="333" y="-28"/>
    </contour>
  </outline>
</glyph>
<glyph name="degree" format="1">
  <advance width="1101"/>
  <unicode hex="00B0"/>
  <outline>
    <contour>
      <point x="549" y="1052" type="curve" smooth="yes"/>
      <point x="421" y="1052"/>
      <point x="349" y="1147"/>
      <point x="349" y="1277" type="curve" smooth="yes"/>
      <point x="349" y="1407"/>
      <point x="421" y="1497"/>
      <point x="549" y="1497" type="curve" smooth="yes"/>
      <point x="679" y="1497"/>
      <point x="750" y="1406"/>
      <point x="750" y="1276" type="curve" smooth="yes"/>
      <point x="750" y="1146"/>
      <point x="679" y="1052"/>
    </contour>
    <contour>
      <point x="549" y="871" type="curve" smooth="yes"/>
      <point x="800" y="871"/>
      <point x="962" y="1032"/>
      <point x="962" y="1277" type="curve" smooth="yes"/>
      <point x="962" y="1522"/>
      <point x="798" y="1680"/>
      <point x="549" y="1680" type="curve" smooth="yes"/>
      <point x="302" y="1680"/>
      <point x="139" y="1522"/>
      <point x="139" y="1277" type="curve" smooth="yes"/>
      <point x="139" y="1032"/>
      <point x="301" y="871"/>
    </contour>
  </outline>
</glyph>
<glyph name="plusminus" format="1">
  <advance width="978"/>
  <unicode hex="00B1"/>
  <outline>
    <contour>
      <point x="385" y="377" type="line"/>
      <point x="594" y="377" type="line"/>
      <point x="594" y="638" type="line"/>
      <point x="846" y="638" type="line"/>
      <point x="846" y="834" type="line"/>
      <point x="594" y="834" type="line"/>
      <point x="594" y="1095" type="line"/>
      <point x="385" y="1095" type="line"/>
      <point x="385" y="834" type="line"/>
      <point x="132" y="834" type="line"/>
      <point x="132" y="638" type="line"/>
      <point x="385" y="638" type="line"/>
    </contour>
    <contour>
      <point x="132" y="0" type="line"/>
      <point x="846" y="0" type="line"/>
      <point x="846" y="203" type="line"/>
      <point x="132" y="203" type="line"/>
    </contour>
  </outline>
</glyph>
<glyph name="uni00B2" format="1">
  <advance width="612"/>
  <unicode hex="00B2"/>
  <outline>
    <contour>
      <point x="62" y="613" type="line"/>
      <point x="547" y="613" type="line"/>
      <point x="547" y="762" type="line"/>
      <point x="284" y="762" type="line"/>
      <point x="334" y="829"/>
      <point x="353" y="815"/>
      <point x="433" y="924" type="curve"/>
      <point x="498" y="1009"/>
      <point x="543" y="1088"/>
      <point x="543" y="1158" type="curve" smooth="yes"/>
      <point x="543" y="1304"/>
      <point x="448" y="1389"/>
      <point x="299" y="1389" type="curve" smooth="yes"/>
      <point x="149" y="1389"/>
      <point x="61" y="1299"/>
      <point x="61" y="1160" type="curve"/>
      <point x="278" y="1160" type="line"/>
      <point x="278" y="1178"/>
      <point x="265" y="1240"/>
      <point x="299" y="1240" type="curve" smooth="yes"/>
      <point x="342" y="1240"/>
      <point x="327" y="1177"/>
      <point x="327" y="1159" type="curve"/>
      <point x="327" y="1104"/>
      <point x="297" y="1054"/>
      <point x="254" y="990" type="curve" smooth="yes"/>
      <point x="175" y="865"/>
      <point x="88" y="789"/>
      <point x="62" y="755" type="curve"/>
    </contour>
  </outline>
</glyph>
<glyph name="uni00B3" format="1">
  <advance width="751"/>
  <unicode hex="00B3"/>
  <outline>
    <contour>
      <point x="375" y="673" type="curve" smooth="yes"/>
      <point x="526" y="673"/>
      <point x="619" y="754"/>
      <point x="619" y="900" type="curve" smooth="yes"/>
      <point x="619" y="997"/>
      <point x="575" y="1035"/>
      <point x="490" y="1054" type="curve"/>
      <point x="575" y="1075"/>
      <point x="619" y="1122"/>
      <point x="619" y="1216" type="curve" smooth="yes"/>
      <point x="619" y="1369"/>
      <point x="524" y="1448"/>
      <point x="372" y="1448" type="curve" smooth="yes"/>
      <point x="220" y="1448"/>
      <point x="133" y="1357"/>
      <point x="133" y="1220" type="curve"/>
      <point x="353" y="1220" type="line"/>
      <point x="353" y="1238"/>
      <point x="340" y="1300"/>
      <point x="372" y="1300" type="curve" smooth="yes"/>
      <point x="413" y="1300"/>
      <point x="399" y="1238"/>
      <point x="399" y="1218" type="curve" smooth="yes"/>
      <point x="399" y="1128"/>
      <point x="375" y="1123"/>
      <point x="291" y="1133" type="curve"/>
      <point x="291" y="976" type="line"/>
      <point x="377" y="982"/>
      <point x="399" y="991"/>
      <point x="399" y="900" type="curve"/>
      <point x="399" y="887"/>
      <point x="415" y="822"/>
      <point x="374" y="822" type="curve" smooth="yes"/>
      <point x="341" y="822"/>
      <point x="353" y="883"/>
      <point x="353" y="901" type="curve"/>
      <point x="133" y="901" type="line"/>
      <point x="133" y="763"/>
      <point x="220" y="673"/>
    </contour>
  </outline>
</glyph>
<glyph name="paragraph" format="1">
  <advance width="1066"/>
  <unicode hex="00B6"/>
  <outline>
    <contour>
      <point x="386" y="-196" type="line"/>
      <point x="580" y="-196" type="line"/>
      <point x="580" y="1472" type="line"/>
      <point x="744" y="1472" type="line"/>
      <point x="744" y="-196" type="line"/>
      <point x="927" y="-196" type="line"/>
      <point x="927" y="1658" type="line"/>
      <point x="470" y="1658" type="line" smooth="yes"/>
      <point x="257" y="1658"/>
      <point x="72" y="1581"/>
      <point x="72" y="1330" type="curve" smooth="yes"/>
      <point x="72" y="1125"/>
      <point x="201" y="1010"/>
      <point x="386" y="1005" type="curve"/>
    </contour>
  </outline>
</glyph>
<glyph name="periodcentered" format="1">
  <advance width="454"/>
  <unicode hex="00B7"/>
  <outline>
    <contour>
      <point x="71" y="617" type="line"/>
      <point x="384" y="617" type="line"/>
      <point x="384" y="924" type="line"/>
      <point x="71" y="924" type="line"/>
    </contour>
  </outline>
</glyph>
<glyph name="cedilla" format="1">
  <advance width="566"/>
  <unicode hex="00B8"/>
  <outline>
    <contour>
      <point x="107" y="-542" type="line"/>
      <point x="310" y="-603"/>
      <point x="571" y="-557"/>
      <point x="568" y="-340" type="curve" smooth="yes"/>
      <point x="566" y="-218"/>
      <point x="438" y="-140"/>
      <point x="287" y="-135" type="curve"/>
      <point x="287" y="0" type="line"/>
      <point x="164" y="0" type="line"/>
      <point x="164" y="-235" type="line"/>
      <point x="243" y="-242"/>
      <point x="353" y="-270"/>
      <point x="352" y="-355" type="curve" smooth="yes"/>
      <point x="351" y="-429"/>
      <point x="181" y="-420"/>
      <point x="107" y="-398" type="curve"/>
    </contour>
  </outline>
</glyph>
<glyph name="uni00B9" format="1">
  <advance width="654"/>
  <unicode hex="00B9"/>
  <outline>
    <contour>
      <point x="221" y="526" type="line"/>
      <point x="513" y="526" type="line"/>
      <point x="513" y="1658" type="line"/>
      <point x="247" y="1658" type="line"/>
      <point x="219" y="1627"/>
      <point x="127" y="1559"/>
      <point x="70" y="1535" type="curve"/>
      <point x="70" y="1331" type="line"/>
      <point x="221" y="1407" type="line"/>
    </contour>
  </outline>
</glyph>
<glyph name="ordmasculine" format="1">
  <advance width="988"/>
  <unicode hex="00BA"/>
  <outline>
    <contour>
      <point x="493" y="639" type="curve" smooth="yes"/>
      <point x="704" y="639"/>
      <point x="848" y="754"/>
      <point x="848" y="968" type="curve" smooth="yes"/>
      <point x="848" y="1355" type="line" smooth="yes"/>
      <point x="848" y="1569"/>
      <point x="704" y="1683"/>
      <point x="493" y="1683" type="curve" smooth="yes"/>
      <point x="278" y="1683"/>
      <point x="141" y="1572"/>
      <point x="141" y="1355" type="curve" smooth="yes"/>
      <point x="141" y="968" type="line" smooth="yes"/>
      <point x="141" y="751"/>
      <point x="278" y="639"/>
    </contour>
    <contour>
      <point x="492" y="841" type="curve" smooth="yes"/>
      <point x="431" y="841"/>
      <point x="410" y="893"/>
      <point x="410" y="973" type="curve" smooth="yes"/>
      <point x="410" y="1350" type="line" smooth="yes"/>
      <point x="410" y="1430"/>
      <point x="431" y="1481"/>
      <point x="492" y="1481" type="curve" smooth="yes"/>
      <point x="556" y="1481"/>
      <point x="576" y="1432"/>
      <point x="576" y="1350" type="curve" smooth="yes"/>
      <point x="576" y="973" type="line" smooth="yes"/>
      <point x="576" y="891"/>
      <point x="555" y="841"/>
    </contour>
  </outline>
</glyph>
<glyph name="guillemotright" format="1">
  <advance width="1016"/>
  <unicode hex="00BB"/>
  <outline>
    <contour>
      <point x="93" y="70" type="line"/>
      <point x="499" y="551" type="line"/>
      <point x="499" y="667" type="line"/>
      <point x="93" y="1148" type="line"/>
      <point x="93" y="825" type="line"/>
      <point x="302" y="610" type="line"/>
      <point x="93" y="393" type="line"/>
    </contour>
    <contour>
      <point x="538" y="70" type="line"/>
      <point x="942" y="551" type="line"/>
      <point x="942" y="667" type="line"/>
      <point x="538" y="1148" type="line"/>
      <point x="538" y="825" type="line"/>
      <point x="746" y="610" type="line"/>
      <point x="538" y="393" type="line"/>
    </contour>
  </outline>
</glyph>
<glyph name="onequarter" format="1">
  <advance width="1414"/>
  <unicode hex="00BC"/>
  <outline>
    <contour>
      <point x="1034" y="1" type="line"/>
      <point x="1203" y="1" type="line"/>
      <point x="1203" y="230" type="line"/>
      <point x="1311" y="230" type="line"/>
      <point x="1311" y="381" type="line"/>
      <point x="1203" y="381" type="line"/>
      <point x="1203" y="860" type="line"/>
      <point x="1051" y="860" type="line"/>
      <point x="760" y="373" type="line"/>
      <point x="760" y="230" type="line"/>
      <point x="1034" y="230" type="line"/>
    </contour>
    <contour>
      <point x="227" y="828" type="line"/>
      <point x="424" y="828" type="line"/>
      <point x="424" y="1658" type="line"/>
      <point x="316" y="1658" type="line"/>
      <point x="271" y="1601"/>
      <point x="207" y="1545"/>
      <point x="105" y="1491" type="curve"/>
      <point x="105" y="1338" type="line"/>
      <point x="227" y="1392" type="line"/>
    </contour>
    <contour>
      <point x="223" y="0" type="line"/>
      <point x="391" y="0" type="line"/>
      <point x="1151" y="1658" type="line"/>
      <point x="982" y="1658" type="line"/>
    </contour>
    <contour>
      <point x="884" y="381" type="line"/>
      <point x="1034" y="644" type="line"/>
      <point x="1034" y="381" type="line"/>
    </contour>
  </outline>
</glyph>
<glyph name="onehalf" format="1">
  <advance width="1414"/>
  <unicode hex="00BD"/>
  <outline>
    <contour>
      <point x="845" y="1" type="line"/>
      <point x="1306" y="1" type="line"/>
      <point x="1306" y="148" type="line"/>
      <point x="1048" y="148" type="line"/>
      <point x="1057" y="161"/>
      <point x="1165" y="310"/>
      <point x="1178" y="325" type="curve"/>
      <point x="1258" y="436"/>
      <point x="1321" y="527"/>
      <point x="1321" y="643" type="curve" smooth="yes"/>
      <point x="1321" y="790"/>
      <point x="1225" y="873"/>
      <point x="1070" y="873" type="curve" smooth="yes"/>
      <point x="912" y="873"/>
      <point x="828" y="776"/>
      <point x="826" y="639" type="curve" smooth="yes"/>
      <point x="826" y="629"/>
      <point x="827" y="618"/>
      <point x="831" y="572" type="curve"/>
      <point x="1008" y="572" type="line"/>
      <point x="996" y="650"/>
      <point x="1017" y="724"/>
      <point x="1074" y="724" type="curve" smooth="yes"/>
      <point x="1124" y="724"/>
      <point x="1140" y="685"/>
      <point x="1140" y="640" type="curve" smooth="yes"/>
      <point x="1140" y="562"/>
      <point x="1083" y="490"/>
      <point x="1035" y="420" type="curve"/>
      <point x="845" y="148" type="line"/>
    </contour>
    <contour>
      <point x="176" y="828" type="line"/>
      <point x="373" y="828" type="line"/>
      <point x="373" y="1658" type="line"/>
      <point x="265" y="1658" type="line"/>
      <point x="219" y="1601"/>
      <point x="156" y="1545"/>
      <point x="54" y="1491" type="curve"/>
      <point x="54" y="1338" type="line"/>
      <point x="176" y="1392" type="line"/>
    </contour>
    <contour>
      <point x="179" y="0" type="line"/>
      <point x="347" y="0" type="line"/>
      <point x="1107" y="1658" type="line"/>
      <point x="938" y="1658" type="line"/>
    </contour>
  </outline>
</glyph>
<glyph name="threequarters" format="1">
  <advance width="1414"/>
  <unicode hex="00BE"/>
  <outline>
    <contour>
      <point x="322" y="888" type="curve" smooth="yes"/>
      <point x="461" y="888"/>
      <point x="533" y="972"/>
      <point x="533" y="1118" type="curve" smooth="yes"/>
      <point x="533" y="1215"/>
      <point x="489" y="1269"/>
      <point x="400" y="1283" type="curve"/>
      <point x="467" y="1290"/>
      <point x="529" y="1351"/>
      <point x="529" y="1445" type="curve" smooth="yes"/>
      <point x="529" y="1585"/>
      <point x="466" y="1664"/>
      <point x="325" y="1664" type="curve" smooth="yes"/>
      <point x="184" y="1664"/>
      <point x="98" y="1593"/>
      <point x="98" y="1435" type="curve"/>
      <point x="249" y="1435" type="line"/>
      <point x="249" y="1487"/>
      <point x="260" y="1527"/>
      <point x="313" y="1527" type="curve" smooth="yes"/>
      <point x="360" y="1527"/>
      <point x="372" y="1489"/>
      <point x="372" y="1430" type="curve" smooth="yes"/>
      <point x="372" y="1354"/>
      <point x="337" y="1334"/>
      <point x="244" y="1334" type="curve"/>
      <point x="244" y="1213" type="line"/>
      <point x="337" y="1213"/>
      <point x="370" y="1197"/>
      <point x="370" y="1116" type="curve" smooth="yes"/>
      <point x="370" y="1065"/>
      <point x="359" y="1025"/>
      <point x="315" y="1025" type="curve" smooth="yes"/>
      <point x="271" y="1025"/>
      <point x="249" y="1060"/>
      <point x="249" y="1117" type="curve"/>
      <point x="98" y="1117" type="line"/>
      <point x="98" y="978"/>
      <point x="179" y="888"/>
    </contour>
    <contour>
      <point x="1057" y="1" type="line"/>
      <point x="1226" y="1" type="line"/>
      <point x="1226" y="230" type="line"/>
      <point x="1334" y="230" type="line"/>
      <point x="1334" y="381" type="line"/>
      <point x="1226" y="381" type="line"/>
      <point x="1226" y="860" type="line"/>
      <point x="1074" y="860" type="line"/>
      <point x="783" y="373" type="line"/>
      <point x="783" y="230" type="line"/>
      <point x="1057" y="230" type="line"/>
    </contour>
    <contour>
      <point x="242" y="0" type="line"/>
      <point x="410" y="0" type="line"/>
      <point x="1170" y="1658" type="line"/>
      <point x="1001" y="1658" type="line"/>
    </contour>
    <contour>
      <point x="907" y="381" type="line"/>
      <point x="1057" y="644" type="line"/>
      <point x="1057" y="381" type="line"/>
    </contour>
  </outline>
</glyph>
<glyph name="questiondown" format="1">
  <advance width="1067"/>
  <unicode hex="00BF"/>
  <outline>
    <contour>
      <point x="557" y="-370" type="curve" smooth="yes"/>
      <point x="859" y="-370"/>
      <point x="971" y="-190"/>
      <point x="956" y="35" type="curve" smooth="yes"/>
      <point x="956" y="95"/>
      <point x="943" y="140"/>
      <point x="926" y="206" type="curve"/>
      <point x="627" y="138" type="line"/>
      <point x="638" y="101"/>
      <point x="648" y="76"/>
      <point x="648" y="34" type="curve" smooth="yes"/>
      <point x="652" y="-39"/>
      <point x="611" y="-84"/>
      <point x="550" y="-84" type="curve" smooth="yes"/>
      <point x="492" y="-84"/>
      <point x="438" y="-54"/>
      <point x="434" y="38" type="curve" smooth="yes"/>
      <point x="420" y="261"/>
      <point x="583" y="468"/>
      <point x="760" y="616" type="curve"/>
      <point x="760" y="880" type="line"/>
      <point x="459" y="880" type="line"/>
      <point x="459" y="681" type="line"/>
      <point x="269" y="546"/>
      <point x="105" y="299"/>
      <point x="105" y="51" type="curve" smooth="yes"/>
      <point x="105" y="-213"/>
      <point x="264" y="-370"/>
    </contour>
    <contour>
      <point x="447" y="1001" type="line"/>
      <point x="770" y="1001" type="line"/>
      <point x="770" y="1315" type="line"/>
      <point x="447" y="1315" type="line"/>
    </contour>
  </outline>
</glyph>
<glyph name="AE" format="1">
  <advance width="1441"/>
  <unicode hex="00C6"/>
  <outline>
    <contour>
      <point x="-35" y="0" type="line"/>
      <point x="328" y="0" type="line"/>
      <point x="471" y="349" type="line"/>
      <point x="738" y="349" type="line"/>
      <point x="738" y="0" type="line"/>
      <point x="1402" y="0" type="line"/>
      <point x="1402" y="246" type="line"/>
      <point x="1051" y="246" type="line"/>
      <point x="1051" y="730" type="line"/>
      <point x="1299" y="730" type="line"/>
      <point x="1299" y="983" type="line"/>
      <point x="1051" y="983" type="line"/>
      <point x="1051" y="1388" type="line"/>
      <point x="1402" y="1388" type="line"/>
      <point x="1402" y="1636" type="line"/>
      <point x="688" y="1636" type="line"/>
    </contour>
    <contour>
      <point x="547" y="578" type="line"/>
      <point x="738" y="1091" type="line"/>
      <point x="738" y="578" type="line"/>
    </contour>
  </outline>
</glyph>
<glyph name="Eth" format="1">
  <advance width="1144"/>
  <unicode hex="00D0"/>
  <outline>
    <contour>
      <point x="470" y="252" type="line"/>
      <point x="470" y="759" type="line"/>
      <point x="553" y="759" type="line"/>
      <point x="553" y="941" type="line"/>
      <point x="470" y="941" type="line"/>
      <point x="470" y="1404" type="line"/>
      <point x="526" y="1404" type="line" smooth="yes"/>
      <point x="691" y="1404"/>
      <point x="706" y="1345"/>
      <point x="706" y="1192" type="curve" smooth="yes"/>
      <point x="706" y="484" type="line" smooth="yes"/>
      <point x="706" y="326"/>
      <point x="697" y="252"/>
      <point x="527" y="252" type="curve" smooth="yes"/>
    </contour>
    <contour>
      <point x="106" y="0" type="line"/>
      <point x="528" y="0" type="line" smooth="yes"/>
      <point x="953" y="0"/>
      <point x="1078" y="160"/>
      <point x="1078" y="536" type="curve" smooth="yes"/>
      <point x="1078" y="1134" type="line" smooth="yes"/>
      <point x="1078" y="1505"/>
      <point x="954" y="1658"/>
      <point x="522" y="1658" type="curve" smooth="yes"/>
      <point x="106" y="1658" type="line"/>
      <point x="106" y="941" type="line"/>
      <point x="16" y="941" type="line"/>
      <point x="16" y="759" type="line"/>
      <point x="106" y="759" type="line"/>
    </contour>
  </outline>
</glyph>
<glyph name="multiply" format="1">
  <advance width="987"/>
  <unicode hex="00D7"/>
  <outline>
    <contour>
      <point x="263" y="468" type="line"/>
      <point x="494" y="700" type="line"/>
      <point x="728" y="468" type="line"/>
      <point x="877" y="618" type="line"/>
      <point x="644" y="851" type="line"/>
      <point x="877" y="1084" type="line"/>
      <point x="726" y="1234" type="line"/>
      <point x="494" y="1002" type="line"/>
      <point x="262" y="1234" type="line"/>
      <point x="111" y="1082" type="line"/>
      <point x="343" y="851" type="line"/>
      <point x="111" y="618" type="line"/>
    </contour>
  </outline>
</glyph>
<glyph name="Oslash" format="1">
  <advance width="1168"/>
  <unicode hex="00D8"/>
  <outline>
    <contour>
      <point x="252" y="-181" type="line"/>
      <point x="973" y="1778" type="line"/>
      <point x="892" y="1809" type="line"/>
      <point x="172" y="-149" type="line"/>
    </contour>
    <component base="O"/>
  </outline>
</glyph>
<glyph name="Thorn" format="1">
  <advance width="1143"/>
  <unicode hex="00DE"/>
  <outline>
    <contour>
      <point x="106" y="0" type="line"/>
      <point x="470" y="0" type="line"/>
      <point x="470" y="477" type="line"/>
      <point x="610" y="478" type="line" smooth="yes"/>
      <point x="951" y="480"/>
      <point x="1115" y="583"/>
      <point x="1115" y="974" type="curve" smooth="yes"/>
      <point x="1115" y="1305"/>
      <point x="955" y="1437"/>
      <point x="630" y="1437" type="curve" smooth="yes"/>
      <point x="470" y="1437" type="line"/>
      <point x="470" y="1658" type="line"/>
      <point x="106" y="1658" type="line"/>
    </contour>
    <contour>
      <point x="470" y="737" type="line"/>
      <point x="470" y="1174" type="line"/>
      <point x="594" y="1174" type="line" smooth="yes"/>
      <point x="733" y="1174"/>
      <point x="782" y="1107"/>
      <point x="782" y="958" type="curve" smooth="yes"/>
      <point x="782" y="795"/>
      <point x="726" y="737"/>
      <point x="582" y="737" type="curve" smooth="yes"/>
    </contour>
  </outline>
</glyph>
<glyph name="germandbls" format="1">
  <advance width="1110"/>
  <unicode hex="00DF"/>
  <outline>
    <contour>
      <point x="521" y="-30" type="line"/>
      <point x="855" y="-30"/>
      <point x="1055" y="109"/>
      <point x="1055" y="463" type="curve" smooth="yes"/>
      <point x="1055" y="660"/>
      <point x="932" y="820"/>
      <point x="727" y="879" type="curve"/>
      <point x="899" y="950"/>
      <point x="966" y="1074"/>
      <point x="966" y="1235" type="curve" smooth="yes"/>
      <point x="966" y="1516"/>
      <point x="830" y="1682"/>
      <point x="516" y="1682" type="curve" smooth="yes"/>
      <point x="206" y="1682"/>
      <point x="95" y="1456"/>
      <point x="95" y="1227" type="curve" smooth="yes"/>
      <point x="95" y="0" type="line"/>
      <point x="426" y="0" type="line"/>
      <point x="426" y="1228" type="line" smooth="yes"/>
      <point x="424" y="1357"/>
      <point x="451" y="1450"/>
      <point x="546" y="1450" type="curve" smooth="yes"/>
      <point x="631" y="1450"/>
      <point x="683" y="1376"/>
      <point x="683" y="1230" type="curve" smooth="yes"/>
      <point x="683" y="1065"/>
      <point x="632" y="974"/>
      <point x="534" y="974" type="curve"/>
      <point x="537" y="718" type="line"/>
      <point x="639" y="718"/>
      <point x="718" y="629"/>
      <point x="725" y="502" type="curve" smooth="yes"/>
      <point x="738" y="294"/>
      <point x="661" y="223"/>
      <point x="521" y="223" type="curve"/>
    </contour>
  </outline>
</glyph>
<glyph name="ae" format="1">
  <advance width="1369"/>
  <unicode hex="00E6"/>
  <outline>
    <contour>
      <point x="365" y="-24" type="curve" smooth="yes"/>
      <point x="494" y="-28"/>
      <point x="620" y="43"/>
      <point x="673" y="162" type="curve"/>
      <point x="699" y="41"/>
      <point x="835" y="-24"/>
      <point x="946" y="-24" type="curve" smooth="yes"/>
      <point x="1169" y="-23"/>
      <point x="1288" y="103"/>
      <point x="1288" y="322" type="curve" smooth="yes"/>
      <point x="1288" y="414" type="line"/>
      <point x="982" y="414" type="line"/>
      <point x="982" y="352" type="line" smooth="yes"/>
      <point x="982" y="275"/>
      <point x="982" y="214"/>
      <point x="922" y="214" type="curve" smooth="yes"/>
      <point x="853" y="214"/>
      <point x="854" y="305"/>
      <point x="854" y="402" type="curve" smooth="yes"/>
      <point x="854" y="594" type="line"/>
      <point x="878" y="598"/>
      <point x="941" y="610"/>
      <point x="965" y="616" type="curve" smooth="yes"/>
      <point x="1132" y="653"/>
      <point x="1298" y="720"/>
      <point x="1298" y="913" type="curve" smooth="yes"/>
      <point x="1298" y="1072"/>
      <point x="1184" y="1232"/>
      <point x="948" y="1232" type="curve" smooth="yes"/>
      <point x="823" y="1232"/>
      <point x="721" y="1164"/>
      <point x="686" y="1077" type="curve"/>
      <point x="662" y="1167"/>
      <point x="567" y="1232"/>
      <point x="441" y="1232" type="curve" smooth="yes"/>
      <point x="185" y="1232"/>
      <point x="62" y="1070"/>
      <point x="65" y="800" type="curve"/>
      <point x="386" y="800" type="line"/>
      <point x="386" y="919"/>
      <point x="415" y="954"/>
      <point x="465" y="954" type="curve" smooth="yes"/>
      <point x="515" y="954"/>
      <point x="539" y="920"/>
      <point x="539" y="840" type="curve" smooth="yes"/>
      <point x="539" y="690" type="line"/>
      <point x="507" y="685"/>
      <point x="422" y="667"/>
      <point x="384" y="658" type="curve" smooth="yes"/>
      <point x="220" y="617"/>
      <point x="62" y="529"/>
      <point x="62" y="276" type="curve" smooth="yes"/>
      <point x="62" y="87"/>
      <point x="200" y="-21"/>
    </contour>
    <contour>
      <point x="441" y="203" type="curve" smooth="yes"/>
      <point x="380" y="203"/>
      <point x="355" y="270"/>
      <point x="355" y="317" type="curve" smooth="yes"/>
      <point x="355" y="371"/>
      <point x="386" y="464"/>
      <point x="475" y="517" type="curve" smooth="yes"/>
      <point x="495" y="527"/>
      <point x="516" y="536"/>
      <point x="540" y="544" type="curve"/>
      <point x="541" y="351" type="line" smooth="yes"/>
      <point x="541" y="240"/>
      <point x="496" y="203"/>
    </contour>
    <contour>
      <point x="853" y="745" type="curve"/>
      <point x="853" y="877" type="line" smooth="yes"/>
      <point x="853" y="958"/>
      <point x="890" y="1013"/>
      <point x="944" y="1013" type="curve" smooth="yes"/>
      <point x="992" y="1013"/>
      <point x="1021" y="972"/>
      <point x="1021" y="900" type="curve" smooth="yes"/>
      <point x="1021" y="832"/>
      <point x="995" y="801"/>
      <point x="952" y="780" type="curve" smooth="yes"/>
      <point x="935" y="763"/>
      <point x="882" y="749"/>
    </contour>
  </outline>
</glyph>
<glyph name="eth" format="1">
  <advance width="1034"/>
  <unicode hex="00F0"/>
  <outline>
    <contour>
      <point x="510" y="-29" type="curve" smooth="yes"/>
      <point x="753" y="-29"/>
      <point x="941" y="106"/>
      <point x="941" y="402" type="curve" smooth="yes"/>
      <point x="941" y="974" type="line" smooth="yes"/>
      <point x="941" y="1237"/>
      <point x="862" y="1417"/>
      <point x="808" y="1505" type="curve"/>
      <point x="967" y="1593" type="line"/>
      <point x="926" y="1687" type="line"/>
      <point x="742" y="1585" type="line"/>
      <point x="658" y="1675"/>
      <point x="505" y="1724"/>
      <point x="268" y="1724" type="curve"/>
      <point x="253" y="1496" type="line"/>
      <point x="412" y="1493"/>
      <point x="449" y="1463"/>
      <point x="474" y="1434" type="curve"/>
      <point x="336" y="1365" type="line"/>
      <point x="376" y="1275" type="line"/>
      <point x="533" y="1357" type="line"/>
      <point x="559" y="1323"/>
      <point x="606" y="1237"/>
      <point x="609" y="1080" type="curve"/>
      <point x="547" y="1136"/>
      <point x="470" y="1174"/>
      <point x="376" y="1174" type="curve" smooth="yes"/>
      <point x="178" y="1174"/>
      <point x="91" y="1011"/>
      <point x="91" y="783" type="curve" smooth="yes"/>
      <point x="91" y="364" type="line" smooth="yes"/>
      <point x="91" y="100"/>
      <point x="261" y="-29"/>
    </contour>
    <contour>
      <point x="511" y="194" type="curve" smooth="yes"/>
      <point x="403" y="194"/>
      <point x="417" y="321"/>
      <point x="417" y="593" type="curve" smooth="yes"/>
      <point x="417" y="913"/>
      <point x="425" y="962"/>
      <point x="518" y="962" type="curve" smooth="yes"/>
      <point x="560" y="962"/>
      <point x="582" y="944"/>
      <point x="610" y="926" type="curve"/>
      <point x="610" y="355" type="line" smooth="yes"/>
      <point x="610" y="258"/>
      <point x="592" y="194"/>
    </contour>
  </outline>
</glyph>
<glyph name="divide" format="1">
  <advance width="923"/>
  <unicode hex="00F7"/>
  <outline>
    <contour>
      <point x="368" y="358" type="line"/>
      <point x="574" y="358" type="line"/>
      <point x="574" y="612" type="line"/>
      <point x="368" y="612" type="line"/>
    </contour>
    <contour>
      <point x="69" y="767" type="line"/>
      <point x="854" y="767" type="line"/>
      <point x="854" y="946" type="line"/>
      <point x="69" y="946" type="line"/>
    </contour>
    <contour>
      <point x="368" y="1086" type="line"/>
      <point x="574" y="1086" type="line"/>
      <point x="574" y="1340" type="line"/>
      <point x="368" y="1340" type="line"/>
    </contour>
  </outline>
</glyph>
<glyph name="oslash" format="1">
  <advance width="975"/>
  <unicode hex="00F8"/>
  <outline>
    <contour>
      <point x="214" y="-185" type="line"/>
      <point x="829" y="1348" type="line"/>
      <point x="749" y="1380" type="line"/>
      <point x="138" y="-154" type="line"/>
    </contour>
    <component base="o"/>
  </outline>
</glyph>
<glyph name="thorn" format="1">
  <advance width="1010"/>
  <unicode hex="00FE"/>
  <outline>
    <contour>
      <point x="95" y="-390" type="line"/>
      <point x="426" y="-390" type="line"/>
      <point x="426" y="89" type="line"/>
      <point x="502" y="22"/>
      <point x="587" y="-21"/>
      <point x="672" y="-21" type="curve" smooth="yes"/>
      <point x="845" y="-21"/>
      <point x="933" y="133"/>
      <point x="933" y="352" type="curve" smooth="yes"/>
      <point x="933" y="851" type="line" smooth="yes"/>
      <point x="933" y="1034"/>
      <point x="863" y="1199"/>
      <point x="680" y="1204" type="curve" smooth="yes"/>
      <point x="595" y="1207"/>
      <point x="507" y="1169"/>
      <point x="426" y="1097" type="curve"/>
      <point x="426" y="1658" type="line"/>
      <point x="95" y="1658" type="line"/>
    </contour>
    <contour>
      <point x="518" y="196" type="curve" smooth="yes"/>
      <point x="485" y="196"/>
      <point x="455" y="208"/>
      <point x="426" y="226" type="curve"/>
      <point x="426" y="962" type="line"/>
      <point x="456" y="984"/>
      <point x="487" y="1000"/>
      <point x="515" y="1001" type="curve" smooth="yes"/>
      <point x="578" y="1006"/>
      <point x="601" y="943"/>
      <point x="601" y="876" type="curve" smooth="yes"/>
      <point x="601" y="335" type="line" smooth="yes"/>
      <point x="601" y="260"/>
      <point x="581" y="195"/>
    </contour>
  </outline>
</glyph>
<glyph name="Dcroat" format="1">
  <advance width="1062"/>
  <unicode hex="0110"/>
  <outline>
    <contour>
      <point x="471" y="252" type="line"/>
      <point x="471" y="759" type="line"/>
      <point x="555" y="759" type="line"/>
      <point x="555" y="941" type="line"/>
      <point x="471" y="941" type="line"/>
      <point x="471" y="1404" type="line"/>
      <point x="527" y="1404" type="line" smooth="yes"/>
      <point x="692" y="1404"/>
      <point x="708" y="1345"/>
      <point x="708" y="1192" type="curve" smooth="yes"/>
      <point x="708" y="484" type="line" smooth="yes"/>
      <point x="708" y="326"/>
      <point x="698" y="252"/>
      <point x="529" y="252" type="curve" smooth="yes"/>
    </contour>
    <contour>
      <point x="108" y="0" type="line"/>
      <point x="529" y="0" type="line" smooth="yes"/>
      <point x="954" y="0"/>
      <point x="1080" y="160"/>
      <point x="1080" y="536" type="curve" smooth="yes"/>
      <point x="1080" y="1134" type="line" smooth="yes"/>
      <point x="1080" y="1505"/>
      <point x="956" y="1658"/>
      <point x="524" y="1658" type="curve" smooth="yes"/>
      <point x="108" y="1658" type="line"/>
      <point x="108" y="941" type="line"/>
      <point x="18" y="941" type="line"/>
      <point x="18" y="759" type="line"/>
      <point x="108" y="759" type="line"/>
    </contour>
  </outline>
</glyph>
<glyph name="gcommaaccent" format="1">
  <advance width="901"/>
  <unicode hex="0123"/>
  <outline>
    <contour>
      <point x="534" y="-361" type="curve" smooth="yes"/>
      <point x="864" y="-361"/>
      <point x="978" y="-227"/>
      <point x="978" y="-58" type="curve" smooth="yes"/>
      <point x="978" y="97"/>
      <point x="901" y="179"/>
      <point x="653" y="220" type="curve" smooth="yes"/>
      <point x="544" y="236"/>
      <point x="451" y="249"/>
      <point x="380" y="263" type="curve" smooth="yes"/>
      <point x="314" y="275"/>
      <point x="273" y="288"/>
      <point x="269" y="304" type="curve" smooth="yes"/>
      <point x="264" y="332"/>
      <point x="292" y="373"/>
      <point x="321" y="410" type="curve"/>
      <point x="377" y="386"/>
      <point x="451" y="370"/>
      <point x="528" y="370" type="curve" smooth="yes"/>
      <point x="797" y="370"/>
      <point x="927" y="530"/>
      <point x="927" y="775" type="curve" smooth="yes"/>
      <point x="927" y="891"/>
      <point x="893" y="965"/>
      <point x="863" y="1005" type="curve"/>
      <point x="928" y="1048"/>
      <point x="1019" y="1097"/>
      <point x="1059" y="1110" type="curve"/>
      <point x="983" y="1261" type="line"/>
      <point x="939" y="1239" type="line"/>
      <point x="882" y="1209"/>
      <point x="824" y="1156"/>
      <point x="778" y="1100" type="curve"/>
      <point x="722" y="1165"/>
      <point x="618" y="1206"/>
      <point x="500" y="1206" type="curve" smooth="yes"/>
      <point x="236" y="1206"/>
      <point x="74" y="1057"/>
      <point x="74" y="771" type="curve" smooth="yes"/>
      <point x="74" y="633"/>
      <point x="124" y="541"/>
      <point x="206" y="483" type="curve"/>
      <point x="122" y="415"/>
      <point x="35" y="332"/>
      <point x="55" y="233" type="curve" smooth="yes"/>
      <point x="66" y="183"/>
      <point x="115" y="148"/>
      <point x="217" y="109" type="curve"/>
      <point x="138" y="52"/>
      <point x="38" y="-31"/>
      <point x="38" y="-123" type="curve" smooth="yes"/>
      <point x="38" y="-334"/>
      <point x="347" y="-361"/>
    </contour>
    <contour>
      <point x="394" y="1483" type="line"/>
      <point x="702" y="1483" type="line"/>
      <point x="702" y="1792" type="line"/>
      <point x="529" y="1792" type="line"/>
      <point x="529" y="1907"/>
      <point x="600" y="1951"/>
      <point x="671" y="1974" type="curve"/>
      <point x="656" y="2071" type="line"/>
      <point x="481" y="2060"/>
      <point x="395" y="1947"/>
      <point x="394" y="1741" type="curve" smooth="yes"/>
    </contour>
    <contour>
      <point x="534" y="-169" type="curve" smooth="yes"/>
      <point x="410" y="-169"/>
      <point x="347" y="-137"/>
      <point x="347" y="-72" type="curve" smooth="yes"/>
      <point x="347" y="-24"/>
      <point x="384" y="23"/>
      <point x="415" y="59" type="curve"/>
      <point x="577" y="34" type="line" smooth="yes"/>
      <point x="691" y="14"/>
      <point x="729" y="-13"/>
      <point x="719" y="-88" type="curve" smooth="yes"/>
      <point x="713" y="-147"/>
      <point x="648" y="-169"/>
    </contour>
    <contour>
      <point x="508" y="559" type="curve" smooth="yes"/>
      <point x="415" y="559"/>
      <point x="405" y="656"/>
      <point x="405" y="789" type="curve" smooth="yes"/>
      <point x="405" y="912"/>
      <point x="409" y="1016"/>
      <point x="506" y="1016" type="curve" smooth="yes"/>
      <point x="603" y="1016"/>
      <point x="613" y="933"/>
      <point x="613" y="789" type="curve" smooth="yes"/>
      <point x="613" y="648"/>
      <point x="601" y="559"/>
    </contour>
  </outline>
</glyph>
<glyph name="Hbar" format="1">
  <advance width="1111"/>
  <unicode hex="0126"/>
  <outline>
    <contour>
      <point x="80" y="0" type="line"/>
      <point x="443" y="0" type="line"/>
      <point x="443" y="727" type="line"/>
      <point x="689" y="727" type="line"/>
      <point x="689" y="0" type="line"/>
      <point x="1053" y="0" type="line"/>
      <point x="1053" y="1258" type="line"/>
      <point x="1135" y="1258" type="line"/>
      <point x="1135" y="1375" type="line"/>
      <point x="1053" y="1375" type="line"/>
      <point x="1053" y="1658" type="line"/>
      <point x="689" y="1658" type="line"/>
      <point x="689" y="1375" type="line"/>
      <point x="443" y="1375" type="line"/>
      <point x="443" y="1658" type="line"/>
      <point x="80" y="1658" type="line"/>
      <point x="80" y="1375" type="line"/>
      <point x="-24" y="1375" type="line"/>
      <point x="-24" y="1258" type="line"/>
      <point x="80" y="1258" type="line"/>
    </contour>
    <contour>
      <point x="443" y="987" type="line"/>
      <point x="443" y="1258" type="line"/>
      <point x="689" y="1258" type="line"/>
      <point x="689" y="987" type="line"/>
    </contour>
  </outline>
</glyph>
<glyph name="hbar" format="1">
  <advance width="1024"/>
  <unicode hex="0127"/>
  <outline>
    <contour>
      <point x="94" y="0" type="line"/>
      <point x="425" y="0" type="line"/>
      <point x="425" y="924" type="line"/>
      <point x="465" y="951"/>
      <point x="503" y="967"/>
      <point x="533" y="968" type="curve" smooth="yes"/>
      <point x="586" y="969"/>
      <point x="599" y="936"/>
      <point x="599" y="880" type="curve" smooth="yes"/>
      <point x="599" y="0" type="line"/>
      <point x="930" y="0" type="line"/>
      <point x="930" y="930" type="line" smooth="yes"/>
      <point x="930" y="1083"/>
      <point x="859" y="1204"/>
      <point x="714" y="1204" type="curve" smooth="yes"/>
      <point x="607" y="1204"/>
      <point x="513" y="1165"/>
      <point x="425" y="1078" type="curve"/>
      <point x="425" y="1376" type="line"/>
      <point x="665" y="1376" type="line"/>
      <point x="665" y="1529" type="line"/>
      <point x="425" y="1529" type="line"/>
      <point x="425" y="1658" type="line"/>
      <point x="94" y="1658" type="line"/>
      <point x="94" y="1529" type="line"/>
      <point x="-4" y="1529" type="line"/>
      <point x="-4" y="1376" type="line"/>
      <point x="94" y="1376" type="line"/>
    </contour>
  </outline>
</glyph>
<glyph name="kgreenlandic" format="1">
  <advance width="1026"/>
  <unicode hex="0138"/>
  <outline>
    <contour>
      <point x="95" y="0" type="line"/>
      <point x="426" y="0" type="line"/>
      <point x="426" y="465" type="line"/>
      <point x="484" y="547" type="line"/>
      <point x="668" y="0" type="line"/>
      <point x="1016" y="0" type="line"/>
      <point x="769" y="661" type="line"/>
      <point x="1011" y="1184" type="line"/>
      <point x="656" y="1184" type="line"/>
      <point x="426" y="693" type="line"/>
      <point x="426" y="1184" type="line"/>
      <point x="95" y="1184" type="line"/>
    </contour>
  </outline>
</glyph>
<glyph name="Lslash" format="1">
  <advance width="918"/>
  <unicode hex="0141"/>
  <outline>
    <contour>
      <point x="137" y="0" type="line"/>
      <point x="881" y="0" type="line"/>
      <point x="881" y="246" type="line"/>
      <point x="501" y="246" type="line"/>
      <point x="501" y="906" type="line"/>
      <point x="702" y="1004" type="line"/>
      <point x="702" y="1207" type="line"/>
      <point x="501" y="1109" type="line"/>
      <point x="501" y="1658" type="line"/>
      <point x="137" y="1658" type="line"/>
      <point x="137" y="936" type="line"/>
      <point x="14" y="876" type="line"/>
      <point x="14" y="673" type="line"/>
      <point x="137" y="733" type="line"/>
    </contour>
  </outline>
</glyph>
<glyph name="lslash" format="1">
  <advance width="677"/>
  <unicode hex="0142"/>
  <outline>
    <contour>
      <point x="176" y="0" type="line"/>
      <point x="507" y="0" type="line"/>
      <point x="507" y="986" type="line"/>
      <point x="662" y="1053" type="line"/>
      <point x="662" y="1241" type="line"/>
      <point x="507" y="1175" type="line"/>
      <point x="507" y="1658" type="line"/>
      <point x="176" y="1658" type="line"/>
      <point x="176" y="1033" type="line"/>
      <point x="40" y="974" type="line"/>
      <point x="40" y="784" type="line"/>
      <point x="176" y="843" type="line"/>
    </contour>
  </outline>
</glyph>
<glyph name="Eng" format="1">
  <advance width="1120"/>
  <unicode hex="014A"/>
  <outline>
    <contour>
      <point x="481" y="-428" type="line"/>
      <point x="629" y="-428" type="line" smooth="yes"/>
      <point x="934" y="-428"/>
      <point x="1007" y="-280"/>
      <point x="1007" y="0" type="curve" smooth="yes"/>
      <point x="1007" y="1658" type="line"/>
      <point x="706" y="1658" type="line"/>
      <point x="706" y="855" type="line"/>
      <point x="362" y="1658" type="line"/>
      <point x="106" y="1658" type="line"/>
      <point x="106" y="0" type="line"/>
      <point x="417" y="0" type="line"/>
      <point x="417" y="864" type="line"/>
      <point x="699" y="161" type="line"/>
      <point x="699" y="-26" type="line" smooth="yes"/>
      <point x="699" y="-164"/>
      <point x="666" y="-213"/>
      <point x="481" y="-211" type="curve"/>
    </contour>
  </outline>
</glyph>
<glyph name="eng" format="1">
  <advance width="966"/>
  <unicode hex="014B"/>
  <outline>
    <contour>
      <point x="361" y="-400" type="line"/>
      <point x="481" y="-400" type="line" smooth="yes"/>
      <point x="806" y="-400"/>
      <point x="920" y="-289"/>
      <point x="920" y="-12" type="curve" smooth="yes"/>
      <point x="920" y="930" type="line" smooth="yes"/>
      <point x="920" y="1083"/>
      <point x="849" y="1204"/>
      <point x="704" y="1204" type="curve" smooth="yes"/>
      <point x="598" y="1204"/>
      <point x="505" y="1166"/>
      <point x="417" y="1080" type="curve"/>
      <point x="417" y="1184" type="line"/>
      <point x="86" y="1184" type="line"/>
      <point x="86" y="0" type="line"/>
      <point x="417" y="0" type="line"/>
      <point x="417" y="926" type="line"/>
      <point x="456" y="952"/>
      <point x="493" y="967"/>
      <point x="522" y="968" type="curve" smooth="yes"/>
      <point x="576" y="969"/>
      <point x="589" y="936"/>
      <point x="589" y="880" type="curve" smooth="yes"/>
      <point x="589" y="-10" type="line" smooth="yes"/>
      <point x="589" y="-150"/>
      <point x="551" y="-190"/>
      <point x="361" y="-190" type="curve"/>
    </contour>
  </outline>
</glyph>
<glyph name="OE" format="1">
  <advance width="1457"/>
  <unicode hex="0152"/>
  <outline>
    <contour>
      <point x="591" y="0" type="curve" smooth="yes"/>
      <point x="1404" y="0" type="line"/>
      <point x="1404" y="246" type="line"/>
      <point x="1055" y="246" type="line"/>
      <point x="1055" y="729" type="line"/>
      <point x="1313" y="729" type="line"/>
      <point x="1313" y="983" type="line"/>
      <point x="1055" y="983" type="line"/>
      <point x="1055" y="1405" type="line"/>
      <point x="1402" y="1405" type="line"/>
      <point x="1402" y="1652" type="line"/>
      <point x="586" y="1652" type="line"/>
      <point x="208" y="1652"/>
      <point x="85" y="1405"/>
      <point x="85" y="1065" type="curve" smooth="yes"/>
      <point x="85" y="567" type="line" smooth="yes"/>
      <point x="85" y="218"/>
      <point x="213" y="0"/>
    </contour>
    <contour>
      <point x="593" y="251" type="line"/>
      <point x="458" y="250"/>
      <point x="449" y="374"/>
      <point x="449" y="503" type="curve" smooth="yes"/>
      <point x="449" y="1123" type="line" smooth="yes"/>
      <point x="449" y="1255"/>
      <point x="452" y="1395"/>
      <point x="591" y="1395" type="curve" smooth="yes"/>
      <point x="692" y="1395" type="line"/>
      <point x="692" y="251" type="line"/>
    </contour>
  </outline>
</glyph>
<glyph name="oe" format="1">
  <advance width="1447"/>
  <unicode hex="0153"/>
  <outline>
    <contour>
      <point x="437" y="-25" type="curve" smooth="yes"/>
      <point x="592" y="-25"/>
      <point x="683" y="36"/>
      <point x="730" y="119" type="curve"/>
      <point x="770" y="29"/>
      <point x="874" y="-24"/>
      <point x="1017" y="-26" type="curve" smooth="yes"/>
      <point x="1249" y="-29"/>
      <point x="1371" y="99"/>
      <point x="1371" y="312" type="curve" smooth="yes"/>
      <point x="1371" y="463" type="line"/>
      <point x="1059" y="463" type="line"/>
      <point x="1059" y="311" type="line" smooth="yes"/>
      <point x="1059" y="226"/>
      <point x="1043" y="182"/>
      <point x="989" y="184" type="curve" smooth="yes"/>
      <point x="927" y="186"/>
      <point x="918" y="279"/>
      <point x="918" y="371" type="curve" smooth="yes"/>
      <point x="918" y="570" type="line"/>
      <point x="1371" y="570" type="line"/>
      <point x="1371" y="810" type="line" smooth="yes"/>
      <point x="1371" y="1060"/>
      <point x="1282" y="1231"/>
      <point x="1012" y="1231" type="curve" smooth="yes"/>
      <point x="910" y="1231"/>
      <point x="778" y="1181"/>
      <point x="737" y="1082" type="curve"/>
      <point x="698" y="1180"/>
      <point x="564" y="1231"/>
      <point x="457" y="1231" type="curve" smooth="yes"/>
      <point x="231" y="1231"/>
      <point x="86" y="1111"/>
      <point x="86" y="867" type="curve" smooth="yes"/>
      <point x="86" y="358" type="line" smooth="yes"/>
      <point x="86" y="100"/>
      <point x="237" y="-25"/>
    </contour>
    <contour>
      <point x="488" y="184" type="curve" smooth="yes"/>
      <point x="430" y="184"/>
      <point x="412" y="255"/>
      <point x="412" y="350" type="curve" smooth="yes"/>
      <point x="412" y="882" type="line" smooth="yes"/>
      <point x="412" y="977"/>
      <point x="438" y="1025"/>
      <point x="492" y="1025" type="curve" smooth="yes"/>
      <point x="548" y="1025"/>
      <point x="572" y="975"/>
      <point x="572" y="882" type="curve" smooth="yes"/>
      <point x="572" y="350" type="line" smooth="yes"/>
      <point x="572" y="227"/>
      <point x="543" y="184"/>
    </contour>
    <contour>
      <point x="918" y="745" type="line"/>
      <point x="918" y="895" type="line" smooth="yes"/>
      <point x="918" y="971"/>
      <point x="944" y="1024"/>
      <point x="989" y="1024" type="curve" smooth="yes"/>
      <point x="1035" y="1024"/>
      <point x="1063" y="966"/>
      <point x="1063" y="895" type="curve" smooth="yes"/>
      <point x="1063" y="745" type="line"/>
    </contour>
  </outline>
</glyph>
<glyph name="tbar" format="1">
  <advance width="615"/>
  <unicode hex="0167"/>
  <outline>
    <contour>
      <point x="442" y="-14" type="curve" smooth="yes"/>
      <point x="510" y="-14"/>
      <point x="597" y="-14"/>
      <point x="661" y="3" type="curve"/>
      <point x="661" y="264" type="line"/>
      <point x="631" y="260"/>
      <point x="587" y="259"/>
      <point x="558" y="259" type="curve" smooth="yes"/>
      <point x="495" y="259"/>
      <point x="472" y="285"/>
      <point x="472" y="339" type="curve" smooth="yes"/>
      <point x="472" y="615" type="line"/>
      <point x="635" y="615" type="line"/>
      <point x="635" y="789" type="line"/>
      <point x="472" y="789" type="line"/>
      <point x="472" y="955" type="line"/>
      <point x="636" y="955" type="line"/>
      <point x="636" y="1184" type="line"/>
      <point x="472" y="1184" type="line"/>
      <point x="472" y="1542" type="line"/>
      <point x="137" y="1542" type="line"/>
      <point x="137" y="1184" type="line"/>
      <point x="24" y="1184" type="line"/>
      <point x="24" y="955" type="line"/>
      <point x="137" y="955" type="line"/>
      <point x="137" y="789" type="line"/>
      <point x="17" y="789" type="line"/>
      <point x="17" y="615" type="line"/>
      <point x="137" y="615" type="line"/>
      <point x="137" y="410" type="line" smooth="yes"/>
      <point x="138" y="189"/>
      <point x="181" y="-14"/>
    </contour>
  </outline>
</glyph>
<glyph name="florin" format="1">
  <advance width="935"/>
  <unicode hex="0192"/>
  <outline>
    <contour>
      <point x="199" y="-360" type="curve" smooth="yes"/>
      <point x="485" y="-360"/>
      <point x="537" y="-224"/>
      <point x="559" y="-13" type="curve" smooth="yes"/>
      <point x="659" y="950" type="line"/>
      <point x="815" y="950" type="line"/>
      <point x="815" y="1184" type="line"/>
      <point x="683" y="1184" type="line"/>
      <point x="692" y="1277" type="line" smooth="yes"/>
      <point x="698" y="1341"/>
      <point x="730" y="1370"/>
      <point x="782" y="1370" type="curve" smooth="yes"/>
      <point x="806" y="1370"/>
      <point x="832" y="1363"/>
      <point x="852" y="1361" type="curve"/>
      <point x="877" y="1607" type="line"/>
      <point x="817" y="1614"/>
      <point x="771" y="1617"/>
      <point x="720" y="1617" type="curve" smooth="yes"/>
      <point x="435" y="1617"/>
      <point x="381" y="1480"/>
      <point x="360" y="1270" type="curve" smooth="yes"/>
      <point x="352" y="1184" type="line"/>
      <point x="211" y="1184" type="line"/>
      <point x="211" y="950" type="line"/>
      <point x="327" y="950" type="line"/>
      <point x="227" y="-19" type="line" smooth="yes"/>
      <point x="221" y="-84"/>
      <point x="189" y="-113"/>
      <point x="137" y="-113" type="curve" smooth="yes"/>
      <point x="114" y="-113"/>
      <point x="86" y="-107"/>
      <point x="67" y="-103" type="curve"/>
      <point x="42" y="-349" type="line"/>
      <point x="102" y="-356"/>
      <point x="148" y="-360"/>
    </contour>
  </outline>
</glyph>
<glyph name="uni0237" format="1">
  <advance width="549"/>
  <unicode hex="0237"/>
  <outline>
    <contour>
      <point x="-24" y="-347" type="line"/>
      <point x="30" y="-362"/>
      <point x="90" y="-373"/>
      <point x="152" y="-373" type="curve" smooth="yes"/>
      <point x="353" y="-373"/>
      <point x="458" y="-243"/>
      <point x="458" y="-56" type="curve" smooth="yes"/>
      <point x="458" y="1184" type="line"/>
      <point x="127" y="1184" type="line"/>
      <point x="127" y="-17" type="line" smooth="yes"/>
      <point x="127" y="-88"/>
      <point x="91" y="-117"/>
      <point x="35" y="-117" type="curve" smooth="yes"/>
      <point x="17" y="-117"/>
      <point x="-5" y="-113"/>
      <point x="-24" y="-109" type="curve"/>
    </contour>
  </outline>
</glyph>
<glyph name="circumflex" format="1">
  <advance width="826"/>
  <unicode hex="02C6"/>
  <outline>
    <contour>
      <point x="89" y="1268" type="line"/>
      <point x="332" y="1268" type="line"/>
      <point x="421" y="1510" type="line"/>
      <point x="511" y="1268" type="line"/>
      <point x="754" y="1268" type="line"/>
      <point x="556" y="1658" type="line"/>
      <point x="282" y="1658" type="line"/>
    </contour>
  </outline>
</glyph>
<glyph name="caron" format="1">
  <advance width="820"/>
  <unicode hex="02C7"/>
  <outline>
    <contour>
      <point x="248" y="1279" type="line"/>
      <point x="566" y="1279" type="line"/>
      <point x="748" y="1658" type="line"/>
      <point x="513" y="1658" type="line"/>
      <point x="408" y="1435" type="line"/>
      <point x="305" y="1658" type="line"/>
      <point x="71" y="1658" type="line"/>
    </contour>
  </outline>
</glyph>
<glyph name="breve" format="1">
  <advance width="668"/>
  <unicode hex="02D8"/>
  <outline>
    <contour>
      <point x="320" y="1399" type="curve" smooth="yes"/>
      <point x="492" y="1399"/>
      <point x="584" y="1496"/>
      <point x="584" y="1658" type="curve"/>
      <point x="438" y="1658" type="line"/>
      <point x="438" y="1574"/>
      <point x="408" y="1535"/>
      <point x="320" y="1535" type="curve" smooth="yes"/>
      <point x="233" y="1535"/>
      <point x="202" y="1573"/>
      <point x="202" y="1658" type="curve"/>
      <point x="56" y="1658" type="line"/>
      <point x="56" y="1496"/>
      <point x="149" y="1399"/>
    </contour>
  </outline>
</glyph>
<glyph name="ogonek" format="1">
  <advance width="539"/>
  <unicode hex="02DB"/>
  <outline>
    <contour>
      <point x="414" y="-513" type="curve"/>
      <point x="446" y="-352" type="line"/>
      <point x="387" y="-352"/>
      <point x="252" y="-363"/>
      <point x="252" y="-249" type="curve" smooth="yes"/>
      <point x="252" y="-156"/>
      <point x="309" y="-66"/>
      <point x="334" y="17" type="curve"/>
      <point x="184" y="17" type="line"/>
      <point x="92" y="-55"/>
      <point x="18" y="-183"/>
      <point x="18" y="-296" type="curve" smooth="yes"/>
      <point x="18" y="-510"/>
      <point x="252" y="-516"/>
    </contour>
  </outline>
</glyph>
<glyph name="tilde" format="1">
  <advance width="873"/>
  <unicode hex="02DC"/>
  <outline>
    <contour>
      <point x="631" y="1370" type="curve" smooth="yes"/>
      <point x="751" y="1378"/>
      <point x="770" y="1522"/>
      <point x="769" y="1658" type="curve"/>
      <point x="621" y="1658" type="line"/>
      <point x="621" y="1612"/>
      <point x="608" y="1575"/>
      <point x="564" y="1582" type="curve" smooth="yes"/>
      <point x="513" y="1588"/>
      <point x="410" y="1680"/>
      <point x="290" y="1671" type="curve" smooth="yes"/>
      <point x="150" y="1661"/>
      <point x="119" y="1548"/>
      <point x="119" y="1383" type="curve"/>
      <point x="279" y="1383" type="line"/>
      <point x="279" y="1425"/>
      <point x="290" y="1466"/>
      <point x="335" y="1466" type="curve" smooth="yes"/>
      <point x="406" y="1466"/>
      <point x="532" y="1363"/>
    </contour>
  </outline>
</glyph>
<glyph name="hungarumlaut" format="1">
  <advance width="889"/>
  <unicode hex="02DD"/>
  <outline>
    <contour>
      <point x="101" y="1219" type="line"/>
      <point x="270" y="1219" type="line"/>
      <point x="488" y="1658" type="line"/>
      <point x="219" y="1658" type="line"/>
    </contour>
    <contour>
      <point x="460" y="1219" type="line"/>
      <point x="633" y="1219" type="line"/>
      <point x="881" y="1658" type="line"/>
      <point x="591" y="1658" type="line"/>
    </contour>
  </outline>
</glyph>
<glyph name="uni0304" format="1">
  <advance width="372"/>
  <unicode hex="0304"/>
  <outline>
    <contour>
      <point x="-62" y="1502" type="line"/>
      <point x="451" y="1502" type="line"/>
      <point x="451" y="1658" type="line"/>
      <point x="-62" y="1658" type="line"/>
    </contour>
  </outline>
</glyph>
<glyph name="uni030A" format="1">
  <advance width="177"/>
  <unicode hex="030A"/>
  <outline>
    <contour>
      <point x="83" y="1227" type="curve" smooth="yes"/>
      <point x="215" y="1227"/>
      <point x="324" y="1307"/>
      <point x="324" y="1455" type="curve" smooth="yes"/>
      <point x="324" y="1603"/>
      <point x="214" y="1682"/>
      <point x="83" y="1682" type="curve" smooth="yes"/>
      <point x="-49" y="1682"/>
      <point x="-157" y="1604"/>
      <point x="-157" y="1455" type="curve" smooth="yes"/>
      <point x="-157" y="1307"/>
      <point x="-49" y="1227"/>
    </contour>
    <contour>
      <point x="83" y="1346" type="curve" smooth="yes"/>
      <point x="15" y="1346"/>
      <point x="-21" y="1396"/>
      <point x="-21" y="1455" type="curve" smooth="yes"/>
      <point x="-21" y="1514"/>
      <point x="15" y="1564"/>
      <point x="83" y="1564" type="curve" smooth="yes"/>
      <point x="150" y="1564"/>
      <point x="184" y="1514"/>
      <point x="184" y="1455" type="curve" smooth="yes"/>
      <point x="184" y="1396"/>
      <point x="150" y="1346"/>
    </contour>
  </outline>
</glyph>
<glyph name="uni030C" format="1">
  <advance width="608"/>
  <unicode hex="030C"/>
  <outline>
    <contour>
      <point x="169" y="1279" type="line"/>
      <point x="487" y="1279" type="line"/>
      <point x="669" y="1658" type="line"/>
      <point x="434" y="1658" type="line"/>
      <point x="329" y="1435" type="line"/>
      <point x="226" y="1658" type="line"/>
      <point x="-8" y="1658" type="line"/>
    </contour>
  </outline>
</glyph>
<glyph name="uni030F" format="1">
  <advance width="885"/>
  <unicode hex="030F"/>
  <outline>
    <contour>
      <point x="275" y="1275" type="line"/>
      <point x="454" y="1275" type="line"/>
      <point x="324" y="1696" type="line"/>
      <point x="67" y="1696" type="line"/>
    </contour>
    <contour>
      <point x="629" y="1275" type="line"/>
      <point x="806" y="1275" type="line"/>
      <point x="686" y="1696" type="line"/>
      <point x="445" y="1696" type="line"/>
    </contour>
  </outline>
</glyph>
<glyph name="uni0311" format="1">
  <advance width="668"/>
  <unicode hex="0311"/>
  <outline>
    <contour>
      <point x="56" y="1399" type="curve"/>
      <point x="202" y="1399" type="line"/>
      <point x="202" y="1483"/>
      <point x="233" y="1522"/>
      <point x="320" y="1522" type="curve" smooth="yes"/>
      <point x="408" y="1522"/>
      <point x="438" y="1484"/>
      <point x="438" y="1399" type="curve"/>
      <point x="584" y="1399" type="line"/>
      <point x="584" y="1561"/>
      <point x="491" y="1658"/>
      <point x="320" y="1658" type="curve" smooth="yes"/>
      <point x="148" y="1658"/>
      <point x="56" y="1561"/>
    </contour>
  </outline>
</glyph>
<glyph name="uni0326" format="1">
  <advance width="411"/>
  <unicode hex="0326"/>
  <outline>
    <contour>
      <point x="99" y="-653" type="line"/>
      <point x="279" y="-652"/>
      <point x="354" y="-536"/>
      <point x="355" y="-336" type="curve" smooth="yes"/>
      <point x="356" y="-69" type="line"/>
      <point x="43" y="-69" type="line"/>
      <point x="43" y="-379" type="line"/>
      <point x="214" y="-379" type="line"/>
      <point x="214" y="-495"/>
      <point x="147" y="-529"/>
      <point x="70" y="-540" type="curve"/>
    </contour>
  </outline>
</glyph>
<glyph name="afii10051" format="1">
  <advance width="1098"/>
  <unicode hex="0402"/>
  <outline>
    <contour>
      <point x="453" y="-400" type="line"/>
      <point x="573" y="-400" type="line" smooth="yes"/>
      <point x="898" y="-400"/>
      <point x="1012" y="-289"/>
      <point x="1012" y="-12" type="curve" smooth="yes"/>
      <point x="1012" y="758" type="line" smooth="yes"/>
      <point x="1012" y="883"/>
      <point x="941" y="982"/>
      <point x="796" y="982" type="curve" smooth="yes"/>
      <point x="691" y="982"/>
      <point x="599" y="951"/>
      <point x="511" y="882" type="curve"/>
      <point x="511" y="1389" type="line"/>
      <point x="750" y="1389" type="line"/>
      <point x="750" y="1658" type="line"/>
      <point x="-90" y="1658" type="line"/>
      <point x="-90" y="1389" type="line"/>
      <point x="150" y="1389" type="line"/>
      <point x="150" y="0" type="line"/>
      <point x="511" y="0" type="line"/>
      <point x="511" y="756" type="line"/>
      <point x="550" y="776"/>
      <point x="586" y="788"/>
      <point x="615" y="789" type="curve" smooth="yes"/>
      <point x="668" y="790"/>
      <point x="681" y="763"/>
      <point x="681" y="717" type="curve" smooth="yes"/>
      <point x="681" y="-10" type="line" smooth="yes"/>
      <point x="681" y="-150"/>
      <point x="643" y="-190"/>
      <point x="453" y="-190" type="curve"/>
    </contour>
  </outline>
</glyph>
<glyph name="afii10057" format="1">
  <advance width="665"/>
  <unicode hex="0408"/>
  <outline>
    <contour>
      <point x="9" y="-40" type="line"/>
      <point x="185" y="-40" type="line" smooth="yes"/>
      <point x="485" y="-40"/>
      <point x="568" y="97"/>
      <point x="573" y="369" type="curve"/>
      <point x="573" y="1658" type="line"/>
      <point x="210" y="1658" type="line"/>
      <point x="210" y="383" type="line" smooth="yes"/>
      <point x="210" y="240"/>
      <point x="160" y="211"/>
      <point x="9" y="214" type="curve"/>
    </contour>
  </outline>
</glyph>
<glyph name="afii10058" format="1">
  <advance width="1755"/>
  <unicode hex="0409"/>
  <outline>
    <contour>
      <point x="29" y="0" type="line"/>
      <point x="166" y="0" type="line" smooth="yes"/>
      <point x="485" y="0"/>
      <point x="549" y="264"/>
      <point x="569" y="602" type="curve" smooth="yes"/>
      <point x="609" y="1383" type="line"/>
      <point x="787" y="1383" type="line"/>
      <point x="787" y="0" type="line"/>
      <point x="1179" y="0" type="line" smooth="yes"/>
      <point x="1476" y="0"/>
      <point x="1706" y="79"/>
      <point x="1706" y="481" type="curve" smooth="yes"/>
      <point x="1706" y="818"/>
      <point x="1528" y="959"/>
      <point x="1209" y="959" type="curve" smooth="yes"/>
      <point x="1151" y="959" type="line"/>
      <point x="1151" y="1658" type="line"/>
      <point x="279" y="1658" type="line"/>
      <point x="216" y="602" type="line" smooth="yes"/>
      <point x="199" y="326"/>
      <point x="170" y="252"/>
      <point x="29" y="254" type="curve"/>
    </contour>
    <contour>
      <point x="1151" y="240" type="line"/>
      <point x="1151" y="707" type="line"/>
      <point x="1177" y="707" type="line" smooth="yes"/>
      <point x="1329" y="707"/>
      <point x="1366" y="615"/>
      <point x="1369" y="488" type="curve" smooth="yes"/>
      <point x="1373" y="312"/>
      <point x="1321" y="240"/>
      <point x="1181" y="240" type="curve" smooth="yes"/>
    </contour>
  </outline>
</glyph>
<glyph name="afii10059" format="1">
  <advance width="1663"/>
  <unicode hex="040A"/>
  <outline>
    <contour>
      <point x="1094" y="0" type="line"/>
      <point x="1391" y="0"/>
      <point x="1621" y="79"/>
      <point x="1621" y="481" type="curve" smooth="yes"/>
      <point x="1621" y="818"/>
      <point x="1443" y="959"/>
      <point x="1125" y="959" type="curve" smooth="yes"/>
      <point x="1071" y="959" type="line"/>
      <point x="1071" y="1660" type="line"/>
      <point x="707" y="1660" type="line"/>
      <point x="707" y="980" type="line"/>
      <point x="470" y="980" type="line"/>
      <point x="470" y="1660" type="line"/>
      <point x="106" y="1660" type="line"/>
      <point x="106" y="1" type="line"/>
      <point x="470" y="1" type="line"/>
      <point x="470" y="705" type="line"/>
      <point x="707" y="705" type="line"/>
      <point x="707" y="1" type="line"/>
    </contour>
    <contour>
      <point x="1071" y="240" type="line"/>
      <point x="1071" y="707" type="line"/>
      <point x="1092" y="707" type="line" smooth="yes"/>
      <point x="1245" y="707"/>
      <point x="1282" y="615"/>
      <point x="1284" y="488" type="curve" smooth="yes"/>
      <point x="1289" y="312"/>
      <point x="1237" y="240"/>
      <point x="1096" y="240" type="curve" smooth="yes"/>
    </contour>
  </outline>
</glyph>
<glyph name="afii10060" format="1">
  <advance width="1098"/>
  <unicode hex="040B"/>
  <outline>
    <contour>
      <point x="150" y="0" type="line"/>
      <point x="511" y="0" type="line"/>
      <point x="511" y="756" type="line"/>
      <point x="550" y="776"/>
      <point x="586" y="788"/>
      <point x="615" y="789" type="curve" smooth="yes"/>
      <point x="668" y="790"/>
      <point x="681" y="763"/>
      <point x="681" y="717" type="curve" smooth="yes"/>
      <point x="681" y="0" type="line"/>
      <point x="1012" y="0" type="line"/>
      <point x="1012" y="758" type="line" smooth="yes"/>
      <point x="1012" y="883"/>
      <point x="941" y="982"/>
      <point x="796" y="982" type="curve" smooth="yes"/>
      <point x="691" y="982"/>
      <point x="599" y="951"/>
      <point x="511" y="882" type="curve"/>
      <point x="511" y="1389" type="line"/>
      <point x="750" y="1389" type="line"/>
      <point x="750" y="1658" type="line"/>
      <point x="-90" y="1658" type="line"/>
      <point x="-90" y="1389" type="line"/>
      <point x="150" y="1389" type="line"/>
    </contour>
  </outline>
</glyph>
<glyph name="afii10145" format="1">
  <advance width="1193"/>
  <unicode hex="040F"/>
  <outline>
    <contour>
      <point x="469" y="-356" type="line"/>
      <point x="731" y="-356" type="line"/>
      <point x="746" y="0" type="line"/>
      <point x="1086" y="0" type="line"/>
      <point x="1086" y="1658" type="line"/>
      <point x="723" y="1658" type="line"/>
      <point x="723" y="275" type="line"/>
      <point x="470" y="275" type="line"/>
      <point x="470" y="1658" type="line"/>
      <point x="106" y="1658" type="line"/>
      <point x="106" y="0" type="line"/>
      <point x="455" y="0" type="line"/>
    </contour>
  </outline>
</glyph>
<glyph name="afii10017" format="1">
  <advance width="1058"/>
  <unicode hex="0410"/>
  <outline>
    <contour>
      <point x="26" y="0" type="line"/>
      <point x="369" y="0" type="line"/>
      <point x="426" y="353" type="line"/>
      <point x="671" y="353" type="line"/>
      <point x="729" y="0" type="line"/>
      <point x="1064" y="0" type="line"/>
      <point x="750" y="1658" type="line"/>
      <point x="341" y="1658" type="line"/>
    </contour>
    <contour>
      <point x="458" y="572" type="line"/>
      <point x="547" y="1216" type="line"/>
      <point x="637" y="572" type="line"/>
    </contour>
  </outline>
</glyph>
<glyph name="afii10018" format="1">
  <advance width="1054"/>
  <unicode hex="0411"/>
  <outline>
    <contour>
      <point x="99" y="0" type="line"/>
      <point x="503" y="0" type="line" smooth="yes"/>
      <point x="801" y="0"/>
      <point x="1030" y="79"/>
      <point x="1030" y="481" type="curve" smooth="yes"/>
      <point x="1030" y="818"/>
      <point x="852" y="959"/>
      <point x="534" y="959" type="curve" smooth="yes"/>
      <point x="463" y="959" type="line"/>
      <point x="463" y="1383" type="line"/>
      <point x="919" y="1383" type="line"/>
      <point x="919" y="1658" type="line"/>
      <point x="99" y="1658" type="line"/>
    </contour>
    <contour>
      <point x="463" y="240" type="line"/>
      <point x="463" y="707" type="line"/>
      <point x="501" y="707" type="line" smooth="yes"/>
      <point x="654" y="707"/>
      <point x="691" y="615"/>
      <point x="694" y="488" type="curve" smooth="yes"/>
      <point x="698" y="312"/>
      <point x="646" y="240"/>
      <point x="505" y="240" type="curve" smooth="yes"/>
    </contour>
  </outline>
</glyph>
<glyph name="afii10020" format="1">
  <advance width="911"/>
  <unicode hex="0413"/>
  <outline>
    <contour>
      <point x="106" y="0" type="line"/>
      <point x="470" y="0" type="line"/>
      <point x="470" y="1389" type="line"/>
      <point x="867" y="1389" type="line"/>
      <point x="867" y="1658" type="line"/>
      <point x="106" y="1658" type="line"/>
    </contour>
  </outline>
</glyph>
<glyph name="afii10021" format="1">
  <advance width="1558"/>
  <unicode hex="0414"/>
  <outline>
    <contour>
      <point x="9" y="-356" type="line"/>
      <point x="262" y="-356" type="line"/>
      <point x="282" y="0" type="line"/>
      <point x="1240" y="0" type="line"/>
      <point x="1260" y="-356" type="line"/>
      <point x="1530" y="-356" type="line"/>
      <point x="1530" y="270" type="line"/>
      <point x="1242" y="270" type="line"/>
      <point x="1242" y="1658" type="line"/>
      <point x="417" y="1658" type="line"/>
      <point x="367" y="1135" type="line" smooth="yes"/>
      <point x="322" y="616"/>
      <point x="312" y="320"/>
      <point x="129" y="270" type="curve"/>
      <point x="9" y="270" type="line"/>
    </contour>
    <contour>
      <point x="549" y="270" type="line"/>
      <point x="615" y="426"/>
      <point x="642" y="677"/>
      <point x="677" y="1096" type="curve" smooth="yes"/>
      <point x="704" y="1380" type="line"/>
      <point x="887" y="1380" type="line"/>
      <point x="887" y="270" type="line"/>
    </contour>
  </outline>
</glyph>
<glyph name="afii10022" format="1">
  <advance width="878"/>
  <unicode hex="0415"/>
  <outline>
    <contour>
      <point x="106" y="0" type="line"/>
      <point x="839" y="0" type="line"/>
      <point x="839" y="246" type="line"/>
      <point x="470" y="246" type="line"/>
      <point x="470" y="743" type="line"/>
      <point x="746" y="743" type="line"/>
      <point x="746" y="997" type="line"/>
      <point x="470" y="997" type="line"/>
      <point x="470" y="1410" type="line"/>
      <point x="835" y="1410" type="line"/>
      <point x="835" y="1658" type="line"/>
      <point x="106" y="1658" type="line"/>
    </contour>
  </outline>
</glyph>
<glyph name="afii10025" format="1">
  <advance width="1047"/>
  <unicode hex="0417"/>
  <outline>
    <contour>
      <point x="549" y="-33" type="curve" smooth="yes"/>
      <point x="882" y="-33"/>
      <point x="1004" y="184"/>
      <point x="1004" y="485" type="curve" smooth="yes"/>
      <point x="1004" y="736"/>
      <point x="907" y="826"/>
      <point x="806" y="864" type="curve"/>
      <point x="913" y="889"/>
      <point x="1004" y="1033"/>
      <point x="1004" y="1237" type="curve" smooth="yes"/>
      <point x="1004" y="1530"/>
      <point x="833" y="1687"/>
      <point x="547" y="1687" type="curve" smooth="yes"/>
      <point x="263" y="1687"/>
      <point x="96" y="1522"/>
      <point x="96" y="1226" type="curve" smooth="yes"/>
      <point x="96" y="1125" type="line"/>
      <point x="431" y="1125" type="line"/>
      <point x="431" y="1217" type="line" smooth="yes"/>
      <point x="431" y="1347"/>
      <point x="461" y="1419"/>
      <point x="549" y="1419" type="curve" smooth="yes"/>
      <point x="641" y="1419"/>
      <point x="672" y="1346"/>
      <point x="672" y="1212" type="curve" smooth="yes"/>
      <point x="672" y="1033"/>
      <point x="639" y="947"/>
      <point x="486" y="947" type="curve" smooth="yes"/>
      <point x="423" y="947" type="line"/>
      <point x="423" y="736" type="line"/>
      <point x="492" y="736" type="line" smooth="yes"/>
      <point x="639" y="736"/>
      <point x="672" y="647"/>
      <point x="672" y="473" type="curve" smooth="yes"/>
      <point x="672" y="305"/>
      <point x="636" y="250"/>
      <point x="554" y="250" type="curve" smooth="yes"/>
      <point x="465" y="250"/>
      <point x="431" y="308"/>
      <point x="431" y="486" type="curve" smooth="yes"/>
      <point x="431" y="546" type="line"/>
      <point x="96" y="546" type="line"/>
      <point x="96" y="493" type="line" smooth="yes"/>
      <point x="96" y="183"/>
      <point x="194" y="-33"/>
    </contour>
  </outline>
</glyph>
<glyph name="afii10026" format="1">
  <advance width="1100"/>
  <unicode hex="0418"/>
  <outline>
    <contour>
      <point x="99" y="0" type="line"/>
      <point x="347" y="0" type="line"/>
      <point x="690" y="864" type="line"/>
      <point x="690" y="0" type="line"/>
      <point x="1000" y="0" type="line"/>
      <point x="1000" y="1658" type="line"/>
      <point x="747" y="1658" type="line"/>
      <point x="401" y="842" type="line"/>
      <point x="401" y="1658" type="line"/>
      <point x="99" y="1658" type="line"/>
    </contour>
  </outline>
</glyph>
<glyph name="afii10028" format="1">
  <advance width="1118"/>
  <unicode hex="041A"/>
  <outline>
    <contour>
      <point x="106" y="0" type="line"/>
      <point x="470" y="0" type="line"/>
      <point x="470" y="684" type="line"/>
      <point x="507" y="743" type="line"/>
      <point x="751" y="0" type="line"/>
      <point x="1122" y="0" type="line"/>
      <point x="798" y="909" type="line"/>
      <point x="1106" y="1658" type="line"/>
      <point x="752" y="1658" type="line"/>
      <point x="470" y="982" type="line"/>
      <point x="470" y="1658" type="line"/>
      <point x="106" y="1658" type="line"/>
    </contour>
  </outline>
</glyph>
<glyph name="afii10029" format="1">
  <advance width="1272"/>
  <unicode hex="041B"/>
  <outline>
    <contour>
      <point x="7" y="-3" type="line"/>
      <point x="472" y="44"/>
      <point x="512" y="226"/>
      <point x="589" y="1096" type="curve" smooth="yes"/>
      <point x="616" y="1380" type="line"/>
      <point x="803" y="1380" type="line"/>
      <point x="803" y="0" type="line"/>
      <point x="1166" y="0" type="line"/>
      <point x="1166" y="1658" type="line"/>
      <point x="324" y="1658" type="line"/>
      <point x="273" y="1135" type="line" smooth="yes"/>
      <point x="225" y="600"/>
      <point x="214" y="295"/>
      <point x="7" y="268" type="curve"/>
    </contour>
  </outline>
</glyph>
<glyph name="afii10032" format="1">
  <advance width="1137"/>
  <unicode hex="041E"/>
  <outline>
    <contour>
      <point x="583" y="234" type="curve" smooth="yes"/>
      <point x="466" y="234"/>
      <point x="457" y="335"/>
      <point x="457" y="435" type="curve" smooth="yes"/>
      <point x="457" y="1227" type="line" smooth="yes"/>
      <point x="457" y="1326"/>
      <point x="466" y="1424"/>
      <point x="583" y="1424" type="curve" smooth="yes"/>
      <point x="699" y="1424"/>
      <point x="711" y="1326"/>
      <point x="711" y="1227" type="curve" smooth="yes"/>
      <point x="711" y="435" type="line" smooth="yes"/>
      <point x="711" y="335"/>
      <point x="699" y="234"/>
    </contour>
    <contour>
      <point x="583" y="-23" type="curve" smooth="yes"/>
      <point x="955" y="-23"/>
      <point x="1083" y="181"/>
      <point x="1083" y="524" type="curve" smooth="yes"/>
      <point x="1083" y="1137" type="line" smooth="yes"/>
      <point x="1083" y="1479"/>
      <point x="955" y="1681"/>
      <point x="583" y="1681" type="curve" smooth="yes"/>
      <point x="210" y="1681"/>
      <point x="85" y="1481"/>
      <point x="85" y="1137" type="curve" smooth="yes"/>
      <point x="85" y="524" type="line" smooth="yes"/>
      <point x="85" y="180"/>
      <point x="210" y="-23"/>
    </contour>
  </outline>
</glyph>
<glyph name="afii10033" format="1">
  <advance width="1199"/>
  <unicode hex="041F"/>
  <outline>
    <contour>
      <point x="106" y="0" type="line"/>
      <point x="470" y="0" type="line"/>
      <point x="470" y="1398" type="line"/>
      <point x="730" y="1398" type="line"/>
      <point x="730" y="0" type="line"/>
      <point x="1093" y="0" type="line"/>
      <point x="1093" y="1658" type="line"/>
      <point x="106" y="1658" type="line"/>
    </contour>
  </outline>
</glyph>
<glyph name="afii10034" format="1">
  <advance width="1113"/>
  <unicode hex="0420"/>
  <outline>
    <contour>
      <point x="106" y="0" type="line"/>
      <point x="470" y="0" type="line"/>
      <point x="470" y="708" type="line"/>
      <point x="615" y="708" type="line" smooth="yes"/>
      <point x="883" y="708"/>
      <point x="1093" y="799"/>
      <point x="1093" y="1178" type="curve" smooth="yes"/>
      <point x="1093" y="1486"/>
      <point x="953" y="1658"/>
      <point x="656" y="1658" type="curve" smooth="yes"/>
      <point x="106" y="1658" type="line"/>
    </contour>
    <contour>
      <point x="470" y="961" type="line"/>
      <point x="470" y="1403" type="line"/>
      <point x="584" y="1403" type="line" smooth="yes"/>
      <point x="738" y="1403"/>
      <point x="752" y="1313"/>
      <point x="752" y="1184" type="curve" smooth="yes"/>
      <point x="752" y="1031"/>
      <point x="726" y="961"/>
      <point x="586" y="961" type="curve" smooth="yes"/>
    </contour>
  </outline>
</glyph>
<glyph name="afii10036" format="1">
  <advance width="865"/>
  <unicode hex="0422"/>
  <outline>
    <contour>
      <point x="251" y="0" type="line"/>
      <point x="615" y="0" type="line"/>
      <point x="615" y="1389" type="line"/>
      <point x="856" y="1389" type="line"/>
      <point x="856" y="1658" type="line"/>
      <point x="9" y="1658" type="line"/>
      <point x="9" y="1389" type="line"/>
      <point x="251" y="1389" type="line"/>
    </contour>
  </outline>
</glyph>
<glyph name="afii10038" format="1">
  <advance width="1527"/>
  <unicode hex="0424"/>
  <outline>
    <contour>
      <point x="615" y="1" type="line"/>
      <point x="910" y="1" type="line"/>
      <point x="910" y="195" type="line"/>
      <point x="960" y="193" type="line"/>
      <point x="1246" y="168"/>
      <point x="1442" y="342"/>
      <point x="1442" y="600" type="curve" smooth="yes"/>
      <point x="1442" y="1060" type="line" smooth="yes"/>
      <point x="1442" y="1317"/>
      <point x="1246" y="1489"/>
      <point x="949" y="1467" type="curve"/>
      <point x="910" y="1466" type="line"/>
      <point x="910" y="1659" type="line"/>
      <point x="615" y="1659" type="line"/>
      <point x="615" y="1465" type="line"/>
      <point x="567" y="1467" type="line"/>
      <point x="282" y="1489"/>
      <point x="85" y="1318"/>
      <point x="85" y="1060" type="curve" smooth="yes"/>
      <point x="85" y="600" type="line" smooth="yes"/>
      <point x="85" y="343"/>
      <point x="281" y="169"/>
      <point x="578" y="193" type="curve"/>
      <point x="615" y="194" type="line"/>
    </contour>
    <contour>
      <point x="584" y="417" type="curve" smooth="yes"/>
      <point x="446" y="414"/>
      <point x="405" y="489"/>
      <point x="405" y="596" type="curve" smooth="yes"/>
      <point x="405" y="1065" type="line" smooth="yes"/>
      <point x="405" y="1172"/>
      <point x="447" y="1253"/>
      <point x="582" y="1253" type="curve" smooth="yes"/>
      <point x="590" y="1254"/>
      <point x="606" y="1253"/>
      <point x="615" y="1252" type="curve"/>
      <point x="615" y="418" type="line"/>
      <point x="607" y="417"/>
      <point x="591" y="417"/>
    </contour>
    <contour>
      <point x="944" y="417" type="curve" smooth="yes"/>
      <point x="937" y="417"/>
      <point x="918" y="418"/>
      <point x="910" y="419" type="curve"/>
      <point x="910" y="1253" type="line"/>
      <point x="917" y="1253"/>
      <point x="934" y="1253"/>
      <point x="941" y="1253" type="curve" smooth="yes"/>
      <point x="1080" y="1252"/>
      <point x="1122" y="1171"/>
      <point x="1122" y="1064" type="curve" smooth="yes"/>
      <point x="1122" y="595" type="line" smooth="yes"/>
      <point x="1122" y="486"/>
      <point x="1078" y="414"/>
    </contour>
  </outline>
</glyph>
<glyph name="afii10040" format="1">
  <advance width="1397"/>
  <unicode hex="0426"/>
  <outline>
    <contour>
      <point x="1099" y="-356" type="line"/>
      <point x="1366" y="-356" type="line"/>
      <point x="1366" y="246" type="line"/>
      <point x="1118" y="246" type="line"/>
      <point x="1118" y="1658" type="line"/>
      <point x="755" y="1658" type="line"/>
      <point x="755" y="246" type="line"/>
      <point x="470" y="246" type="line"/>
      <point x="470" y="1658" type="line"/>
      <point x="106" y="1658" type="line"/>
      <point x="106" y="0" type="line"/>
      <point x="1079" y="0" type="line"/>
    </contour>
  </outline>
</glyph>
<glyph name="afii10041" format="1">
  <advance width="1206"/>
  <unicode hex="0427"/>
  <outline>
    <contour>
      <point x="736" y="0" type="line"/>
      <point x="1099" y="0" type="line"/>
      <point x="1099" y="1658" type="line"/>
      <point x="736" y="1658" type="line"/>
      <point x="736" y="932" type="line"/>
      <point x="698" y="926"/>
      <point x="664" y="923"/>
      <point x="633" y="923" type="curve" smooth="yes"/>
      <point x="454" y="923"/>
      <point x="438" y="997"/>
      <point x="438" y="1101" type="curve" smooth="yes"/>
      <point x="438" y="1658" type="line"/>
      <point x="82" y="1658" type="line"/>
      <point x="82" y="1100" type="line" smooth="yes"/>
      <point x="82" y="841"/>
      <point x="289" y="699"/>
      <point x="542" y="699" type="curve" smooth="yes"/>
      <point x="591" y="699"/>
      <point x="661" y="705"/>
      <point x="736" y="715" type="curve"/>
    </contour>
  </outline>
</glyph>
<glyph name="afii10042" format="1">
  <advance width="1641"/>
  <unicode hex="0428"/>
  <outline>
    <contour>
      <point x="106" y="0" type="line"/>
      <point x="1535" y="0" type="line"/>
      <point x="1535" y="1658" type="line"/>
      <point x="1191" y="1658" type="line"/>
      <point x="1191" y="275" type="line"/>
      <point x="996" y="275" type="line"/>
      <point x="996" y="1658" type="line"/>
      <point x="652" y="1658" type="line"/>
      <point x="652" y="275" type="line"/>
      <point x="450" y="275" type="line"/>
      <point x="450" y="1658" type="line"/>
      <point x="106" y="1658" type="line"/>
    </contour>
  </outline>
</glyph>
<glyph name="afii10043" format="1">
  <advance width="1867"/>
  <unicode hex="0429"/>
  <outline>
    <contour>
      <point x="1569" y="-356" type="line"/>
      <point x="1836" y="-356" type="line"/>
      <point x="1836" y="246" type="line"/>
      <point x="1536" y="246" type="line"/>
      <point x="1536" y="1658" type="line"/>
      <point x="1192" y="1658" type="line"/>
      <point x="1192" y="246" type="line"/>
      <point x="996" y="246" type="line"/>
      <point x="996" y="1658" type="line"/>
      <point x="652" y="1658" type="line"/>
      <point x="652" y="246" type="line"/>
      <point x="450" y="246" type="line"/>
      <point x="450" y="1658" type="line"/>
      <point x="106" y="1658" type="line"/>
      <point x="106" y="0" type="line"/>
      <point x="1548" y="0" type="line"/>
    </contour>
  </outline>
</glyph>
<glyph name="afii10044" format="1">
  <advance width="1203"/>
  <unicode hex="042A"/>
  <outline>
    <contour>
      <point x="233" y="0" type="line"/>
      <point x="654" y="0" type="line" smooth="yes"/>
      <point x="951" y="0"/>
      <point x="1180" y="79"/>
      <point x="1180" y="481" type="curve" smooth="yes"/>
      <point x="1180" y="818"/>
      <point x="1003" y="959"/>
      <point x="684" y="959" type="curve" smooth="yes"/>
      <point x="596" y="959" type="line"/>
      <point x="596" y="1658" type="line"/>
      <point x="-3" y="1658" type="line"/>
      <point x="-3" y="1409" type="line"/>
      <point x="233" y="1409" type="line"/>
    </contour>
    <contour>
      <point x="596" y="240" type="line"/>
      <point x="596" y="707" type="line"/>
      <point x="651" y="707" type="line" smooth="yes"/>
      <point x="804" y="707"/>
      <point x="841" y="615"/>
      <point x="844" y="488" type="curve" smooth="yes"/>
      <point x="848" y="312"/>
      <point x="796" y="240"/>
      <point x="656" y="240" type="curve" smooth="yes"/>
    </contour>
  </outline>
</glyph>
<glyph name="afii10045" format="1">
  <advance width="1619"/>
  <unicode hex="042B"/>
  <outline>
    <contour>
      <point x="104" y="0" type="line"/>
      <point x="513" y="0" type="line" smooth="yes"/>
      <point x="810" y="0"/>
      <point x="1040" y="79"/>
      <point x="1040" y="481" type="curve" smooth="yes"/>
      <point x="1040" y="818"/>
      <point x="862" y="959"/>
      <point x="543" y="959" type="curve" smooth="yes"/>
      <point x="467" y="959" type="line"/>
      <point x="467" y="1658" type="line"/>
      <point x="104" y="1658" type="line"/>
    </contour>
    <contour>
      <point x="467" y="240" type="line"/>
      <point x="467" y="707" type="line"/>
      <point x="511" y="707" type="line" smooth="yes"/>
      <point x="663" y="707"/>
      <point x="700" y="615"/>
      <point x="703" y="488" type="curve" smooth="yes"/>
      <point x="707" y="312"/>
      <point x="655" y="240"/>
      <point x="515" y="240" type="curve" smooth="yes"/>
    </contour>
    <contour>
      <point x="1181" y="0" type="line"/>
      <point x="1544" y="0" type="line"/>
      <point x="1544" y="1658" type="line"/>
      <point x="1181" y="1658" type="line"/>
    </contour>
  </outline>
</glyph>
<glyph name="afii10046" format="1">
  <advance width="1105"/>
  <unicode hex="042C"/>
  <outline>
    <contour>
      <point x="106" y="0" type="line"/>
      <point x="513" y="0" type="line" smooth="yes"/>
      <point x="810" y="0"/>
      <point x="1040" y="79"/>
      <point x="1040" y="481" type="curve" smooth="yes"/>
      <point x="1040" y="818"/>
      <point x="862" y="959"/>
      <point x="544" y="959" type="curve" smooth="yes"/>
      <point x="470" y="959" type="line"/>
      <point x="470" y="1658" type="line"/>
      <point x="106" y="1658" type="line"/>
    </contour>
    <contour>
      <point x="470" y="240" type="line"/>
      <point x="470" y="707" type="line"/>
      <point x="511" y="707" type="line" smooth="yes"/>
      <point x="664" y="707"/>
      <point x="701" y="615"/>
      <point x="703" y="488" type="curve" smooth="yes"/>
      <point x="708" y="312"/>
      <point x="656" y="240"/>
      <point x="515" y="240" type="curve" smooth="yes"/>
    </contour>
  </outline>
</glyph>
<glyph name="afii10047" format="1">
  <advance width="1149"/>
  <unicode hex="042D"/>
  <outline>
    <contour>
      <point x="568" y="-17" type="curve" smooth="yes"/>
      <point x="945" y="-17"/>
      <point x="1064" y="195"/>
      <point x="1064" y="542" type="curve" smooth="yes"/>
      <point x="1064" y="1132" type="line" smooth="yes"/>
      <point x="1064" y="1469"/>
      <point x="945" y="1688"/>
      <point x="568" y="1688" type="curve" smooth="yes"/>
      <point x="197" y="1688"/>
      <point x="92" y="1477"/>
      <point x="92" y="1192" type="curve" smooth="yes"/>
      <point x="92" y="1111" type="line"/>
      <point x="447" y="1111" type="line"/>
      <point x="447" y="1222" type="line" smooth="yes"/>
      <point x="447" y="1325"/>
      <point x="449" y="1431"/>
      <point x="567" y="1431" type="curve" smooth="yes"/>
      <point x="674" y="1431"/>
      <point x="695" y="1343"/>
      <point x="695" y="1222" type="curve" smooth="yes"/>
      <point x="695" y="925" type="line"/>
      <point x="452" y="925" type="line"/>
      <point x="452" y="740" type="line"/>
      <point x="695" y="740" type="line"/>
      <point x="695" y="452" type="line" smooth="yes"/>
      <point x="695" y="346"/>
      <point x="686" y="241"/>
      <point x="567" y="241" type="curve" smooth="yes"/>
      <point x="447" y="241"/>
      <point x="447" y="344"/>
      <point x="447" y="443" type="curve" smooth="yes"/>
      <point x="447" y="550" type="line"/>
      <point x="92" y="550" type="line"/>
      <point x="92" y="463" type="line" smooth="yes"/>
      <point x="92" y="179"/>
      <point x="202" y="-17"/>
    </contour>
  </outline>
</glyph>
<glyph name="afii10048" format="1">
  <advance width="1638"/>
  <unicode hex="042E"/>
  <outline>
    <contour>
      <point x="1094" y="-23" type="curve" smooth="yes"/>
      <point x="1446" y="-23"/>
      <point x="1556" y="201"/>
      <point x="1556" y="544" type="curve" smooth="yes"/>
      <point x="1556" y="1117" type="line" smooth="yes"/>
      <point x="1556" y="1459"/>
      <point x="1446" y="1681"/>
      <point x="1094" y="1681" type="curve" smooth="yes"/>
      <point x="743" y="1681"/>
      <point x="633" y="1461"/>
      <point x="633" y="1117" type="curve" smooth="yes"/>
      <point x="633" y="976" type="line"/>
      <point x="467" y="976" type="line"/>
      <point x="467" y="1658" type="line"/>
      <point x="104" y="1658" type="line"/>
      <point x="104" y="0" type="line"/>
      <point x="467" y="0" type="line"/>
      <point x="467" y="708" type="line"/>
      <point x="633" y="708" type="line"/>
      <point x="633" y="544" type="line" smooth="yes"/>
      <point x="633" y="200"/>
      <point x="743" y="-23"/>
    </contour>
    <contour>
      <point x="1094" y="234" type="curve" smooth="yes"/>
      <point x="984" y="234"/>
      <point x="972" y="335"/>
      <point x="972" y="435" type="curve" smooth="yes"/>
      <point x="972" y="1227" type="line" smooth="yes"/>
      <point x="972" y="1326"/>
      <point x="984" y="1424"/>
      <point x="1094" y="1424" type="curve" smooth="yes"/>
      <point x="1204" y="1424"/>
      <point x="1216" y="1326"/>
      <point x="1216" y="1227" type="curve" smooth="yes"/>
      <point x="1216" y="435" type="line" smooth="yes"/>
      <point x="1216" y="335"/>
      <point x="1204" y="234"/>
    </contour>
  </outline>
</glyph>
<glyph name="afii10049" format="1">
  <advance width="1164"/>
  <unicode hex="042F"/>
  <outline>
    <contour>
      <point x="77" y="0" type="line"/>
      <point x="444" y="0" type="line"/>
      <point x="584" y="724" type="line"/>
      <point x="585" y="724"/>
      <point x="615" y="724"/>
      <point x="616" y="724" type="curve"/>
      <point x="701" y="724" type="line"/>
      <point x="701" y="0" type="line"/>
      <point x="1064" y="0" type="line"/>
      <point x="1064" y="1658" type="line"/>
      <point x="596" y="1658" type="line" smooth="yes"/>
      <point x="327" y="1658"/>
      <point x="63" y="1574"/>
      <point x="63" y="1196" type="curve" smooth="yes"/>
      <point x="63" y="1004"/>
      <point x="131" y="869"/>
      <point x="257" y="795" type="curve"/>
    </contour>
    <contour>
      <point x="617" y="981" type="line"/>
      <point x="438" y="981"/>
      <point x="401" y="1050"/>
      <point x="401" y="1193" type="curve" smooth="yes"/>
      <point x="401" y="1357"/>
      <point x="465" y="1409"/>
      <point x="616" y="1409" type="curve" smooth="yes"/>
      <point x="701" y="1409" type="line"/>
      <point x="701" y="981" type="line"/>
    </contour>
  </outline>
</glyph>
<glyph name="afii10066" format="1">
  <advance width="978"/>
  <unicode hex="0431"/>
  <outline>
    <contour>
      <point x="482" y="-19" type="curve" smooth="yes"/>
      <point x="728" y="-22"/>
      <point x="895" y="59"/>
      <point x="895" y="424" type="curve" smooth="yes"/>
      <point x="895" y="712" type="line" smooth="yes"/>
      <point x="895" y="1034"/>
      <point x="802" y="1152"/>
      <point x="592" y="1152" type="curve" smooth="yes"/>
      <point x="525" y="1152"/>
      <point x="447" y="1130"/>
      <point x="391" y="1101" type="curve"/>
      <point x="391" y="1109"/>
      <point x="393" y="1155"/>
      <point x="393" y="1162" type="curve" smooth="yes"/>
      <point x="402" y="1503"/>
      <point x="527" y="1364"/>
      <point x="806" y="1498" type="curve"/>
      <point x="806" y="1754" type="line"/>
      <point x="428" y="1591"/>
      <point x="88" y="1701"/>
      <point x="88" y="1074" type="curve" smooth="yes"/>
      <point x="88" y="449" type="line" smooth="yes"/>
      <point x="88" y="155"/>
      <point x="159" y="-16"/>
    </contour>
    <contour>
      <point x="498" y="194" type="curve" smooth="yes"/>
      <point x="417" y="194"/>
      <point x="409" y="243"/>
      <point x="409" y="459" type="curve" smooth="yes"/>
      <point x="409" y="825" type="line" smooth="yes"/>
      <point x="427" y="926"/>
      <point x="455" y="958"/>
      <point x="503" y="958" type="curve" smooth="yes"/>
      <point x="567" y="958"/>
      <point x="581" y="912"/>
      <point x="581" y="784" type="curve" smooth="yes"/>
      <point x="581" y="451" type="line" smooth="yes"/>
      <point x="581" y="238"/>
      <point x="571" y="194"/>
    </contour>
  </outline>
</glyph>
<glyph name="afii10067" format="1">
  <advance width="1021"/>
  <unicode hex="0432"/>
  <outline>
    <contour>
      <point x="93" y="0" type="line"/>
      <point x="516" y="0" type="line" smooth="yes"/>
      <point x="862" y="0"/>
      <point x="977" y="111"/>
      <point x="977" y="344" type="curve" smooth="yes"/>
      <point x="977" y="495"/>
      <point x="936" y="601"/>
      <point x="766" y="644" type="curve"/>
      <point x="878" y="672"/>
      <point x="948" y="735"/>
      <point x="947" y="889" type="curve" smooth="yes"/>
      <point x="946" y="1063"/>
      <point x="861" y="1184"/>
      <point x="509" y="1184" type="curve" smooth="yes"/>
      <point x="93" y="1184" type="line"/>
    </contour>
    <contour>
      <point x="422" y="187" type="line"/>
      <point x="422" y="536" type="line"/>
      <point x="477" y="536" type="line" smooth="yes"/>
      <point x="569" y="536"/>
      <point x="654" y="534"/>
      <point x="654" y="353" type="curve" smooth="yes"/>
      <point x="654" y="193"/>
      <point x="562" y="187"/>
      <point x="475" y="187" type="curve" smooth="yes"/>
    </contour>
    <contour>
      <point x="422" y="718" type="line"/>
      <point x="422" y="1009" type="line"/>
      <point x="480" y="1009" type="line" smooth="yes"/>
      <point x="587" y="1009"/>
      <point x="631" y="950"/>
      <point x="631" y="861" type="curve" smooth="yes"/>
      <point x="631" y="769"/>
      <point x="583" y="718"/>
      <point x="503" y="718" type="curve" smooth="yes"/>
    </contour>
  </outline>
</glyph>
<glyph name="afii10068" format="1">
  <advance width="696"/>
  <unicode hex="0433"/>
  <outline>
    <contour>
      <point x="95" y="0" type="line"/>
      <point x="426" y="0" type="line"/>
      <point x="426" y="968" type="line"/>
      <point x="680" y="968" type="line"/>
      <point x="680" y="1184" type="line"/>
      <point x="95" y="1184" type="line"/>
    </contour>
  </outline>
</glyph>
<glyph name="afii10069" format="1">
  <advance width="1233"/>
  <unicode hex="0434"/>
  <outline>
    <contour>
      <point x="37" y="-356" type="line"/>
      <point x="277" y="-356" type="line"/>
      <point x="297" y="0" type="line"/>
      <point x="943" y="0" type="line"/>
      <point x="965" y="-356" type="line"/>
      <point x="1197" y="-356" type="line"/>
      <point x="1197" y="203" type="line"/>
      <point x="1035" y="203" type="line"/>
      <point x="1035" y="1184" type="line"/>
      <point x="375" y="1184" type="line"/>
      <point x="343" y="805" type="line" smooth="yes"/>
      <point x="326" y="494"/>
      <point x="258" y="300"/>
      <point x="131" y="203" type="curve"/>
      <point x="37" y="203" type="line"/>
    </contour>
    <contour>
      <point x="458" y="203" type="line"/>
      <point x="531" y="297"/>
      <point x="591" y="469"/>
      <point x="604" y="743" type="curve" smooth="yes"/>
      <point x="626" y="983" type="line"/>
      <point x="731" y="983" type="line"/>
      <point x="731" y="203" type="line"/>
    </contour>
  </outline>
</glyph>
<glyph name="afii10070" format="1">
  <advance width="944"/>
  <unicode hex="0435"/>
  <outline>
    <contour>
      <point x="486" y="-21" type="curve" smooth="yes"/>
      <point x="732" y="-21"/>
      <point x="878" y="105"/>
      <point x="878" y="344" type="curve" smooth="yes"/>
      <point x="878" y="456" type="line"/>
      <point x="571" y="456" type="line"/>
      <point x="571" y="334" type="line" smooth="yes"/>
      <point x="571" y="250"/>
      <point x="539" y="216"/>
      <point x="485" y="216" type="curve" smooth="yes"/>
      <point x="424" y="216"/>
      <point x="405" y="272"/>
      <point x="405" y="365" type="curve" smooth="yes"/>
      <point x="405" y="571" type="line"/>
      <point x="878" y="571" type="line"/>
      <point x="878" y="800" type="line" smooth="yes"/>
      <point x="878" y="1062"/>
      <point x="752" y="1204"/>
      <point x="485" y="1204" type="curve" smooth="yes"/>
      <point x="226" y="1204"/>
      <point x="77" y="1058"/>
      <point x="77" y="801" type="curve" smooth="yes"/>
      <point x="77" y="382" type="line" smooth="yes"/>
      <point x="77" y="127"/>
      <point x="224" y="-21"/>
    </contour>
    <contour>
      <point x="405" y="727" type="line"/>
      <point x="405" y="824" type="line" smooth="yes"/>
      <point x="405" y="933"/>
      <point x="433" y="968"/>
      <point x="485" y="968" type="curve" smooth="yes"/>
      <point x="537" y="968"/>
      <point x="571" y="939"/>
      <point x="571" y="845" type="curve" smooth="yes"/>
      <point x="571" y="727" type="line"/>
    </contour>
  </outline>
</glyph>
<glyph name="afii10072" format="1">
  <advance width="1325"/>
  <unicode hex="0436"/>
  <outline>
    <contour>
      <point x="9" y="0" type="line"/>
      <point x="310" y="0" type="line"/>
      <point x="492" y="509" type="line"/>
      <point x="514" y="509" type="line"/>
      <point x="514" y="0" type="line"/>
      <point x="798" y="0" type="line"/>
      <point x="798" y="509" type="line"/>
      <point x="820" y="509" type="line"/>
      <point x="1015" y="0" type="line"/>
      <point x="1316" y="0" type="line"/>
      <point x="1053" y="600" type="line"/>
      <point x="1295" y="1184" type="line"/>
      <point x="1001" y="1184" type="line"/>
      <point x="818" y="679" type="line"/>
      <point x="798" y="679" type="line"/>
      <point x="798" y="1184" type="line"/>
      <point x="514" y="1184" type="line"/>
      <point x="514" y="679" type="line"/>
      <point x="492" y="679" type="line"/>
      <point x="324" y="1184" type="line"/>
      <point x="30" y="1184" type="line"/>
      <point x="259" y="600" type="line"/>
    </contour>
  </outline>
</glyph>
<glyph name="afii10073" format="1">
  <advance width="942"/>
  <unicode hex="0437"/>
  <outline>
    <contour>
      <point x="461" y="-21" type="curve" smooth="yes"/>
      <point x="747" y="-21"/>
      <point x="866" y="124"/>
      <point x="866" y="325" type="curve" smooth="yes"/>
      <point x="866" y="522"/>
      <point x="770" y="578"/>
      <point x="671" y="615" type="curve"/>
      <point x="762" y="640"/>
      <point x="860" y="711"/>
      <point x="860" y="873" type="curve" smooth="yes"/>
      <point x="860" y="1057"/>
      <point x="750" y="1204"/>
      <point x="475" y="1204" type="curve" smooth="yes"/>
      <point x="165" y="1204"/>
      <point x="71" y="1032"/>
      <point x="71" y="814" type="curve"/>
      <point x="334" y="814" type="line"/>
      <point x="334" y="943"/>
      <point x="368" y="975"/>
      <point x="464" y="975" type="curve" smooth="yes"/>
      <point x="538" y="975"/>
      <point x="576" y="935"/>
      <point x="576" y="852" type="curve" smooth="yes"/>
      <point x="576" y="745"/>
      <point x="547" y="700"/>
      <point x="399" y="700" type="curve"/>
      <point x="399" y="526" type="line"/>
      <point x="540" y="526"/>
      <point x="596" y="495"/>
      <point x="596" y="362" type="curve" smooth="yes"/>
      <point x="596" y="279"/>
      <point x="569" y="207"/>
      <point x="466" y="207" type="curve" smooth="yes"/>
      <point x="369" y="207"/>
      <point x="337" y="264"/>
      <point x="337" y="393" type="curve"/>
      <point x="71" y="393" type="line"/>
      <point x="71" y="170"/>
      <point x="140" y="-21"/>
    </contour>
  </outline>
</glyph>
<glyph name="afii10074" format="1">
  <advance width="1011"/>
  <unicode hex="0438"/>
  <outline>
    <contour>
      <point x="92" y="0" type="line"/>
      <point x="375" y="0" type="line"/>
      <point x="633" y="603" type="line"/>
      <point x="633" y="0" type="line"/>
      <point x="919" y="0" type="line"/>
      <point x="919" y="1184" type="line"/>
      <point x="633" y="1184" type="line"/>
      <point x="375" y="548" type="line"/>
      <point x="375" y="1184" type="line"/>
      <point x="92" y="1184" type="line"/>
    </contour>
  </outline>
</glyph>
<glyph name="afii10076" format="1">
  <advance width="1018"/>
  <unicode hex="043A"/>
  <outline>
    <contour>
      <point x="93" y="0" type="line"/>
      <point x="424" y="0" type="line"/>
      <point x="424" y="478" type="line"/>
      <point x="465" y="538" type="line"/>
      <point x="656" y="0" type="line"/>
      <point x="1007" y="0" type="line"/>
      <point x="760" y="638" type="line"/>
      <point x="1002" y="1184" type="line"/>
      <point x="645" y="1184" type="line"/>
      <point x="424" y="685" type="line"/>
      <point x="424" y="1184" type="line"/>
      <point x="93" y="1184" type="line"/>
    </contour>
  </outline>
</glyph>
<glyph name="afii10077" format="1">
  <advance width="1134"/>
  <unicode hex="043B"/>
  <outline>
    <contour>
      <point x="36" y="-3" type="line"/>
      <point x="90" y="-9"/>
      <point x="144" y="-13"/>
      <point x="184" y="-13" type="curve" smooth="yes"/>
      <point x="438" y="-13"/>
      <point x="517" y="143"/>
      <point x="545" y="543" type="curve"/>
      <point x="572" y="954" type="line"/>
      <point x="709" y="954" type="line"/>
      <point x="709" y="0" type="line"/>
      <point x="1040" y="0" type="line"/>
      <point x="1040" y="1184" type="line"/>
      <point x="291" y="1184" type="line"/>
      <point x="248" y="575" type="line"/>
      <point x="227" y="301"/>
      <point x="176" y="223"/>
      <point x="36" y="223" type="curve"/>
    </contour>
  </outline>
</glyph>
<glyph name="afii10078" format="1">
  <advance width="1132"/>
  <unicode hex="043C"/>
  <outline>
    <contour>
      <point x="91" y="0" type="line"/>
      <point x="357" y="0" type="line"/>
      <point x="357" y="567" type="line"/>
      <point x="513" y="171" type="line"/>
      <point x="619" y="171" type="line"/>
      <point x="775" y="566" type="line"/>
      <point x="775" y="0" type="line"/>
      <point x="1042" y="0" type="line"/>
      <point x="1038" y="1184" type="line"/>
      <point x="775" y="1184" type="line"/>
      <point x="566" y="598" type="line"/>
      <point x="356" y="1184" type="line"/>
      <point x="95" y="1184" type="line"/>
    </contour>
  </outline>
</glyph>
